<svg version="1.1" id="Layer_1" xmlns="http://www.w3.org/2000/svg" xmlns:xlink="http://www.w3.org/1999/xlink" x="0px" y="0px" viewBox="0 0 326.1 71" style="enable-background:new 0 0 326.1 71;" xml:space="preserve">
 <style type="text/css">
  .st0{fill:#002E55;}
	.st1{opacity:0.57;}
	.st2{clip-path:url(#SVGID_2_);}
	.st3{filter:url(#Adobe_OpacityMaskFilter);}
	.st4{clip-path:url(#SVGID_4_);fill:url(#SVGID_6_);}
	.st5{clip-path:url(#SVGID_4_);mask:url(#SVGID_5_);fill:url(#SVGID_7_);}
	.st6{filter:url(#Adobe_OpacityMaskFilter_1_);}
	.st7{enable-background:new    ;}
	.st8{fill:#FFFFFF;}
	.st9{mask:url(#SVGID_8_);}
	.st10{clip-path:url(#SVGID_10_);}
	.st11{clip-path:url(#SVGID_12_);fill:url(#SVGID_13_);}
	.st12{fill:#F68A1E;}
 </style>
 <g>
  <g>
   <path class="st0" d="M101.2,39.5h16.7l-8.3-21.2L101.2,39.5z M124.6,57.3L119.7,45H99.3l-4.9,12.3h-7L106.7,10h5.9L132,57.3H124.6
			z">
   </path>
   <g>
    <path class="st0" d="M165.4,41.6c-0.1,0.3-0.1,0.6-0.1,1h-25.2c0.3,6.5,4.5,10.3,10.5,10.3c6.1,0,10.1-3.3,10.8-3.8l2.8,3.8
				c-0.3,0.3-4.7,5.1-14.4,5.1c-9.7,0-16.4-6.6-16.4-17c0-10.2,7.5-16.8,16.6-16.8c9.1,0,15.5,6.5,15.5,15.5
				C165.5,40.3,165.4,41.1,165.4,41.6 M159.2,38.2c0-3.6-2.8-9.3-9.4-9.3c-6.5,0-9.4,5.4-9.7,9.3H159.2z">
    </path>
    <path class="st0" d="M189.9,30.8h-0.3c-0.6-0.3-1.7-0.7-3.6-0.7c-3,0-4.6,1.8-5.4,2.7c-0.6,0.9-2,3.3-2,8.2v16.2h-6.6V24.8h6.6
				l-0.1,5h0.2c1.6-3.8,4.5-5.6,8.1-5.6c1.1,0,1.9,0.1,2.6,0.3c0.3,0.1,0.6,0.2,0.9,0.3L189.9,30.8z">
    </path>
    <path class="st0" d="M209.1,58c-9.7,0-17.4-6.8-17.4-16.9c0-10,7.7-16.9,17.4-16.9c9.7,0,17.3,6.9,17.3,16.9
				C226.4,51.3,218.8,58,209.1,58 M209.1,29.6c-6.6,0-10.7,5.1-10.7,11.4c0,6.4,4.1,11.5,10.7,11.5c6.6,0,10.6-5.1,10.6-11.5
				C219.7,34.6,215.7,29.6,209.1,29.6">
    </path>
    <path class="st0" d="M247.9,57l-1.7,0.5c-1.1,0.3-2.6,0.5-4.3,0.5c-3.5,0-5.6-1.2-7-3.3c-1.4-2-1.7-4.6-1.7-9.7V30.2h-4.8v-5.3
				h4.8v-9.7h6.6v9.7h7.9v5.3h-7.9v14.7c0,2.7,0.1,4.6,0.8,5.9c0.6,1,1.5,1.6,3.4,1.6c0.9,0,1.7-0.1,2.4-0.3l1-0.4L247.9,57z">
    </path>
    <path class="st0" d="M282.3,41.6c-0.1,0.3-0.1,0.6-0.1,1H257c0.3,6.5,4.5,10.3,10.5,10.3c6.1,0,10.1-3.3,10.8-3.8l2.8,3.8
				c-0.3,0.3-4.7,5.1-14.4,5.1c-9.7,0-16.4-6.6-16.4-17c0-10.2,7.5-16.8,16.6-16.8c9.1,0,15.5,6.5,15.5,15.5
				C282.4,40.3,282.4,41.1,282.3,41.6 M276.2,38.2c0-3.6-2.8-9.3-9.4-9.3c-6.5,0-9.4,5.4-9.7,9.3H276.2z">
    </path>
    <polygon class="st0" points="318.3,57.3 310.6,57.3 299.4,41.6 295.6,45.1 295.6,57.3 289,57.3 289,10.1 295.6,10.1 295.6,37.8 
				309,24.8 316.7,24.8 303.9,37.1 			">
    </polygon>
    <path class="st0" d="M323.9,26.1c0-0.8-0.7-1.2-1.3-1.2l-1.5,0V29h0.7v-1.7h0.4l1,1.7h0.9l-1.1-1.8
				C323.5,27.1,323.9,26.7,323.9,26.1 M321.8,25.4h0.5c0.6,0,0.8,0.2,0.8,0.6c0,0.5-0.4,0.6-0.8,0.6h-0.5V25.4z">
    </path>
    <path class="st0" d="M322.5,23.4c-2,0-3.6,1.6-3.6,3.6c0,2,1.6,3.6,3.6,3.6c2,0,3.6-1.6,3.6-3.6
				C326.1,24.9,324.5,23.4,322.5,23.4 M322.5,29.9c-1.7,0-3-1.3-3-3c0-1.7,1.3-3,3-3c1.7,0,3,1.4,3,3
				C325.5,28.6,324.1,29.9,322.5,29.9">
    </path>
   </g>
  </g>
  <g>
   <g>
    <g class="st1">
     <g>
      <defs>
       <rect id="SVGID_1_" y="63.8" width="77.3" height="7.2">
       </rect>
      </defs>
      <clipPath id="SVGID_2_">
       <use href="#SVGID_1_" style="overflow:visible;">
       </use>
      </clipPath>
      <g class="st2">
       <defs>
        <path id="SVGID_3_" d="M0,67.4c0,2,17.3,3.6,38.6,3.6c21.3,0,38.6-1.6,38.6-3.6c0-2-17.3-3.6-38.6-3.6
								C17.3,63.8,0,65.4,0,67.4">
        </path>
       </defs>
       <clipPath id="SVGID_4_">
        <use xlink:href="#SVGID_3_" style="overflow:visible;">
        </use>
       </clipPath>
       <defs>
        <filter id="Adobe_OpacityMaskFilter" filterUnits="userSpaceOnUse" x="0" y="63.8" width="77.3" height="7.2">
         <feColorMatrix type="matrix" values="1 0 0 0 0  0 1 0 0 0  0 0 1 0 0  0 0 0 1 0">
         </feColorMatrix>
        </filter>
       </defs>
       <mask maskUnits="userSpaceOnUse" x="0" y="63.8" width="77.3" height="7.2" id="SVGID_5_">
        <g class="st3">
         <linearGradient id="SVGID_6_" gradientUnits="userSpaceOnUse" x1="16.1214" y1="327.0088" x2="17.4539" y2="327.0088" gradientTransform="matrix(55.2717 0 0 -54.786 -887.3013 17982.877)">
          <stop offset="0" style="stop-color:#FFFFFF">
          </stop>
          <stop offset="0.9995" style="stop-color:#4D4D4D">
          </stop>
          <stop offset="1" style="stop-color:#4D4D4D">
          </stop>
         </linearGradient>
         <rect x="0" y="63.8" class="st4" width="77.3" height="7.2">
         </rect>
        </g>
       </mask>
       <linearGradient id="SVGID_7_" gradientUnits="userSpaceOnUse" x1="16.1214" y1="327.0088" x2="17.4539" y2="327.0088" gradientTransform="matrix(55.2717 0 0 -54.786 -887.3013 17982.877)">
        <stop offset="0" style="stop-color:#D9DADB">
        </stop>
        <stop offset="0.9995" style="stop-color:#F2F2F3">
        </stop>
        <stop offset="1" style="stop-color:#F2F2F3">
        </stop>
       </linearGradient>
       <rect x="0" y="63.8" class="st5" width="77.3" height="7.2">
       </rect>
      </g>
     </g>
    </g>
    <defs>
     <filter id="Adobe_OpacityMaskFilter_1_" filterUnits="userSpaceOnUse" x="4.5" y="0" width="42.9" height="67">
      <feColorMatrix type="matrix" values="-1 0 0 0 1  0 -1 0 0 1  0 0 -1 0 1  0 0 0 1 0" color-interpolation-filters="sRGB" result="source">
      </feColorMatrix>
      <feFlood style="flood-color:white;flood-opacity:1" result="back">
      </feFlood>
      <feBlend in="source" in2="back" mode="normal">
      </feBlend>
     </filter>
    </defs>
    <mask maskUnits="userSpaceOnUse" x="4.5" y="0" width="42.9" height="67" id="SVGID_8_">
     <g class="st6">
      <rect x="4.5" y="0" width="42.9" height="67">
      </rect>
      <g class="st7">
       <polygon class="st8" points="29.8,0 47.4,0 47.4,0 47.4,27.5 						">
       </polygon>
      </g>
     </g>
    </mask>
    <g class="st9">
     <g>
      <defs>
       <rect id="SVGID_9_" x="4.5" width="42.9" height="67">
       </rect>
      </defs>
      <clipPath id="SVGID_10_">
       <use xlink:href="#SVGID_9_" style="overflow:visible;">
       </use>
      </clipPath>
      <g class="st10">
       <defs>
        <polygon id="SVGID_11_" points="29.8,0 47.4,0 4.5,67 							">
        </polygon>
       </defs>
       <clipPath id="SVGID_12_">
        <use xlink:href="#SVGID_11_" style="overflow:visible;">
        </use>
       </clipPath>
       <linearGradient id="SVGID_13_" gradientUnits="userSpaceOnUse" x1="14.7708" y1="329.4294" x2="16.1033" y2="329.4294" gradientTransform="matrix(32.2107 0 0 -31.9277 -471.2724 10551.4307)">
        <stop offset="0" style="stop-color:#025796">
        </stop>
        <stop offset="4.471040e-02" style="stop-color:#025796">
        </stop>
        <stop offset="0.55" style="stop-color:#00426B">
        </stop>
        <stop offset="0.6342" style="stop-color:#002E55">
        </stop>
        <stop offset="1" style="stop-color:#002E55">
        </stop>
       </linearGradient>
       <rect x="4.5" class="st11" width="42.9" height="67">
       </rect>
      </g>
     </g>
    </g>
   </g>
   <polygon class="st12" points="29.8,0 47.4,0 72.7,67 		">
   </polygon>
  </g>
 </g>
</svg>