<?xml version="1.0" encoding="utf-8"?>
<!-- Generator: Adobe Illustrator 26.0.3, SVG Export Plug-In . SVG Version: 6.00 Build 0)  -->
<svg version="1.0" id="katman_1" xmlns="http://www.w3.org/2000/svg" xmlns:xlink="http://www.w3.org/1999/xlink" x="0px" y="0px"
	 viewBox="0 0 600 450" style="enable-background:new 0 0 600 450;" xml:space="preserve">
<path d="M253.5,251.5l-6.3-15.9h-21.8l-6.3,15.8H210l22.3-56.1h8l22.3,56.2L253.5,251.5z M236.3,208.3l-7.6,19.3h15.5L236.3,208.3z
	 M296.6,244.9c-1.4,2.4-3.5,4.3-5.9,5.6s-5.2,2-8,1.8c-2.7,0-5.3-0.6-7.7-1.8v18.6h-8.2v-56.7h8.2v1.2c2.4-1.2,5.1-1.8,7.7-1.8
	c2.8-0.1,5.5,0.5,8,1.8s4.5,3.3,5.9,5.6c2.1,4,3,8.4,2.7,12.9C299.5,236.7,298.6,241,296.6,244.9z M289.5,223.3
	c-0.7-1.1-1.7-2-2.9-2.6c-1.2-0.6-2.5-0.8-3.8-0.7c-1.3-0.1-2.6,0.1-3.8,0.7c-1.2,0.6-2.2,1.5-2.9,2.6c-0.6,1.1-0.9,2.3-1,3.6v10.3
	c0.1,1.3,0.4,2.5,1,3.6c0.8,1,1.8,1.9,2.9,2.5c1.2,0.6,2.4,0.9,3.7,0.9c1.3,0,2.6-0.3,3.7-0.9c1.2-0.6,2.2-1.4,2.9-2.5
	c1.3-2.7,1.8-5.8,1.6-8.8C291.2,229.1,290.7,226.1,289.5,223.3z M335.1,244.9c-1.4,2.4-3.5,4.3-5.9,5.6s-5.2,2-8,1.8
	c-2.7,0-5.3-0.6-7.7-1.8v18.6h-8.2v-56.7h8.2v1.2c2.4-1.2,5.1-1.8,7.7-1.8c2.8-0.1,5.5,0.5,8,1.8s4.5,3.3,5.9,5.6
	c2.1,4,3,8.4,2.7,12.9C338,236.7,337.1,241,335.1,244.9z M327.9,223.3c-0.7-1.1-1.7-2-2.9-2.6c-1.2-0.6-2.5-0.8-3.8-0.7
	c-1.3-0.1-2.6,0.1-3.8,0.7c-1.2,0.6-2.2,1.5-2.9,2.6c-0.6,1.1-0.9,2.3-1,3.6v10.3c0.1,1.3,0.4,2.5,1,3.6c0.8,1,1.8,1.9,2.9,2.5
	c1.2,0.6,2.4,0.9,3.7,0.9c1.3,0,2.6-0.3,3.7-0.9c1.2-0.6,2.2-1.4,2.9-2.5c1.3-2.7,1.8-5.8,1.6-8.8
	C329.7,229.1,329.2,226.1,327.9,223.3z M385.7,235.7c-2,13.5-11.3,15.9-23.4,15.9h-17.8v-56.2h17.8c12,0,21.3,2.3,23.4,15.9
	c0.5,4.1,0.7,8.2,0.7,12.3C386.4,227.6,386.2,231.6,385.7,235.7z M362.3,203.6h-9.3v39.5h9.3c16,0,15.5-5.5,15.5-19.7
	C377.8,209.2,378.4,203.6,362.3,203.6z M394.3,251.5v-39.8h8.3v39.8H394.3z M394.3,204.7v-9.8h8.3v9.8H394.3z M432.2,221.3
	c-1.5-1-3.3-1.6-5.2-1.6c-3.3,0-7.5,2-7.5,5.7v26.2h-8.2v-39.4h8v1.2c2.3-1.1,4.9-1.6,7.5-1.6c3.1,0,6.1,0.7,8.9,2.1L432.2,221.3z
	 M445,235c0,2,0.6,4,1.6,5.8c1,1.2,2.2,2.2,3.6,2.8c1.4,0.6,3,0.9,4.5,0.8c1.6,0.1,3.1-0.2,4.6-0.8c1.4-0.6,2.7-1.6,3.8-2.8l6.6,5.2
	c-1.9,2.1-4.2,3.7-6.8,4.8c-2.6,1.1-5.4,1.6-8.2,1.5c-2.9,0.2-5.8-0.4-8.5-1.7c-2.6-1.3-4.9-3.1-6.7-5.5c-2.3-4-3.3-8.6-3-13.1
	c-0.3-4.6,0.8-9.2,3-13.1c1.6-2.3,3.8-4.2,6.3-5.4c2.5-1.2,5.3-1.8,8.1-1.6c2.7-0.1,5.3,0.5,7.7,1.8s4.4,3.1,5.8,5.3
	c2.3,5,3.1,10.6,2.4,16.1L445,235z M460.5,223.2c-0.7-1.1-1.7-2-2.8-2.6c-1.2-0.6-2.5-0.9-3.8-0.8c-1.1-0.1-2.1,0-3.1,0.3
	c-1,0.3-1.9,0.8-2.8,1.5c-0.8,0.7-1.5,1.5-2,2.4c-0.5,0.9-0.8,2-0.9,3h16.3c0-1.3-0.3-2.6-0.8-3.9H460.5z M492.7,252.2
	c-11.4,0-18.2-8.6-18.2-20.6s6.8-20.6,18.2-20.6c3,0,5.9,0.7,8.5,2c2.6,1.3,4.9,3.3,6.6,5.7l-6,5.2c-4.3-4.7-6.1-5.2-9.1-5.2
	c-1.5-0.1-2.9,0.2-4.3,0.8c-1.3,0.6-2.5,1.6-3.4,2.8c-1.7,2.7-2.4,6-2.1,9.2c-0.4,3.3,0.4,6.5,2.1,9.3c0.9,1.2,2,2.2,3.4,2.8
	c1.3,0.6,2.8,0.9,4.3,0.8c3,0,4.7-0.7,9.1-5.2l6,5.2c-1.7,2.4-4,4.4-6.6,5.7C498.5,251.5,495.6,252.2,492.7,252.2z M512.5,211.7
	v-9.3l7.9-1.3v10.6h7v7.4h-7v21.9c-0.1,0.6-0.1,1.2,0,1.8c0.1,0.2,0.2,0.3,0.4,0.5c0.2,0.1,0.4,0.1,0.6,0.1h5.2v8.1h-5.2
	c-1.5,0-3-0.3-4.3-1c-1.3-0.7-2.4-1.7-3.2-3c-1.1-2-1.6-4.2-1.4-6.4L512.5,211.7L512.5,211.7z"/>
<path d="M79.5,261.5l33.6-14.6l16.2-48.1l-16.4-26.1L79.5,261.5z M112.1,164.4l41.2,65.1l24.2-10.5l-38.6-54.6H112.1z M195,215.6
	l-122.2,53l26,17.8l81.9-34.8L195,215.6z"/>
</svg>
