<svg version="1.1" viewBox="0 0 263 58" x="0px" xml:space="preserve" xmlns="http://www.w3.org/2000/svg" xmlns:xlink="http://www.w3.org/1999/xlink" y="0px">
 <path d="M128.9,34.6c-0.2,0.5-1.5,2.9-4.6,2.9c-3.6,0-5-3-5-5.2c0-3.6,2.5-6.9,6.1-6.9c3.9,0,4.8,2.9,4.9,3.4h5.7
                       c0.3-2.1-1.4-8.7-10.4-8.7c-6.6,0-11.9,5.3-11.9,12.3c0,5.8,3.6,10.2,10.3,10.2c8.3,0,10.6-6.5,10.9-8.1L128.9,34.6L128.9,34.6z
                       ">
 </path>
 <path d="M85.1,36.2c0-0.3,0.1-1,0.4-2.3S89.8,14,89.8,14h-5.4L80,34.5c-0.2,0.9-0.3,1.7-0.3,2.5
                       c0,4.5,3.5,5.8,6.3,5.8c1,0,1.9-0.2,2.2-0.2c0.1-0.4,0.9-4.3,1-4.5c-0.1,0-0.7,0.1-1.4,0.1C85.7,38.1,85.1,37.3,85.1,36.2z">
 </path>
 <polygon points="161.2,20.2 153.7,20.2 144.1,28.9 147.4,13.9 142,13.9 135.8,42.3 141.2,42.3 142.7,35.4 146,32.8 
                       150.6,42.3 156.6,42.3 150.1,29.5 				">
 </polygon>
 <path d="M55.6,33.5c0.4-2,4.3-19.6,4.3-19.6s6.6,0,10.2,0c7.4,0,9.2,4.1,9.2,6.6c0,5.5-5.2,7-5.9,7.2
                       c0.6,0.2,4,1.5,4,5.9c0,4.7-4.4,8.7-11.1,8.7c0,0-2.4,0-3.1,0C57.6,42.3,54.5,38.4,55.6,33.5z M71.6,33.2c0-1.3-0.9-3-4.7-3h-5
                       L60.5,37h5.6C69.7,37,71.6,35.4,71.6,33.2z M73.4,21.7c0-1.4-1.1-2.6-3.6-2.6h-5.5l-1.2,5.7h5.7C71.9,24.9,73.4,23.4,73.4,21.7z
                       ">
 </path>
 <path d="M158.7,33.5c0.4-2,4.3-19.6,4.3-19.6s6.6,0,10.2,0c7.4,0,9.2,4.1,9.2,6.6c0,5.5-5.2,7-5.9,7.2
                       c0.6,0.2,4,1.5,4,5.9c0,4.7-4.4,8.7-11.1,8.7c0,0-2.4,0-3.1,0C160.7,42.3,157.7,38.4,158.7,33.5z M174.7,33.2c0-1.3-0.9-3-4.7-3
                       h-5l-1.5,6.9h5.6C172.9,37,174.7,35.4,174.7,33.2z M176.6,21.7c0-1.4-1-2.6-3.6-2.6h-5.5l-1.2,5.7h5.7
                       C175,24.9,176.6,23.4,176.6,21.7z">
 </path>
 <path d="M219.5,20.2c-5.7,0-9.6,3.4-10.9,9.7c-0.6,2.7-2.6,12.3-2.6,12.3h5.4c0,0,2-9.1,2.6-12c0.8-3.8,2.8-5,5.5-5
                       c0.9,0,1.4,0.1,1.7,0.1c0.1-0.8,0.9-4.2,1.1-5C221.6,20.4,220.7,20.2,219.5,20.2z">
 </path>
 <path d="M237.7,50.7l18-30.5h-5.8l-8.3,14.4l-1.9-14.4c0,0-2.9,0-6.2,0c-7.1,0-10.8,3.2-12.1,9.4
                       c-0.7,3.1-2.7,12.6-2.7,12.6h5.4c0,0,2-9.1,2.7-12.7c0.8-3.5,3.4-4.6,6.2-4l1.1-5.2c0.8,4.9,3.4,20.8,3.4,20.8l-5.6,9.6
                       C231.9,50.7,237.7,50.7,237.7,50.7z">
 </path>
 <path d="M100.5,32.9c1.2-0.2,4.6-0.7,5.1-0.8c-0.1,0.4-0.2,1-0.3,1.4c-0.6,2.7-3.3,4.4-6.3,4.4c-1.9,0-3-1-3-2.3
                       C95.9,34.6,96.9,33.4,100.5,32.9z M98.5,27.1c0.1-0.2,1.5-2.3,4.9-2.3c2.1,0,3.2,0.8,3.2,1.7c0,1.3-2.2,1.7-5.9,2.2
                       c-6.4,0.9-10.5,2.9-10.5,7.5c0,3.3,2.7,6.5,7.6,6.5c4,0,6.1-2.4,6.3-2.6c0,0.6,0.1,1.5,0.2,2.2c0.4,0,4.2,0,5.5,0
                       c-0.2-1-0.6-2.8,0.1-5.7c0.3-1.5,1.3-6,1.8-8.5c0.9-4.6-1.6-7.9-8.1-7.9c-8.4,0-10.8,6-11.2,7h6.1V27.1z">
 </path>
 <path d="M198.1,35.7c-0.2,0.4-1.5,2.3-4.4,2.3c-4.2,0-5.2-3.6-5.1-4.5c2.2,0,15.2,0,16.3,0c0.1-0.4,0.5-1.9,0.5-3.3
                       c0-5.2-3.5-9.9-10.6-9.9c-6.5,0-11.7,5.4-11.7,11.9c0,6.2,3.8,10.7,10.4,10.7c8.2,0,10.4-6.4,10.6-7
                       C202.7,35.7,198.1,35.7,198.1,35.7z M194.9,25.1c3.6,0,5,2.2,4.8,4c-2.1,0-8.2,0-10.3,0C189.7,27.9,191.4,25.1,194.9,25.1z">
 </path>
 <path d="M21.7,10.7c0-1.4-0.8-3.1-4.3-3.1c-1.4,0-5.4,0-5.4,0l-1.5,7.1c0,0,2.9,0,5.6,0
                       C20.4,14.7,21.7,12.6,21.7,10.7z">
 </path>
 <path d="M36.2,10.7c0-1.4-0.8-3.1-4.3-3.1c-1.4,0-5.4,0-5.4,0L25,14.7c0,0,2.9,0,5.6,0C35,14.7,36.2,12.6,36.2,10.7
                       z">
 </path>
 <path d="M19.7,21.4c0-1.4-0.8-3.1-4.3-3.1c-1.4,0-5.4,0-5.4,0l-1.5,7.1c0,0,2.9,0,5.6,0
                       C18.5,25.4,19.7,23.3,19.7,21.4z">
 </path>
 <path d="M34.3,21.4c0-1.4-0.8-3.1-4.3-3.1c-1.4,0-5.4,0-5.4,0L23,25.4c0,0,2.9,0,5.6,0C33,25.4,34.3,23.3,34.3,21.4
                       z">
 </path>
 <path d="M49.5,17c0-1.4-0.8-3.1-4.3-3.1c-1.4,0-5.4,0-5.4,0L38.2,21c0,0,2.9,0,5.6,0C48.2,21,49.5,19,49.5,17z">
 </path>
 <path d="M47.4,28.1c0-1.4-0.8-3.1-4.3-3.1c-1.4,0-5.4,0-5.4,0l-1.5,7.1c0,0,2.9,0,5.6,0
                       C46.1,32.1,47.4,30.1,47.4,28.1z">
 </path>
 <path d="M32.2,32.5c0-1.4-0.8-3.1-4.3-3.1c-1.4,0-5.4,0-5.4,0L21,36.5c0,0,2.9,0,5.6,0
                       C30.9,36.5,32.2,34.4,32.2,32.5z">
 </path>
 <path d="M252.7,36c1.7,0,3.2,1.4,3.2,3.2c0,1.9-1.5,3.2-3.2,3.2c-1.8,0-3.2-1.4-3.2-3.2C249.5,37.3,251,36,252.7,36z
                        M252.7,36.5c-1.5,0-2.6,1.1-2.6,2.7c0,1.6,1.1,2.7,2.6,2.7s2.6-1.1,2.6-2.7S254.2,36.5,252.7,36.5z M252,41h-0.6v-3.7h1.4
                       c0.9,0,1.3,0.3,1.3,1.1c0,0.7-0.4,0.9-1,1l1.1,1.6h-0.6l-1-1.6H252V41z M252,38.9h0.7c0.7,0,0.9-0.2,0.9-0.6c0-0.4-0.2-0.6-0.8-0.6
                       H252V38.9z">
 </path>
</svg>