<svg width="126" height="44" xmlns="http://www.w3.org/2000/svg"><g fill="none"><path d="M13.436 17.111c0 2.298-1.049 3.569-3.812 3.569h-2.36v-7.022c.299-.03 1.299-.049 1.598-.049h.805c2.818 0 3.77 1.198 3.77 3.502zm5.611 9.167c0-3.624-2.952-4.938-6.532-5.017v-.135c3.05-.25 5.544-1.528 5.544-4.608 0-3.428-2.83-4.07-5.995-4.07-3.806 0-8.27.104-12.064 0v1.18c.799-.055 2.75.055 2.75 1.063v14.593c0 .978-2 1.113-2.75 1.113v1.149c3.66-.098 8.02 0 11.71 0 3.88 0 7.337-1.314 7.337-5.268zm-4.879-.373c0 3-1.043 4.424-4.666 4.424H7.246v-8.408h2.403c3.311 0 4.537 1.118 4.537 3.96l-.018.024zm29.428 5.61c-1.708 0-3.41 0-5.111.03v-1.173c.774 0 2.921-.043 2.921-1.088V15.73h-.06l-7.698 16.048h-.927l-7.508-16.079h-.054v13.585c0 1.07 2.128 1.088 2.933 1.088l.037 1.174c-2.129-.068-5.032-.117-7.124 0v-1.174c.811 0 2.641-.067 2.641-1.088V14.667c0-.996-1.89-1.082-2.64-1.082v-1.18a88.89 88.89 0 007.446 0l6.416 13.561 6.569-13.512c2.33.104 4.964.074 7.319-.03v1.18c-.775 0-2.806.054-2.806 1.081v14.6c0 1.044 2.007 1.087 2.806 1.087v1.174c-1.726-.05-3.458-.031-5.16-.031zm23.079-9.552c0 3.667-.36 8.733-5.764 8.733s-5.794-5.09-5.794-8.733c0-3.642.39-8.696 5.794-8.696s5.764 5.066 5.764 8.696zm5.05 0c0-6.325-3.855-9.875-10.814-9.875s-10.85 3.52-10.85 9.875c0 6.356 3.86 9.9 10.85 9.9s10.814-3.538 10.814-9.9z" fill="#0079C1"/><path d="M104.043 0C91.917 0 82.087 9.85 82.087 22s9.83 22 21.956 22C116.17 44 126 34.15 126 22s-9.83-22-21.957-22z" fill="#ED1C24"/><path d="M103.373 15.278l-3.812-4.98a.847.847 0 00-.677-.337.823.823 0 00-.659.324l-4.538 5.726v8.983l4.526-5.799a.878.878 0 011.384.006l3.83 5.017a.82.82 0 00.61.318.798.798 0 00.61-.318l3.83-5.017a.89.89 0 01.696-.342.86.86 0 01.689.336l4.513 5.793v-8.983l-4.537-5.726a.835.835 0 00-.665-.324.866.866 0 00-.677.336l-3.782 4.987a.835.835 0 01-.67.33.853.853 0 01-.671-.33zm11.033 16.298H93.669v-6.588h20.737v6.588z" fill="#FFF"/></g></svg>