<?xml version="1.0" encoding="UTF-8" standalone="no"?>
<svg
   xmlns:dc="http://purl.org/dc/elements/1.1/"
   xmlns:cc="http://creativecommons.org/ns#"
   xmlns:rdf="http://www.w3.org/1999/02/22-rdf-syntax-ns#"
   xmlns:svg="http://www.w3.org/2000/svg"
   xmlns="http://www.w3.org/2000/svg"
   xmlns:sodipodi="http://sodipodi.sourceforge.net/DTD/sodipodi-0.dtd"
   xmlns:inkscape="http://www.inkscape.org/namespaces/inkscape"
   viewBox="0 0 80000 12063.03"
   id="logo"
   width="500"
   height="194.565"
   version="1.1"
   sodipodi:docname="Compulsion Games Logo.svg"
   inkscape:version="0.92.3 (2405546, 2018-03-11)">
  <metadata
     id="metadata17">
    <rdf:RDF>
      <cc:Work
         rdf:about="">
        <dc:format>image/svg+xml</dc:format>
        <dc:type
           rdf:resource="http://purl.org/dc/dcmitype/StillImage" />
        <dc:title>logo</dc:title>
      </cc:Work>
    </rdf:RDF>
  </metadata>
  <defs
     id="defs15" />
  <sodipodi:namedview
     pagecolor="#ffffff"
     bordercolor="#666666"
     borderopacity="1"
     objecttolerance="10"
     gridtolerance="10"
     guidetolerance="10"
     inkscape:pageopacity="0"
     inkscape:pageshadow="2"
     inkscape:window-width="2560"
     inkscape:window-height="1377"
     id="namedview13"
     showgrid="false"
     units="px"
     inkscape:zoom="0.70710678"
     inkscape:cx="146.80768"
     inkscape:cy="-89.8486"
     inkscape:window-x="-8"
     inkscape:window-y="-8"
     inkscape:window-maximized="1"
     inkscape:current-layer="logo" />
  <title
     id="title2">logo</title>
  <g
     id="g38"
     transform="matrix(500.32704,0,0,500.31418,-50.457474,-9533.6849)">
    <path
       inkscape:connector-curvature="0"
       style="fill:#ebca70"
       id="path4"
       d="m 89,59.4 c 0,-2 0.1,-3.9 0.1,-5.8 0,-0.9 0.1,-1.7 0.1,-2.6 0,-0.7 -0.1,-1.4 -0.2,-2.1 2.1,0 4.3,-0.4 6.5,-1.1 0.1,0 0.5,0.1 0.5,0.2 0.3,0.7 0.5,1.4 0.7,2.1 -0.1,0 -0.1,0.1 -0.2,0.1 -0.1,-0.1 -0.2,-0.3 -0.3,-0.4 -0.2,-0.9 -0.9,-1 -1.5,-0.8 -1.1,0.2 -2.2,0.6 -3.2,0.9 -0.1,0 -0.2,0.3 -0.2,0.5 0,0.7 0,1.4 0,2.1 1.4,0 2.7,0 4.2,0 0,0 0.1,0.2 0.3,0.5 -1.5,0.7 -3,0.3 -4.5,0.5 0,1.6 0,3.3 0,5 1.5,0 3,0 4.5,0 0.4,0 0.6,-0.2 0.5,-0.7 -0.2,-1.3 0.3,-2.4 1.3,-3.2 0.7,-0.6 1.6,-0.6 2.3,-0.2 0.5,0.3 0.7,0.7 0.6,1.4 -0.1,0 -0.2,0 -0.2,0 -0.4,-0.6 -0.8,-1 -1.6,-0.8 -0.8,0.2 -0.9,0.8 -1,1.5 -0.2,1.5 0.1,2.2 1.5,2.8 0.7,0.3 1.5,0.5 2.3,0.5 2.2,0.1 3.6,-1.7 3,-3.9 -0.4,-1.3 -1.2,-2.2 -2.3,-2.9 -0.7,-0.4 -1.4,-0.8 -2.1,-1.3 -1,-0.7 -1.6,-1.7 -1.9,-2.9 -0.2,-1.4 0.3,-2.4 1.6,-2.9 1.6,-0.6 3.3,-0.4 4.9,0.2 0.4,0.2 0.9,0.2 1.5,0.2 0.1,1.1 0.2,2.4 0.3,3.7 -0.1,0 -0.1,0 -0.2,0 -0.2,-0.4 -0.3,-0.8 -0.5,-1.2 -0.8,-2.1 -3.5,-3.1 -5.5,-2 -1,0.5 -1.3,1.5 -0.5,2.3 0.5,0.6 1.2,1 1.9,1.3 1,0.5 2.1,0.9 3.1,1.3 4,1.8 3.5,7.2 1.1,9 -2,1.5 -4.2,1.8 -6.5,0.8 -0.9,-0.4 -1.6,-1.1 -2.4,-1.6 -0.3,-0.2 -0.6,-0.4 -1,-0.4 -2.3,-0.1 -4.7,-0.1 -7,-0.1 z m -2.6,-2.7 c 0,-1.8 0,-3.7 -0.1,-5.5 0,-1.1 0,-2.1 0.6,-3.1 -0.7,0.2 -1.3,0.5 -2,0.8 -0.1,0.1 -0.3,0.3 -0.3,0.4 -0.9,2.1 -1.7,4.3 -2.6,6.4 -0.1,0.2 -0.2,0.3 -0.3,0.6 -0.4,-1.1 -0.9,-2.1 -1.2,-3.1 -0.5,-1.4 -1.1,-2.9 -1.6,-4.3 -0.1,-0.2 -0.4,-0.5 -0.6,-0.5 -0.8,0 -1.6,0.2 -2.5,0.3 1.6,0.6 1.6,0.7 1.6,2.3 0,2.3 -0.1,4.5 -0.1,6.8 0,0.9 -0.6,1.4 -1.5,1.5 -0.9,0.1 -0.9,-0.6 -1.1,-1.2 -0.1,-0.2 -0.1,-0.5 -0.1,-0.7 0,-0.9 0,-1.9 -0.1,-2.8 -0.1,-0.7 0.3,-0.8 0.8,-0.8 0.4,0 0.9,-0.1 1.3,-0.1 0,-0.1 0,-0.2 0,-0.2 -0.5,-0.1 -1,-0.2 -1.6,-0.2 -0.4,0 -0.6,-0.2 -0.6,-0.6 -0.2,-1 -0.4,-2 -0.8,-2.9 -0.2,-0.6 -0.7,-1.1 -1.4,-1.3 -2.4,-0.8 -4.7,0.7 -4.9,3.3 0,0.4 0,0.9 0,1.5 -1.8,0 -3.5,-0.1 -5.1,0 -0.9,0.1 -1.8,0.4 -2.8,0.6 0,0.1 0,0.2 0.1,0.3 0.5,0 1,-0.1 1.4,-0.1 1.4,-0.1 1.9,0.4 2,1.7 0,0.4 0,0.8 0,1.2 -0.1,1.8 -1,3 -2.7,3.6 -0.7,0.3 -1.4,0.3 -2,-0.3 -0.3,-0.3 -0.7,-0.5 -1,-0.7 -4.4,-3 -4.3,-8.7 -0.2,-12.2 0.3,-0.3 0.7,-0.5 1.1,-0.6 1.2,-0.4 2.3,-0.1 3.3,0.8 0.8,0.8 1.3,1.8 1.2,3 0.3,-0.5 0.7,-1.1 0.8,-1.7 0.2,-1.1 -0.4,-2.2 0.6,-3.2 -0.2,0.1 -0.4,0.2 -0.5,0.3 -0.7,0.5 -1.4,0.7 -2.4,0.3 -2.2,-0.9 -4.4,-0.6 -6.2,1.2 -1.3,1.3 -2.3,2.7 -2.9,4.5 -0.9,2.7 0,5.1 1.6,7.1 1.1,1.2 2.8,2 4.3,2.8 1.1,0.6 2.3,0.3 3.4,-0.4 1.3,-0.8 2.1,-2.1 2.4,-3.6 0.2,-0.8 0.2,-1.6 0.3,-2.4 0.2,-1 0.7,-1.4 1.7,-1.4 0.5,0 0.9,0.1 1.4,0.1 -0.2,1.9 0.9,3.9 -0.8,5.6 0.7,0 1.2,0 1.8,0 -0.8,-1.9 -0.1,-3.7 -0.2,-5.6 1.5,0 2.8,0 4.2,0 0,1.8 0,3.5 0,5.2 -0.3,0.1 -0.5,0.2 -0.7,0.3 0,0 0,0.1 0.1,0.1 2.6,0 5.3,0 7.9,0 -0.1,-0.1 -0.1,-0.2 -0.2,-0.2 -1.6,-0.5 -1.9,-0.8 -1.8,-2.5 0,-1.4 0,-2.9 0.1,-4.3 0,-0.6 0.1,-1.3 0.2,-2.1 1.2,3 2.4,5.7 3.6,8.6 1.2,-2.8 2.3,-5.4 3.3,-7.8 0,2 0,4.1 0,6.2 0,0.8 0,1.5 -0.8,2 0,0 0,0.1 0,0.1 1.3,0 2.5,0 3.8,0 -1.3,-0.8 -1.1,-2 -1.2,-3.1 z M 68.1,53 c 0,-0.8 0,-1.5 0,-2.2 0,-0.8 1.2,-1.9 2,-2 0.9,-0.1 1.7,0.4 1.9,1.4 0.2,0.9 0.2,1.8 0.3,2.7 C 70.9,53 69.5,53 68.1,53 Z" />
    <path
       inkscape:connector-curvature="0"
       style="fill:#ebca70"
       id="path6"
       d="m 29.7,29.4 c 0.1,0.3 0.4,0.6 0.5,1 0.1,0.9 0.2,1.8 0.3,2.8 0,0.8 -0.3,1.6 -0.9,2.2 -0.1,0.1 -0.3,0.3 -0.3,0.5 -0.4,1.2 -1.3,1.8 -2.6,2.1 -0.4,0.1 -0.9,0.3 -1.3,0.6 -2.3,1.3 -4.9,1.9 -7.5,2.2 -0.7,0.1 -1.5,0 -2.1,-0.3 C 11.2,38.6 7.4,35.7 4.3,31.8 2.9,30 2.1,28.1 1.2,26.1 0,23.6 0,21.1 0.2,18.5 0.4,15.5 1.5,12.8 3.2,10.3 4.9,7.4 7.1,5 9.9,3.2 c 1.8,-1.2 3.9,-1.7 6,-1.9 2.4,-0.2 4.9,-0.2 7.2,0.6 1.1,0.3 2.1,0.1 3,-0.5 0.6,-0.4 1.2,-0.7 1.8,-1 0.5,-0.2 1,-0.3 1.4,-0.4 0,0.1 0.1,0.1 0.1,0.2 -0.2,0.2 -0.3,0.4 -0.5,0.5 -1.5,1 -2.2,2.4 -2.1,4.2 0,0.8 0.1,1.5 0.1,2.3 0,1.2 -0.6,2.2 -1.4,3.1 C 25.4,9.6 25.3,8.9 25.3,8.1 25.2,6.6 24.4,5.5 23.2,4.6 19.1,1.6 13.7,2.3 10.5,6.3 c -3.2,4 -4.9,8.6 -5,13.7 0,2.1 0.3,4.2 1.5,6 1.3,1.9 2.3,4 3.5,5.9 1.5,2.2 3.6,3.8 5.9,5 1.2,0.6 2.4,0.6 3.6,0.4 3.7,-0.9 6.6,-2.9 8.8,-5.8 0.5,-0.6 0.6,-1.4 0.9,-2.1 z m 43.6,-24 c 2.5,-0.5 4.6,0.9 7,1.1 -1.7,0.9 -2,2.4 -2,3.9 0,2.7 0,5.4 0.1,8.1 0,1.7 0,3.3 0.2,5 0.2,1.9 1.4,3.1 3.1,3.6 1.8,0.5 3.6,-0.1 4.9,-1.6 0.4,-0.4 0.6,-1.1 0.6,-1.6 0.1,-3.6 0.1,-7.2 0,-10.7 0,-0.7 -0.5,-1.5 -1,-2 -0.5,-0.4 -1.3,-0.5 -2,-0.7 0.2,-0.4 0.7,-0.5 1.2,-0.6 0.7,-0.1 1.3,0 2,0 1.1,0 2.2,0 3.3,0 0,0.6 -0.4,0.8 -0.8,0.9 -1.2,0.2 -1.7,0.9 -1.7,2.1 0,2.3 0,4.7 0,7 0,1.5 0,3 -0.1,4.5 -0.2,1.8 -1.8,3.6 -3.6,4 -0.4,0.1 -0.7,0.2 -1.2,0.3 0.4,0.2 0.7,0.3 1,0.4 2.7,0.9 5.4,1.9 8.1,2.7 3.5,1.1 7,0.8 10.4,-0.7 2.1,-0.9 3,-2.6 3.3,-4.7 0.4,-2.9 -1,-5 -3.1,-6.8 -0.3,-0.3 -0.9,-0.3 -1.3,-0.6 -1.3,-0.8 -2.4,-1.7 -3.2,-3 -0.7,-1.2 -0.7,-2.5 -0.3,-3.8 0.8,-2.7 3.1,-4.1 5.9,-3.6 0.1,0 0.3,0 0.4,0.1 1.3,0.2 2.7,0.7 4,-0.5 0.1,2.1 0.2,4 0.3,5.9 -0.1,0 -0.2,0 -0.3,0.1 -0.2,-0.5 -0.4,-1 -0.5,-1.6 -0.8,-2.9 -4.1,-4.2 -6.7,-2.7 -1.5,0.9 -1.9,3 -0.7,4.2 0.6,0.6 1.4,1.2 2.3,1.6 1.2,0.6 2.5,1 3.7,1.6 0.7,0.3 1.3,0.7 1.9,1.1 0.5,0.4 0.8,1 1,1.7 0.3,1.2 0.8,2.4 1.4,3.6 0.3,0.8 0.6,1.5 0.5,2.4 0,0.3 -0.1,0.6 0,0.8 0.6,1.9 -0.2,3.4 -1.3,4.8 -1.8,2.3 -4.2,3.7 -7.1,3.7 -5.6,0.1 -10.9,-1.4 -15.9,-4 -0.8,-0.4 -1.6,-0.8 -2.5,-1.2 -1.1,-0.4 -2.2,-0.4 -3.2,0.2 -0.9,0.5 -1,1.5 -0.2,2.1 0.4,0.2 1,0.1 1.3,0.2 -0.3,0.3 -1,0.6 -1.6,0.4 -0.6,-0.2 -0.7,-0.8 -0.7,-1.3 -0.1,-1.5 0.2,-2.1 1.6,-2.8 0.1,-0.1 0.2,-0.2 0.5,-0.3 -0.5,-0.1 -0.9,-0.2 -1.3,-0.2 -2.8,-0.4 -4.6,-2.1 -4.9,-4.9 -0.2,-1.9 -0.2,-3.9 -0.1,-5.9 0,-2.5 0.1,-5 0.2,-7.4 0,-0.5 -0.1,-1 -0.1,-1.5 C 76,7.5 75.4,6.6 74.3,6 73.8,5.8 73.6,5.7 73.3,5.4 Z m -37.6,7.9 c 0,1.4 0,2.7 0,4.1 0,2.8 0,5.7 0,8.5 0,1.3 -0.1,2.6 -0.1,3.8 0,1.8 0.6,2.3 2.4,1.8 0.1,0 0.2,0 0.3,-0.1 -0.3,0.7 -0.3,0.8 -1,0.9 -1.1,0.2 -2.2,0.4 -3.3,0.6 -0.6,0.1 -1.3,0.4 -2,0.4 0.3,-0.4 0.5,-0.9 0.9,-1.1 1.7,-0.7 1.9,-2.1 1.9,-3.8 -0.1,-3.5 -0.1,-7 -0.1,-10.5 0,-1.6 0.1,-3.2 0.1,-4.8 0,-1.3 -0.5,-2.3 -1.6,-2.9 C 32.7,9.9 32.4,9.5 32,9.2 32,9.1 32.1,9.1 32.1,9 c 0.2,0 0.3,0 0.4,0.1 0.8,0.6 1.7,0.6 2.7,0.5 1.9,-0.1 1.9,-0.1 2.5,1.6 1.5,4 3.1,8.1 4.6,12.1 0.2,0.6 0.4,1.2 0.6,1.7 0.1,0.2 0.3,0.4 0.4,0.4 0.2,0 0.4,-0.2 0.5,-0.4 0.4,-0.8 0.7,-1.5 1,-2.3 1.9,-4.2 3.7,-8.5 5.5,-12.8 0.2,-0.5 0.5,-0.7 1,-0.7 0.9,0 1.8,-0.1 2.7,0 0.6,0 1.1,0.2 1.3,0.9 -2.2,0.2 -2.9,1.2 -2.3,3.4 0.1,0.3 -0.1,0.6 -0.1,0.9 -0.2,1 -0.6,2 -0.6,3.1 0,3 0,5.9 0.1,8.9 0.1,1.4 0.6,2.1 1.9,2.6 -2.4,0.3 -4.8,0.7 -7.1,1 0.3,-0.2 0.8,-0.4 1.3,-0.6 1.2,-0.5 1.3,-0.7 1.3,-1.9 0,-0.5 0.1,-1 0.2,-1.5 0.1,-0.8 0.2,-1.5 -0.3,-2.3 -0.1,-0.2 -0.1,-0.6 0,-0.9 0.1,-0.8 0.4,-1.6 0.4,-2.4 0.1,-2.2 0,-4.5 0,-6.7 -0.1,0 -0.1,0 -0.2,0 -2.5,5.8 -5,11.5 -7.5,17.3 -0.1,0 -0.1,0 -0.2,0 -0.4,-1.3 -0.8,-2.7 -1.2,-4 -0.8,-2.9 -1.7,-5.8 -3.5,-8.3 -0.3,-0.4 -0.3,-1.1 -0.4,-1.6 -0.1,-0.6 -0.2,-1.2 -0.4,-1.8 -0.3,-0.8 -0.6,-1.6 -0.9,-2.4 0,0.4 -0.1,0.4 -0.1,0.4 z M 102.6,29 c 0,0 -0.2,0 -0.2,-0.1 -0.9,-0.8 -1.8,-0.6 -2.9,-0.5 -1.3,0.2 -2.6,0.1 -4,0.1 -2,0 -3.9,-0.1 -5.8,-0.2 0.1,0 0.2,-0.2 0.5,-0.3 0.3,-0.1 0.7,-0.2 1,-0.3 1.4,-0.3 1.7,-0.7 1.8,-2.1 0,-1 -0.1,-2.1 -0.1,-3.1 0,-4 0,-8 0,-12 0,-1 0,-1.9 0,-2.9 C 92.8,6.2 92.4,5.7 91,5.4 90.5,5.3 90,5.1 89.5,4.9 c 3.3,0 6.6,-0.1 9.7,-1.3 0,1.1 -0.9,2.1 -2,2.3 -1.2,0.2 -1.3,0.3 -1.4,1.5 -0.1,2.9 -0.3,5.8 -0.3,8.7 -0.1,2.7 0,5.4 0,8.1 0,0.2 0,0.4 0,0.6 0.1,2.5 2.2,3.7 4.4,2.5 0.8,-0.4 1.4,-1.2 2.1,-1.8 0.5,-0.5 0.9,-1.2 1.5,-1.9 -0.4,1.8 -0.7,3.6 -0.9,5.4 z m 19.3,1.5 c -3.3,-1.1 -6.6,-1.9 -10,-1.1 0,-0.1 -0.1,-0.1 -0.1,-0.2 0.4,-0.4 0.7,-0.9 1.1,-1.1 3,-1.9 2.4,-1.7 2.5,-4.8 0,-3.6 -0.2,-7.3 -0.2,-10.9 0,-0.9 -0.5,-1.5 -1.3,-1.8 -0.5,-0.2 -1.1,-0.4 -1.6,-0.6 -0.5,-0.2 -0.9,-0.6 -0.8,-1.3 1.7,1.1 3.5,0.3 5.2,0.2 1.2,0 2.4,0 3.4,0.8 0.5,0.4 0.9,0.8 1,1.5 -0.5,-0.1 -0.9,-0.3 -1.4,-0.3 -1,-0.2 -1.7,0.3 -1.7,1.4 -0.1,1.8 -0.2,3.5 -0.2,5.3 0,2.6 0.1,5.3 0.2,7.9 0,0.8 0.2,1.4 0.9,1.8 0.1,0.1 0.3,0.2 0.3,0.3 0.5,1.2 1.4,1.8 2.4,2.5 0,-0.1 0.2,0.2 0.3,0.4 z" />
    <path
       inkscape:connector-curvature="0"
       style="fill:#ebca70"
       id="path8"
       d="m 23.1,13.8 c -3.1,0.5 -5.4,2.1 -6.3,5.3 -0.2,0.6 -0.3,1.2 -0.4,1.9 -0.6,2.9 0.4,5.1 2.9,6.9 2,1.4 4,2 6.4,1.6 0.1,0 0.3,0 0.4,0 2.4,0 5.6,-2.4 5.8,-5.5 0,-0.5 0.1,-1.1 0.1,-1.5 -0.1,-1.9 -0.1,-3.8 -1.3,-5.4 -1.8,-2.6 -4.4,-3.8 -7.6,-3.3 z m 4.3,2.8 c 0.8,1.6 1,3.4 1,5.8 0,1.3 -0.3,3.1 -1.3,4.7 -1.3,2 -4.4,2.1 -5.8,0.2 -0.8,-1.2 -1.2,-2.5 -1.4,-3.9 -0.4,-2.6 -0.1,-5 1.4,-7.2 1.4,-2.1 4.9,-1.9 6.1,0.4 z m 65.4,-9 c 0.1,1 0,1.9 0,2.9 0,4 0,8 0,12 0,1 0.1,2.1 0.1,3.1 -0.1,1.4 -0.4,1.8 -1.8,2.1 -0.3,0.1 -0.7,0.2 -1,0.3 -0.2,0.1 -0.4,0.3 -0.5,0.3 1.9,0.1 3.8,0.2 5.8,0.2 1.3,0 2.7,0.1 4,-0.1 1.1,-0.1 2,-0.4 2.9,0.5 0.1,0.1 0.2,0.1 0.2,0.1 0.3,-1.8 0.5,-3.6 0.8,-5.5 -0.6,0.7 -1,1.4 -1.5,1.9 -0.6,0.7 -1.3,1.4 -2.1,1.8 -2.2,1.2 -4.3,0 -4.4,-2.5 0,-0.2 0,-0.4 0,-0.6 0,-2.7 -0.1,-5.4 0,-8.1 0.1,-2.9 0.2,-5.8 0.3,-8.7 0,-1.2 0.2,-1.4 1.4,-1.5 1.1,-0.2 2,-1.1 2,-2.3 -3.1,1.2 -6.4,1.3 -9.7,1.3 0.5,0.3 1,0.4 1.5,0.5 1.4,0.4 1.9,0.9 2,2.3 z M 160,6.4 c -0.7,0.5 -1.2,1.1 -1.8,1.5 -2.1,1 -4.4,1.6 -6.8,1.7 -1.3,0 -2.1,0.7 -2.7,1.7 0,0.1 0.1,0.2 0.1,0.3 0.8,-0.1 1.7,-0.1 2.4,-0.4 1.5,-0.6 2.8,-0.1 3.1,1.5 0.2,1 0.3,2 0.3,2.9 0,3.8 -0.1,7.6 -0.2,11.3 0,0.1 0,0.3 0,0.4 -0.1,0.2 -0.2,0.4 -0.4,0.6 -0.2,-0.2 -0.3,-0.3 -0.5,-0.5 -0.4,-0.6 -0.7,-1.2 -1,-1.8 -0.3,-0.6 -0.7,-1.2 -1,-1.9 -0.4,-0.9 -0.6,-1.9 -1,-2.8 -0.9,-2 -1.9,-3.9 -2.6,-5.9 -1.2,-3.3 -3.2,-6.1 -4.8,-9.2 -0.9,-1.6 -2.2,-2.7 -3.9,-3.2 -2.4,-0.8 -4.8,-1.1 -7.2,0.2 -0.2,0.1 -0.4,0.3 -0.6,0.5 0.2,0.1 0.4,0.1 0.5,0.1 2.8,-0.4 4.6,0.8 5,3.6 0.1,0.3 0.1,0.7 0.1,1 0.3,4.9 0.5,9.7 0.8,14.6 0.1,2.2 0.2,4.4 0.2,6.5 0,1.5 -0.4,2 -1.9,2.4 -0.5,0.1 -1.1,0.3 -1.6,0.4 -0.8,0.3 -1.5,0.8 -2,1.5 0.7,-0.1 1.3,-0.1 1.9,-0.1 1.1,0 2.1,0 3.2,0.1 0.8,0.1 1.6,0.3 2.4,0.6 0.7,0.2 1.2,0.7 1.9,1 0.9,0.4 1.9,0.6 2.8,0.9 0,-0.1 0.1,-0.1 0.1,-0.2 -0.2,-0.3 -0.4,-0.6 -0.7,-0.8 -1.2,-0.9 -2.2,-1.9 -3,-3.1 -0.4,-0.7 -0.7,-1.3 -0.7,-2 -0.3,-5.5 -0.5,-11.1 -0.8,-16.6 0,-0.7 -0.1,-1.5 -0.1,-2.2 0,-0.7 -0.1,-1.5 -0.1,-2.2 0.2,0.1 0.2,0.2 0.3,0.2 2.2,6.4 5.1,12.4 8.1,18.4 2,3.9 3.9,7.7 5.2,11.9 0.2,0.7 0.7,0.9 1.3,1 0.5,-3.4 1.1,-6.7 1.6,-10 0,-0.1 0,-0.1 0,-0.2 -0.1,-1.4 0.1,-2.8 0.3,-4.2 0.2,-2.2 0.2,-4.4 0.2,-6.6 0,-2.3 -0.2,-4.5 -0.3,-6.8 -0.1,-1 0.3,-1.8 1.2,-2.3 0.5,-0.3 1,-0.6 1.5,-0.9 1,-0.8 1.2,-1.7 1.2,-2.9 z m -38.5,23.5 c -1,-0.6 -1.9,-1.3 -2.4,-2.5 0,-0.1 -0.2,-0.2 -0.3,-0.3 -0.7,-0.4 -0.9,-1.1 -0.9,-1.8 0,-2.6 -0.1,-5.3 -0.2,-7.9 0,-1.8 0.1,-3.5 0.2,-5.3 0.1,-1.1 0.7,-1.5 1.7,-1.4 0.4,0.1 0.9,0.2 1.4,0.3 0,-0.7 -0.5,-1.2 -1,-1.5 -1,-0.7 -2.2,-0.8 -3.4,-0.7 -1.7,0.1 -3.5,0.8 -5.2,-0.2 -0.1,0.7 0.3,1.1 0.8,1.3 0.5,0.2 1,0.4 1.6,0.6 0.8,0.3 1.3,0.9 1.3,1.9 0.1,3.6 0.3,7.3 0.2,10.9 0,3.1 0.5,3 -2.4,4.8 -0.4,0.3 -0.7,0.7 -1.1,1.1 0,0.1 0.1,0.1 0.1,0.2 3.4,-0.7 6.7,0 10,1.1 -0.1,-0.2 -0.3,-0.5 -0.4,-0.6 z" />
    <path
       inkscape:connector-curvature="0"
       style="fill:#ebca70"
       id="path10"
       d="m 135.5,21.2 c 0,0.6 0,1.1 0,1.7 -0.1,1.9 -1.1,3.2 -2.6,4.3 -2.2,1.5 -4.5,1.9 -7,1.3 -0.8,-0.2 -1.6,-0.7 -2.3,-1 -0.3,-0.2 -0.5,-0.5 -0.8,-0.7 -2.6,-2.2 -2.9,-5.1 -2.1,-8.1 0.7,-2.9 3.3,-5.2 6,-5.4 3.6,-0.3 6.9,1.3 8.2,4.2 0.5,1.1 0.5,2.5 0.8,3.7 0,0 -0.1,0 -0.2,0 z m -3.1,-0.4 c -0.3,-1.4 -0.5,-2.8 -0.9,-4.2 -0.5,-1.6 -1.5,-2.7 -3.2,-2.8 -1.7,-0.1 -2.7,1 -3.4,2.3 -0.7,1.4 -1,2.9 -1,4.4 -0.1,2.1 0.2,4.2 1.5,6 1.6,2.3 4.2,2.2 5.7,-0.2 0.9,-1.7 1.1,-3.5 1.3,-5.5 z M 55,40.2 c 0.2,-0.2 0.5,-0.6 0.8,-0.9 1,-1.1 1.5,-2.3 1.5,-3.7 0,-1.9 0.1,-3.8 0,-5.7 0,-1 -0.3,-2.1 -0.6,-3.1 -0.2,-0.9 -0.2,-1.7 0,-2.5 0.6,-2.2 0.7,-4.3 0,-6.5 -0.1,-0.3 -0.1,-0.7 0,-1 0.5,-2.5 0.4,-4.9 0,-7.4 C 56.5,8 55.5,7.4 54.1,7.6 53.3,7.7 52.6,7.9 51.8,8.1 51.8,8 51.7,8 51.7,7.9 c 0.6,-0.3 1.2,-0.7 1.8,-0.8 1.7,-0.3 3.4,-0.4 5,-0.6 1.9,-0.1 3.8,-0.2 5.7,-0.3 2,-0.1 3.9,0.3 5.6,1.3 1.4,0.8 2.3,1.9 2.8,3.4 0.8,2.6 0.7,5.1 -0.6,7.5 -1.1,2 -2.5,3.8 -4.2,5.3 -0.6,0.5 -1.3,0.8 -1.9,1.1 -0.9,0.5 -1.7,0.9 -2.6,1.4 -0.6,0.3 -1.2,0.7 -1.9,1 -0.5,0.3 -0.8,0.6 -0.8,1.2 0.1,1.9 0.1,3.8 0.1,5.7 0,0.5 0.1,1 0.1,1.5 0.1,1.5 0.8,2.5 2.1,3.2 0.2,0.1 0.4,0.2 0.5,0.3 -1.5,0 -2.9,-0.1 -4.3,0 -1.3,0.4 -2.7,0.8 -4.1,1.1 z m 5.9,-14.3 c 0.1,0.1 0.2,0.1 0.2,0.2 0.7,-0.4 1.3,-0.8 2,-1.2 0.5,-0.3 1,-0.8 1.6,-1.1 1.5,-0.6 2.6,-1.7 3.4,-3.1 1.1,-1.9 1.6,-3.9 1.6,-6.1 0,-1.8 -0.2,-3.5 -1.1,-5.1 -0.5,-0.9 -1.2,-1.8 -2.4,-2 -1.3,-0.2 -2.7,-0.1 -4.1,0 -1,0.1 -1.5,0.7 -1.5,1.7 0.1,1.8 0.3,3.6 0.4,5.3 0,0.5 0.1,0.9 0,1.4 -1,3.3 -0.1,6.7 -0.1,10 z" />
  </g>
</svg>
