<svg width="2074" height="450" viewBox="0 0 2074 450" fill="none" xmlns="http://www.w3.org/2000/svg">
<mask id="mask0_361_2003" style="mask-type:luminance" maskUnits="userSpaceOnUse" x="0" y="0" width="895" height="450">
<path d="M895 0H0V450H895V0Z" fill="white"/>
</mask>
<g mask="url(#mask0_361_2003)">
<mask id="mask1_361_2003" style="mask-type:luminance" maskUnits="userSpaceOnUse" x="0" y="0" width="895" height="450">
<path d="M895 0H0V450H895V0Z" fill="white"/>
</mask>
<g mask="url(#mask1_361_2003)">
<path d="M540.062 450.475H530.406V431.911L512.93 405.119H523.946L535.234 423.343L546.386 405.119H557.402L540.062 431.911V450.475Z" fill="black"/>
<path d="M508.815 450.475H499.499L477.875 420.011V450.475H468.219V405.119H478.147L499.159 434.495V405.119H508.815V450.475Z" fill="black"/>
<path d="M464.031 450.475H453.491L450.635 442.655H430.371L427.515 450.475H416.907L434.451 405.119H446.555L464.031 450.475ZM447.983 434.291L440.503 413.483L432.955 434.291H447.983Z" fill="black"/>
<path d="M394.004 450.475H384.348V405.119H405.564C415.424 405.119 420.796 411.783 420.796 419.739C420.796 427.627 415.356 434.223 405.564 434.223H394.004V450.475ZM410.936 419.671C410.936 415.931 408.08 413.415 404.272 413.415H394.004V425.927H404.272C408.08 425.927 410.936 423.479 410.936 419.671Z" fill="black"/>
<path d="M375.34 450.475H365.616V417.835L352.832 450.475H348.616L335.832 417.835V450.475H326.176V405.119H339.708L350.724 433.407L361.74 405.119H375.34V450.475Z" fill="black"/>
<path d="M272.004 427.831C272.004 414.163 282 404.371 295.668 404.371C309.404 404.371 319.4 414.163 319.4 427.831C319.4 441.499 309.404 451.291 295.668 451.291C282 451.291 272.004 441.499 272.004 427.831ZM309.472 427.831C309.472 419.331 304.032 412.939 295.668 412.939C287.304 412.939 281.932 419.331 281.932 427.831C281.932 436.263 287.304 442.723 295.668 442.723C304.032 442.723 309.472 436.263 309.472 427.831Z" fill="black"/>
<path d="M249.12 451.291C235.86 451.291 225.32 441.771 225.32 427.831C225.32 413.891 235.86 404.371 249.12 404.371C259.456 404.371 265.236 409.811 268.432 415.455L260.136 419.535C258.232 415.863 254.152 412.939 249.12 412.939C241.232 412.939 235.248 419.263 235.248 427.831C235.248 436.399 241.232 442.723 249.12 442.723C254.152 442.723 258.232 439.867 260.136 436.127L268.432 440.139C265.168 445.783 259.456 451.291 249.12 451.291Z" fill="black"/>
<path d="M177.32 450.475H167.664V405.119H188.88C198.74 405.119 204.112 411.783 204.112 419.739C204.112 427.627 198.672 434.223 188.88 434.223H177.32V450.475ZM194.252 419.671C194.252 415.931 191.396 413.415 187.588 413.415H177.32V425.927H187.588C191.396 425.927 194.252 423.479 194.252 419.671Z" fill="black"/>
<path d="M134.887 450.475H125.231V405.119H146.447C156.307 405.119 161.679 411.783 161.679 419.739C161.679 427.627 156.239 434.223 146.447 434.223H134.887V450.475ZM151.819 419.671C151.819 415.931 148.963 413.415 145.155 413.415H134.887V425.927H145.155C148.963 425.927 151.819 423.479 151.819 419.671Z" fill="black"/>
<path d="M107.757 450.475H97.489L89.533 419.331L81.645 450.475H71.377L58.389 405.119H69.201L77.157 437.895L85.793 405.119H93.341L101.909 437.895L109.797 405.119H120.677L107.757 450.475Z" fill="black"/>
<path d="M41.222 450.475H30.682L27.826 442.655H7.56196L4.70596 450.475H-5.90204L11.642 405.119H23.746L41.222 450.475ZM25.174 434.291L17.694 413.483L10.146 434.291H25.174Z" fill="black"/>
<path d="M860.675 34.4009V330.649H35.1352V34.4009H860.701M895.025 0H0.785156V365.05H894.949V0H895H895.025Z" fill="black"/>
<path d="M453.465 77.7759H406.728V121.658H453.465V77.7759Z" fill="black"/>
<path d="M635.804 117.146H657.058L664.48 76.0521H635.804C602.924 76.0521 576.173 87.8908 576.173 127.565V138.009H538.403V133.319C538.403 120.416 543.976 117.171 550.816 117.171H562.646L570.068 76.0774H550.816C517.935 76.0774 491.185 94.6595 491.185 127.59V138.034H368.705V77.8013H321.968V138.034H309.327C258.233 138.034 228.772 167.72 228.772 212.718C228.772 257.715 258.258 286.488 309.327 286.488H368.705V174.945H406.728V286.488H453.466V174.945H491.21V286.488H538.429V174.945H576.198V286.488H623.417V174.945H655.107V138.034H623.417V133.345C623.417 120.745 628.99 117.196 635.83 117.196L635.804 117.146ZM321.993 249.628H307.807C285.059 249.628 272.039 234.266 272.039 211.222C272.039 188.178 285.034 175.325 307.807 175.325H321.993V249.603V249.628Z" fill="black"/>
</g>
</g>
<line x1="1001" y1="8.74228e-08" x2="1001" y2="450" stroke="#DADADA" stroke-width="4"/>
<path d="M1468 365H1103V0H1468V365ZM1321.09 270.555H1321.54V271.014L1374.92 258.236C1374.84 257.708 1352.13 110.565 1351.66 109.046C1351.66 108.133 1350.74 107.219 1349.83 107.219H1333.86C1333.81 107.169 1324.73 98.9976 1321.09 95.3581V270.555ZM1288.69 73.9134C1285.5 70.2634 1280.93 68.4357 1275.92 68.8919C1266.34 68.8928 1256.3 76.1947 1248.09 88.9688C1242.61 97.6375 1238.5 109.045 1237.13 117.257C1225.83 120.876 1218.11 123.149 1217.98 123.188C1212.5 125.012 1212.04 125.013 1211.13 130.486C1211.13 134.588 1195.65 248.446 1195.62 248.656L1319.72 270.101V92.6178H1318.35V92.1634C1318.35 92.1634 1316.07 93.0732 1312.42 93.9857C1312.41 92.1607 1310.59 89.4223 1309.68 87.1419C1305.57 78.9308 1299.19 74.8268 1291.43 74.8268H1289.6L1288.69 73.9134ZM1275.01 131.399C1285.5 131.399 1290.98 133.226 1290.98 133.226L1284.59 156.493C1284.52 156.463 1277.7 153.303 1269.07 153.757C1256.76 154.67 1256.76 161.969 1256.76 164.25H1257.21V164.704C1257.21 175.198 1285.5 177.482 1287.32 201.663C1288.69 220.825 1276.83 234.056 1260.41 234.969C1240.45 236.329 1229.51 224.613 1229.38 224.476L1233.49 206.68C1233.49 206.68 1244.44 214.894 1253.56 214.438C1259.49 214.437 1261.32 209.42 1261.32 206.226C1260.41 192.538 1238.05 193.45 1236.23 171.094C1234.86 152.388 1247.63 133.224 1275.01 131.399ZM1276.76 75.2858C1278.86 75.2899 1280.58 75.3584 1282.31 76.6491C1279.57 78.0178 1276.83 79.8424 1274.55 82.5794C1268.16 89.4232 1263.6 99.4625 1261.77 109.5C1255.84 111.325 1249.91 113.151 1244.89 114.976C1248.08 99.4876 1261.28 75.8132 1276.76 75.2858ZM1285.95 82.5794C1288.64 87.9481 1289.13 95.9512 1289.14 101.422C1282.87 103.224 1275.74 105.447 1268.62 107.673C1270.44 99.9183 1274.55 92.6192 1279.11 87.6009C1280.94 85.7759 1283.22 83.4919 1285.95 82.5794ZM1289.15 101.743C1289.15 101.637 1289.14 101.53 1289.14 101.422C1289.3 101.378 1289.45 101.332 1289.6 101.288L1289.15 101.743ZM1292.8 81.2116C1300.1 82.5803 1304.2 90.7937 1305.57 95.8125C1302.84 96.725 1299.64 97.6389 1295.99 99.0072C1295.99 93.9884 1295.99 87.1428 1292.8 81.2116ZM1276.76 75.2858C1276.63 75.2854 1276.5 75.2812 1276.38 75.2812H1276.83C1276.81 75.2822 1276.78 75.2849 1276.76 75.2858Z" fill="black"/>
<path d="M1930 334V265H1958.99C1963.07 265 1966.24 265.92 1969.86 267.76C1973.03 269.6 1975.75 272.36 1977.56 275.58C1979.38 278.8 1980.28 282.48 1980.28 286.62C1980.28 290.76 1979.38 293.98 1977.56 297.2C1975.75 300.42 1973.03 303.18 1969.86 305.02C1966.69 306.86 1963.07 307.78 1958.99 307.78H1940.42V333.54H1930V334ZM1970.32 334L1953.1 302.72L1963.97 300.42L1983 334H1970.32ZM1940.42 297.66H1959.9C1961.71 297.66 1963.52 297.66 1964.88 296.28C1966.24 295.36 1967.6 293.98 1968.5 292.14C1969.41 290.3 1969.86 288.46 1969.86 286.62C1969.86 284.78 1969.41 282.48 1968.05 280.64C1967.15 278.8 1965.33 277.42 1963.52 276.5C1961.71 275.58 1959.44 275.12 1957.18 275.12H1940.42V297.66Z" fill="black"/>
<path d="M1870 334V265H1914V275.12H1880.77V323.42H1914V333.54H1870V334ZM1875.15 303.64V293.52H1908.85V303.64H1875.15Z" fill="black"/>
<path d="M1793 333.543V265H1802.69L1845.15 321.205L1843.77 322.119C1843.77 320.291 1843.31 318.921 1842.85 316.636C1842.85 314.808 1842.85 312.523 1842.38 310.695V265.457H1853V334H1843.31L1801.77 280.079L1802.69 278.709C1802.69 282.821 1803.15 286.02 1803.62 288.762C1803.62 291.503 1804.08 293.788 1804.08 295.616V333.086H1793V333.543Z" fill="black"/>
<path d="M1750.06 334V275.12H1731V265H1780V275.12H1760.49V334H1750.06Z" fill="black"/>
<path d="M1671 334V265H1699.99C1704.07 265 1707.24 265.92 1710.86 267.76C1714.03 269.6 1716.75 272.36 1718.56 275.58C1720.38 278.8 1721.28 282.48 1721.28 286.62C1721.28 290.76 1720.38 293.98 1718.56 297.2C1716.75 300.42 1714.03 303.18 1710.86 305.02C1707.69 306.86 1704.07 307.78 1699.99 307.78H1681.42V333.54H1671V334ZM1711.32 334L1694.1 302.72L1704.97 300.42L1724 334H1711.32ZM1681.42 297.66H1700.9C1702.71 297.66 1704.52 297.66 1705.88 296.28C1707.24 295.36 1708.6 293.98 1709.5 292.14C1710.41 290.3 1710.86 288.46 1710.86 286.62C1710.86 284.78 1710.41 282.48 1709.05 280.64C1708.15 278.8 1706.33 277.42 1704.52 276.5C1702.71 275.58 1700.44 275.12 1698.18 275.12H1681.42V297.66Z" fill="black"/>
<path d="M1594 333.543L1620.93 265H1632.07L1659 333.543H1647.39L1631.61 292.417C1631.61 292.417 1631.14 291.046 1630.21 289.219C1629.75 287.391 1629.29 285.563 1628.36 283.278C1627.43 280.993 1626.96 279.166 1626.5 277.338C1626.04 275.51 1625.57 274.139 1625.11 273.682H1627.43C1627.43 274.596 1626.5 275.967 1626.04 277.795C1625.57 279.623 1625.11 281.45 1624.18 283.278C1623.71 285.106 1622.79 286.934 1622.32 288.762C1621.86 290.589 1621.39 291.96 1620.93 292.874L1605.14 334H1594V333.543ZM1606.07 316.636L1610.25 306.583H1641.82L1646.46 316.636H1606.07Z" fill="black"/>
<path d="M1546 334V265H1573.89C1577.54 265 1581.2 265.92 1583.94 267.76C1587.14 269.6 1589.43 272.36 1591.26 275.58C1593.09 278.8 1594 282.48 1594 286.16C1594 289.84 1593.09 293.52 1591.26 296.74C1589.43 299.96 1587.14 302.72 1583.94 304.56C1580.74 306.4 1577.54 307.32 1573.89 307.32H1556.51V333.54H1546V334ZM1556.51 297.2H1573.89C1575.71 297.2 1577.09 297.2 1578.46 295.82C1579.83 294.9 1581.2 293.52 1582.11 291.68C1583.03 289.84 1583.49 288 1583.49 286.16C1583.49 284.32 1583.49 282.48 1582.11 280.64C1581.2 278.8 1580.29 277.88 1578.46 276.5C1577.09 275.58 1575.26 275.12 1573.89 275.12H1556.51V297.2Z" fill="black"/>
<path d="M2004.46 219V151H2019.66L2044.99 191.347H2034.39L2059.72 151H2074V219H2057.88V181.827C2057.88 177.293 2058.8 172.307 2059.26 167.773L2061.11 172.76L2041.76 202.227H2035.32L2016.43 173.213L2018.28 167.773C2019.2 172.307 2019.66 176.387 2019.66 181.373C2019.66 186.36 2020.12 191.347 2020.12 197.693V219H2004H2004.46Z" fill="black"/>
<path d="M1958.27 219C1952.78 219 1947.75 218.099 1943.18 215.397C1938.6 213.146 1935.4 209.993 1932.66 205.94C1930.37 201.887 1929 197.384 1929 192.43V151H1945.92V191.53C1945.92 193.781 1946.38 196.033 1947.75 198.285C1948.67 200.086 1950.5 201.887 1952.33 202.788C1954.16 203.689 1956.44 204.589 1958.73 204.589C1961.02 204.589 1963.3 204.589 1965.13 202.788C1966.96 201.437 1968.79 200.086 1969.71 198.285C1971.08 196.483 1971.53 194.232 1971.53 191.53V151H1988V192.43C1988 197.384 1986.63 202.338 1984.34 205.94C1982.05 209.993 1978.4 213.146 1973.82 215.397C1969.25 217.649 1964.22 219 1958.73 219H1958.27Z" fill="black"/>
<path d="M1852 219V150.457H1866.93L1902.69 199.351H1899.52C1899.52 196.609 1899.07 194.781 1898.61 192.497C1898.61 190.669 1898.61 188.841 1898.16 186.556V150H1914V218.543H1899.07L1861.96 167.821H1866.93C1866.93 171.477 1867.39 174.219 1867.84 176.503C1867.84 178.788 1867.84 180.616 1868.29 182.444V218.543H1852V219Z" fill="black"/>
<path d="M1796 219V204.834H1807.21V164.166H1796V150H1835V164.166H1823.34V204.834H1835V219H1796Z" fill="black"/>
<path d="M1748.2 219V165.507H1728V151H1785V165.507H1764.35V219H1748.2Z" fill="black"/>
<path d="M1662 219L1688.93 151H1703.07L1730 219H1713.11L1700.34 184.547C1699.88 183.187 1699.42 181.827 1698.97 180.013C1698.51 178.653 1698.05 176.84 1697.6 175.48C1697.14 173.667 1696.68 172.307 1696.23 170.493C1696.23 168.68 1695.32 167.32 1694.86 165.96H1697.6C1697.6 167.32 1696.68 169.133 1696.23 170.493C1695.77 171.853 1695.32 173.667 1694.86 175.027C1694.4 176.387 1693.95 178.2 1693.49 179.56C1693.03 180.92 1692.58 182.733 1691.66 184.093L1678.89 218.547H1662V219ZM1675.23 205.853L1680.26 193.613H1711.74L1716.77 205.853H1674.78H1675.23Z" fill="black"/>
<path d="M1610 219V151H1626.78V204.493H1658V219H1610Z" fill="black"/>
<path d="M1545 219V151H1574.96C1579.1 151 1583.25 151.907 1586.48 153.72C1589.7 155.533 1592.47 158.253 1594.77 161.88C1596.62 165.053 1598 169.133 1598 173.213C1598 177.293 1597.08 181.373 1594.77 185C1592.93 188.627 1590.17 191.347 1586.48 193.16C1583.25 194.973 1579.1 196.333 1574.96 196.333H1562.05V219H1545ZM1561.59 181.827H1572.65C1574.03 181.827 1575.42 181.827 1576.8 180.92C1578.18 180.013 1579.1 179.107 1579.57 178.2C1580.49 176.84 1580.49 175.48 1580.49 174.12C1580.49 172.76 1580.49 170.947 1579.57 170.04C1578.64 168.68 1577.72 167.773 1576.8 167.32C1575.42 167.32 1574.5 166.413 1572.65 166.413H1561.59V182.733V181.827Z" fill="black"/>
<path d="M1944.93 100V65.7285L1945.85 70.298L1918 31H1930.78L1951.78 61.1589H1949.5L1968.67 31H1981L1954.52 71.2119L1955.89 64.3576V99.543H1944.93V100Z" fill="black"/>
<path d="M1867 100V31H1877.67V100H1867ZM1871.64 70.56V60.44H1907.36V70.56H1871.64ZM1871.64 41.12V31H1912V41.12H1871.64Z" fill="black"/>
<path d="M1818 100V90.4161H1829V41.5839H1818V32H1851V41.5839H1840V90.4161H1851V100H1818Z" fill="black"/>
<path d="M1758 100V31H1785.89C1789.54 31 1792.74 31.92 1795.94 33.76C1799.14 35.6 1801.43 37.9 1803.26 41.12C1805.09 44.34 1806 48.02 1806 51.7C1806 55.38 1805.09 59.06 1803.26 62.28C1801.43 65.5 1799.14 68.26 1795.94 70.1C1792.74 71.94 1789.54 72.86 1785.89 72.86H1768.51V99.08H1758V100ZM1768.97 63.2H1786.34C1788.17 63.2 1789.54 62.74 1790.91 61.82C1792.29 60.9 1793.66 59.52 1794.57 57.68C1795.49 55.84 1795.94 54 1795.94 52.16C1795.94 50.32 1795.94 48.48 1794.57 46.64C1793.66 44.8 1792.74 43.88 1790.91 42.5C1789.54 41.58 1787.71 41.12 1786.34 41.12H1768.97V63.2Z" fill="black"/>
<path d="M1711.28 101C1706.34 101 1702.31 100.077 1698.28 98.2333C1694.24 96.3892 1690.66 94.084 1687.97 90.8567C1684.83 87.6295 1682.59 83.9412 1681.24 79.7919C1679.45 75.6426 1679 70.5712 1679 65.4998C1679 60.4284 1679.9 55.818 1681.24 51.2077C1683.03 47.0583 1685.28 42.909 1687.97 40.1428C1691.1 36.9155 1694.24 34.6104 1698.28 32.7662C1702.31 30.9221 1706.79 30 1711.28 30C1715.76 30 1720.24 30.9221 1724.28 32.7662C1728.31 34.6104 1731.9 36.9155 1734.59 40.1428C1737.72 43.37 1739.97 47.0583 1741.31 51.6687C1743.1 55.818 1744 60.4284 1744 65.4998C1744 70.5712 1743.1 75.1815 1741.31 79.7919C1739.52 83.9412 1737.28 87.6295 1734.59 90.8567C1731.45 94.084 1728.31 96.3892 1724.28 98.2333C1720.24 100.077 1715.76 101 1711.28 101ZM1711.28 90.8567C1714.41 90.8567 1717.55 90.8567 1720.24 89.0126C1722.93 87.6295 1725.17 86.2464 1727.41 83.9412C1729.21 81.636 1731 78.8698 1731.9 76.1036C1733.24 72.8763 1733.69 69.6491 1733.69 65.9608C1733.69 62.2725 1733.24 59.0453 1731.9 55.818C1731 52.5908 1729.21 50.286 1727.41 47.9809C1725.62 45.6757 1722.93 43.8311 1720.24 42.448C1717.55 41.0649 1714.41 40.6038 1711.28 40.6038C1708.14 40.6038 1705 41.0649 1702.31 42.448C1699.62 43.8311 1697.38 45.2142 1695.14 47.5194C1693.34 49.8245 1691.55 52.5908 1690.66 55.357C1689.76 58.5842 1688.86 61.8115 1688.86 65.4998C1688.86 69.1881 1689.31 72.4158 1690.66 75.643C1691.55 78.8703 1693.34 81.1755 1695.14 83.4806C1697.38 85.7858 1699.62 87.6295 1702.31 88.5516C1705 89.9347 1708.14 90.3962 1711.28 90.3962V90.8567Z" fill="black"/>
<path d="M1652.36 100V31H1663V100H1652.36ZM1607 100V31H1617.64V100H1607ZM1611.63 70.56V60.44H1656.98V70.56H1611.63Z" fill="black"/>
<path d="M1566.91 100.545C1563.27 100.545 1559.64 100.545 1556.45 99.1818C1553.27 98.2727 1550.55 96.9091 1547.82 94.6364C1545.09 92.8182 1542.82 90.0909 1541 87.3636L1548.27 79.1818C1551.45 83.7273 1554.64 86.9091 1557.36 88.7273C1560.09 90.5454 1563.73 91.4545 1567.82 91.4545C1571.91 91.4545 1572.36 91.4545 1574.64 90.0909C1576.45 89.1818 1578.27 88.2727 1579.18 86.9091C1580.55 85.5455 1581 84.1818 1581 82.3636C1581 80.5455 1581 80.0909 1581 79.1818C1581 78.2727 1580.09 77.3636 1579.18 76.4545C1578.27 75.5455 1577.36 74.6364 1576 74.1818C1574.64 73.2727 1573.27 72.8182 1571.45 72.3636C1569.64 72.3636 1567.82 71.4545 1565.55 71C1561.91 70.0909 1559.18 69.1818 1556.45 68.2727C1553.73 66.9091 1551.91 65.5454 1550.09 63.7273C1548.27 61.9091 1546.91 60.0909 1546 57.8182C1545.09 55.5455 1544.64 52.8182 1544.64 50.0909C1544.64 47.3636 1544.64 44.6364 1546.45 42.3636C1548.27 40.0909 1549.18 37.8182 1551.45 36.4545C1553.73 34.6364 1556 33.2727 1558.73 32.3636C1561.45 31.4545 1564.64 31 1567.82 31C1571 31 1574.64 31.4545 1577.36 32.3636C1580.09 33.2727 1582.82 34.6364 1585.09 36.4545C1587.36 38.2727 1589.18 40.5455 1590.55 42.8182L1583.27 50.0909C1581.91 47.8182 1580.55 46 1578.73 44.6364C1576.91 43.2727 1575.09 41.9091 1573.27 41.4545C1571.45 40.5455 1569.18 40.0909 1566.91 40.0909C1564.64 40.0909 1562.36 40.0909 1560.09 41.4545C1558.27 42.3636 1556.91 43.2727 1555.55 44.6364C1554.64 46 1554.18 47.8182 1554.18 49.6364C1554.18 51.4545 1554.18 52.3636 1555.09 53.2727C1555.09 54.1818 1556.45 55.5455 1557.36 56.4545C1558.27 57.3636 1560.09 58.2727 1561.91 58.7273C1563.73 59.1818 1566 60.0909 1568.27 60.5455C1571.91 61.4545 1575.09 62.3636 1577.82 63.7273C1580.55 65.0909 1582.82 66.4545 1585.09 67.8182C1586.91 69.6364 1588.73 71.4545 1589.64 73.2727C1590.55 75.0909 1591 77.3636 1591 79.6364C1591 84.1818 1590.09 87.8182 1587.82 91C1586 94.1818 1582.82 96.4545 1579.18 98.2727C1575.55 100.091 1571 101 1566 101H1567.36L1566.91 100.545Z" fill="black"/>
</svg>
