<svg width="2225" height="399" viewBox="0 0 2225 399" fill="none" xmlns="http://www.w3.org/2000/svg">
<path fill-rule="evenodd" clip-rule="evenodd" d="M0.625 199.473C0.625 89.626 89.7992 0.465332 199.633 0.465332C309.597 0.465332 398.64 89.4951 398.64 199.473C398.64 309.451 309.597 398.481 199.633 398.481C89.6684 398.481 0.625 309.32 0.625 199.473ZM234.413 120.917H120.919L103.659 148.543H217.154L234.413 120.917ZM293.383 231.288L310.643 258.782L310.512 258.913H343.07L256.903 120.917L187.996 231.288H109.935L127.195 203.663H180.019L197.279 176.037H86.6611L69.4016 203.663H94.7679L60.2488 258.782H203.424L257.034 172.895L276.254 203.663H260.302L243.043 231.288H293.383ZM1370.89 176.053C1379.07 163.712 1394.13 156.048 1411.66 156.048C1444.25 156.048 1462.55 179.69 1462.55 211.645V295.691H1427.76V214.373C1427.76 196.577 1415.43 184.496 1399.33 184.496C1383.23 184.496 1370.89 197.096 1370.89 212.944V295.561H1336.1V159.036H1370.89V176.053ZM1130.72 183.717V159.036H1095.92V295.561H1130.72V223.336C1130.72 204.761 1147.08 185.275 1174.99 189.692V156.568C1153.96 154.099 1138.9 165.92 1130.72 183.717ZM688.257 295.691H653.463V104.088L688.257 93.176V295.691ZM1248.46 156.308C1208.48 156.308 1176.28 186.185 1176.28 227.493C1176.28 268.802 1208.61 298.419 1248.46 298.419C1288.32 298.419 1320.65 268.542 1320.65 227.493C1320.65 186.445 1288.32 156.308 1248.46 156.308ZM1248.46 266.983C1227.43 266.983 1210.68 250.875 1210.68 227.883C1210.68 204.891 1227.43 188.393 1248.46 188.393C1269.5 188.393 1286.24 204.241 1286.24 227.883C1286.24 251.525 1269.62 266.983 1248.46 266.983ZM703.574 227.234C703.574 185.926 735.382 156.049 774.46 156.049V156.179C808.345 156.179 845.606 180.99 845.606 233.6C845.606 234.414 845.546 235.198 845.484 236.01C845.416 236.882 845.347 237.786 845.347 238.796H740.056C744.729 255.942 760.049 267.504 778.615 267.504C789.261 267.504 799.128 263.347 804.84 254.903H843.399C833.013 281.143 818.991 298.42 777.966 298.42C736.94 298.42 703.574 268.543 703.574 227.234ZM774.46 186.446C758.361 186.446 744.989 197.098 740.315 213.855H807.826C804.84 197.617 790.559 186.446 774.46 186.446ZM1042.94 119.156L1008.79 130.067V260.357C1008.79 281.401 1023.59 295.69 1048.78 295.69H1082.67V264.774H1058.65C1048 264.774 1043.07 259.838 1043.07 250.745V188.652H1082.8V159.035H1043.07V119.026L1042.94 119.156ZM962.316 212.685C956.863 198.006 944.01 188.653 928.69 188.653V188.523C908.048 188.523 891.689 205.02 891.689 228.013C891.689 251.005 913.371 267.113 928.69 267.113C944.01 267.113 956.863 257.89 962.316 243.081H997.63C991.008 276.206 968.029 298.419 928.69 298.419C889.352 298.419 857.285 268.802 857.285 227.493C857.285 186.185 894.805 156.308 928.69 156.308C962.576 156.308 991.008 179.56 997.63 212.685H962.316ZM1968.76 183.717V159.036H1933.97V295.561H1968.76V223.336C1968.76 204.761 1985.12 185.275 2013.03 189.692V156.568C1992 154.099 1976.94 165.92 1968.76 183.717ZM637.75 295.69H498.704V104.087H637.75V137.731H537.003V182.677H618.536V215.801H537.003V262.565H637.75V295.69ZM1728.69 295.691H1767.51L1786.34 254.902H1866.18L1885.66 295.691H1925.64L1827.1 95.9044L1728.56 295.691H1728.69ZM1800.1 225.675L1825.81 169.818L1852.29 225.675H1800.1ZM2141.69 195.018C2141.69 205.15 2156.1 208.917 2173.11 213.334V213.204C2196.35 219.309 2224.26 229.182 2224.26 255.422C2224.26 281.661 2202.97 298.419 2168.18 298.419C2133.38 298.419 2107.68 277.505 2104.69 248.277H2136.37C2138.19 262.436 2155.45 272.049 2168.05 272.049C2180.64 272.049 2189.73 268.542 2189.73 258.669C2189.73 249.07 2176.23 245.489 2160.2 241.238L2158.83 240.873C2135.59 234.897 2107.68 224.116 2107.68 197.876C2107.68 171.636 2126.89 156.048 2160.52 156.048C2194.14 156.048 2219.07 176.702 2222.05 205.93H2190.38C2188.17 191.77 2176.1 182.418 2160 182.418C2150.39 182.418 2141.69 184.886 2141.69 195.018ZM2059.11 119.156L2024.96 130.067V260.357C2024.96 281.401 2039.76 295.69 2064.95 295.69H2098.84V264.774H2074.82C2064.17 264.774 2059.24 259.838 2059.24 250.745V188.652H2098.97V159.035H2059.24V119.026L2059.11 119.156ZM1481.89 159.164H1516.68V295.689H1481.89V159.164ZM1499.16 97.2029C1487.09 97.2029 1476.96 107.335 1476.96 119.676C1476.96 132.016 1487.09 142.148 1499.16 142.148C1511.24 142.148 1521.62 132.016 1521.62 119.676C1521.62 107.335 1511.5 97.2029 1499.16 97.2029ZM1637.04 212.685C1631.59 198.006 1618.74 188.653 1603.42 188.653V188.523C1582.9 188.523 1566.55 205.02 1566.55 228.013C1566.55 251.005 1588.1 267.113 1603.42 267.113C1618.74 267.113 1631.59 257.89 1637.04 243.081H1672.36C1665.87 276.206 1642.76 298.419 1603.42 298.419C1564.08 298.419 1532.01 268.802 1532.01 227.493C1532.01 186.185 1569.53 156.308 1603.42 156.308C1637.3 156.308 1665.74 179.56 1672.36 212.685H1637.04Z" fill="#255AF6"/>
</svg>
