<svg version="1.1" id="Layer_1" xmlns:x="ns_extend;" xmlns:i="ns_ai;" xmlns:graph="ns_graphs;" xmlns="http://www.w3.org/2000/svg" xmlns:xlink="http://www.w3.org/1999/xlink" x="0px" y="0px" viewBox="0 0 270.6 48" style="enable-background:new 0 0 270.6 48;" xml:space="preserve">
 <style type="text/css">
  .st0{fill:#0D0359;}
	.st1{fill:#0FE2BB;}
 </style>
 <metadata>
  <sfw xmlns="ns_sfw;">
   <slices>
   </slices>
   <sliceSourceBounds bottomLeftOrigin="true" height="48" width="270.6" x="-65.5" y="-11.4">
   </sliceSourceBounds>
  </sfw>
 </metadata>
 <g id="Page-1">
  <g id="emids-logo-blue">
   <g id="Group" transform="translate(29.956891, 0.508327)">
    <polygon id="Path" class="st0" points="28.1,0.5 63.1,0.5 63.1,9.7 38,9.7 38,18.6 57.2,18.6 57.2,27.4 38,27.4 38,36.6 
				63.1,36.6 63.1,46.5 28.1,46.5 			">
    </polygon>
    <polygon id="Path_1_" class="st0" points="75,0.5 83.9,0.5 99.8,20.2 115.6,0.5 124.5,0.5 124.5,46.5 114.6,46.5 114.6,16.3 
				99.8,34.7 84.9,16.3 84.9,46.5 75,46.5 			">
    </polygon>
    <polygon id="Path_2_" class="st0" points="136.4,46.5 146.3,46.5 146.3,0.5 136.4,0.5 			">
    </polygon>
   </g>
   <g id="Group_1_" transform="translate(10.246331, 0.000000)">
    <path id="Shape" class="st0" d="M194.7,37.8c8.3,0,14.2-5.9,14.2-13.8c0-7.9-5.9-13.8-14.2-13.8h-6.9v27.6H194.7z M177.9,1h16.8
				c14.2,0,24.4,10.2,24.4,23s-10.2,23-24.4,23h-16.8V1z">
    </path>
    <path id="Path_3_" class="st0" d="M231.7,34.2c0.8,0.9,1.7,1.8,2.8,2.5c1.8,1.2,4.6,2.4,8.1,2.4c5.3,0,7.6-2.3,7.6-5.3
				c0-7.8-23.1-4.3-23.1-20.4c0-7.2,6.3-13.5,16.8-13.5c5.1,0,9,1.6,11.6,3.2c1.5,0.9,2.8,2,3.9,3.1l-6.6,6.6
				c-0.7-0.7-1.5-1.4-2.3-2c-1.5-1-3.6-2-6.3-2c-5,0-6.9,2-6.9,4.6c0,7.8,23.1,4.3,23.1,20.4c0,7.6-6.6,14.1-17.5,14.1
				c-6,0-10.4-1.8-13.4-3.6c-1.8-1.1-3.2-2.2-4.4-3.6L231.7,34.2z">
    </path>
    <path id="Path_4_" class="st1" d="M36,8.6v18.6H9.6V1h18.7C32.5,1,36,4.4,36,8.6">
    </path>
   </g>
   <path id="Path_5_" class="st0" d="M34.8,27.2v14.9H8.3c-1.9,0-3.4-1.5-3.4-3.4V12.4h14.9V7.4H0v32C0,43.6,3.4,47,7.7,47h32.1V27.2
			H34.8z">
   </path>
  </g>
 </g>
</svg>