<svg width="379" height="93" viewBox="0 0 379 93" fill="none" xmlns="http://www.w3.org/2000/svg">
<g clip-path="url(#clip0_611_37919)">
<path d="M75.5622 81.0579C82.4613 81.0579 88.0541 75.4768 88.0541 68.5921C88.0541 61.7074 82.4613 56.1262 75.5622 56.1262C68.6631 56.1262 63.0703 61.7074 63.0703 68.5921C63.0703 75.4768 68.6631 81.0579 75.5622 81.0579Z" fill="#67D07E"/>
<path d="M57.5609 68.5921C57.5609 71.0576 56.8283 73.4677 55.4557 75.5177C54.083 77.5677 52.1321 79.1655 49.8495 80.109C47.5669 81.0525 45.0552 81.2994 42.632 80.8184C40.2088 80.3374 37.983 79.1501 36.2359 77.4067C34.4889 75.6634 33.2992 73.4422 32.8172 71.024C32.3352 68.6059 32.5826 66.0994 33.528 63.8216C34.4735 61.5438 36.0746 59.5969 38.1289 58.2271C40.1832 56.8573 42.5984 56.1262 45.069 56.1262C48.3821 56.1262 51.5595 57.4396 53.9021 59.7774C56.2448 62.1152 57.5609 65.2859 57.5609 68.5921Z" fill="#23242A"/>
<path d="M14.2673 81.0579C21.1664 81.0579 26.7592 75.4768 26.7592 68.5921C26.7592 61.7074 21.1664 56.1262 14.2673 56.1262C7.3682 56.1262 1.77539 61.7074 1.77539 68.5921C1.77539 75.4768 7.3682 81.0579 14.2673 81.0579Z" fill="#23242A"/>
<path d="M88.0541 38.6289C88.0541 41.0945 87.3215 43.5046 85.9488 45.5546C84.5762 47.6046 82.6252 49.2024 80.3426 50.1459C78.0601 51.0894 75.5484 51.3363 73.1252 50.8553C70.702 50.3743 68.4761 49.187 66.7291 47.4436C64.9821 45.7003 63.7923 43.479 63.3103 41.0609C62.8283 38.6428 63.0757 36.1363 64.0212 33.8585C64.9667 31.5806 66.5678 29.6337 68.6221 28.264C70.6764 26.8942 73.0915 26.1631 75.5622 26.1631C78.8753 26.1631 82.0526 27.4765 84.3953 29.8143C86.738 32.1521 88.0541 35.3228 88.0541 38.6289Z" fill="#23242A"/>
<path d="M57.5609 12.6129C57.5609 15.0784 56.8283 17.4885 55.4557 19.5385C54.083 21.5885 52.1321 23.1863 49.8495 24.1298C47.5669 25.0733 45.0552 25.3202 42.632 24.8392C40.2088 24.3582 37.983 23.171 36.2359 21.4276C34.4889 19.6842 33.2992 17.463 32.8172 15.0449C32.3352 12.6267 32.5826 10.1202 33.528 7.84241C34.4735 5.56458 36.0746 3.61768 38.1289 2.24791C40.1832 0.878149 42.5984 0.14704 45.069 0.14704C48.3821 0.14704 51.5595 1.4604 53.9021 3.7982C56.2448 6.136 57.5609 9.30674 57.5609 12.6129Z" fill="#23242A"/>
<path d="M125.141 70.3723H107.917C107.917 73.8307 109.598 75.56 112.96 75.56C113.755 75.595 114.545 75.4114 115.243 75.029C115.94 74.6467 116.52 74.0804 116.917 73.392H124.831C124.353 75.2375 123.388 76.9217 122.038 78.2699C119.814 80.3347 116.813 81.367 113.037 81.367C108.279 81.367 104.684 79.9217 102.252 77.0311C100.457 74.797 99.5214 71.9958 99.6144 69.1335C99.5453 67.4903 99.8047 65.8499 100.378 64.3079C100.95 62.7658 101.825 61.353 102.951 60.1519C105.227 57.829 108.408 56.6676 112.494 56.6676C117.563 56.6676 121.184 58.5001 123.357 62.165C124.62 64.3526 125.263 66.8415 125.219 69.3657V70.4497L125.141 70.3723ZM117.46 65.7266C116.891 63.0941 115.339 61.7778 112.805 61.7778C111.669 61.712 110.551 62.0856 109.684 62.8211C108.817 63.5565 108.267 64.5972 108.149 65.7266H117.46Z" fill="#23242A"/>
<path d="M152.764 57.2887L140.66 80.4396H135.151L123.202 57.2887H132.435L137.944 69.1351L143.531 57.2887H152.686H152.764Z" fill="#23242A"/>
<path d="M178.678 68.9011C178.741 71.9711 177.6 74.9442 175.497 77.1859C172.911 79.9733 169.316 81.367 164.712 81.367C160.108 81.367 156.514 79.9733 153.927 77.1859C151.808 74.8923 150.667 71.8652 150.746 68.7463C150.739 65.7786 151.878 62.9223 153.927 60.7712C156.514 57.9838 160.186 56.5902 164.945 56.5902C169.704 56.5902 173.221 57.958 175.497 60.6938C177.595 62.9073 178.738 65.8549 178.678 68.9011ZM170.143 68.9011C170.154 68.1865 170.02 67.477 169.751 66.8147C169.482 66.1525 169.082 65.5508 168.576 65.0454C168.069 64.54 167.467 64.1412 166.803 63.8725C166.139 63.6038 165.428 63.4708 164.712 63.4812C163.924 63.4661 163.142 63.6329 162.429 63.9686C161.716 64.3044 161.09 64.8 160.6 65.4169C159.764 66.3862 159.305 67.6225 159.305 68.9011C159.305 70.1798 159.764 71.4161 160.6 72.3854C161.09 73.0022 161.716 73.4979 162.429 73.8336C163.142 74.1694 163.924 74.3362 164.712 74.3211C165.428 74.3315 166.139 74.1984 166.803 73.9298C167.467 73.6611 168.069 73.2622 168.576 72.7569C169.082 72.2515 169.482 71.6498 169.751 70.9875C170.02 70.3253 170.154 69.6158 170.143 68.9011Z" fill="#23242A"/>
<path d="M187.758 80.4397H179.533V42.9648H187.758V80.4397Z" fill="#23242A"/>
<path d="M216.23 57.2887L204.127 80.4396H198.618L186.669 57.2887H195.902L201.489 69.1351L207.075 57.2887H216.23Z" fill="#23242A"/>
<path d="M223.836 48.385C223.836 49.5966 223.353 50.7585 222.495 51.6153C221.636 52.472 220.472 52.9533 219.258 52.9533C218.653 52.9678 218.052 52.8585 217.492 52.6321C216.931 52.4057 216.423 52.067 215.999 51.637C215.135 50.7745 214.649 49.6047 214.649 48.385C214.649 47.1653 215.135 45.9955 215.999 45.1331C216.864 44.2706 218.036 43.7861 219.258 43.7861C220.48 43.7861 221.652 44.2706 222.517 45.1331C222.948 45.5563 223.287 46.0633 223.514 46.6226C223.741 47.182 223.85 47.7818 223.836 48.385ZM223.37 80.4401H215.146V57.2892H223.37V80.4401Z" fill="#23242A"/>
<path d="M251.692 80.4392H243.468V68.7477C243.468 66.7345 243.235 65.3408 242.769 64.7214C242.43 64.2416 241.975 63.8551 241.446 63.5979C240.917 63.3408 240.331 63.2212 239.743 63.2503C239.169 63.2377 238.598 63.341 238.065 63.5539C237.532 63.7667 237.047 64.0848 236.64 64.4891C236.22 64.977 235.901 65.5428 235.702 66.154C235.502 66.7653 235.425 67.4099 235.476 68.0508V80.4392H227.174V57.2884H235.398V60.2306C236.141 59.3145 237.033 58.5293 238.036 57.9078C239.544 57.1291 241.228 56.7555 242.924 56.8238C245.12 56.735 247.273 57.451 248.976 58.8369C250.735 60.3855 251.614 62.6825 251.614 65.728V80.4392H251.692Z" fill="#23242A"/>
<path d="M279.39 78.8118C279.411 80.4497 279.255 82.0852 278.924 83.6897C278.388 85.8082 277.159 87.688 275.433 89.0322C273.053 91.0453 269.898 92.0519 265.967 92.0519C262.036 92.0519 258.751 90.9679 256.113 88.7999C254.659 87.6071 253.582 86.0208 253.009 84.2317C252.91 83.8755 252.832 83.5135 252.777 83.1477H262.01C262.201 83.786 262.579 84.3523 263.096 84.7737C263.909 85.3543 264.89 85.6535 265.889 85.6254C266.723 85.6688 267.555 85.508 268.312 85.1571C269.069 84.8063 269.729 84.2759 270.234 83.6123C270.929 82.531 271.256 81.2547 271.165 79.9732V77.8052C270.41 78.5158 269.577 79.1391 268.682 79.6635C267.18 80.4624 265.497 80.8623 263.794 80.8249C261.535 80.8524 259.32 80.2053 257.432 78.9666C255.544 77.7514 254.101 75.9585 253.32 73.8564C252.738 72.3232 252.449 70.6952 252.466 69.0559C252.4 67.3401 252.69 65.6291 253.317 64.0302C253.945 62.4314 254.897 60.9792 256.113 59.7646C257.174 58.688 258.444 57.8377 259.844 57.2654C261.244 56.6931 262.747 56.4107 264.26 56.4352C265.819 56.4017 267.364 56.7471 268.76 57.4418C269.699 57.9635 270.539 58.6448 271.243 59.4549V57.2869H279.467V78.8118H279.39ZM271.553 68.7462C271.558 68.043 271.423 67.3459 271.156 66.6948C270.89 66.0438 270.498 65.4516 270.001 64.9522C269.531 64.4344 268.956 64.0218 268.314 63.7415C267.672 63.4613 266.978 63.3198 266.277 63.3263C265.506 63.302 264.74 63.4574 264.04 63.7799C263.34 64.1025 262.724 64.5834 262.243 65.1845C261.432 66.1648 260.993 67.398 261.001 68.6688C260.993 69.3726 261.125 70.0709 261.392 70.7226C261.658 71.3742 262.053 71.9659 262.553 72.4627C263.037 72.9591 263.616 73.3536 264.256 73.6229C264.896 73.8923 265.583 74.0311 266.277 74.0311C266.971 74.0311 267.659 73.8923 268.298 73.6229C268.938 73.3536 269.517 72.9591 270.001 72.4627C270.973 71.497 271.53 70.1918 271.553 68.8236V68.7462Z" fill="#23242A"/>
<path d="M326.875 57.2887L314.693 80.4396H309.185L303.521 67.7414L298.012 80.4396H292.503L280.477 57.2887H289.632L295.219 69.5223L301.038 57.2887H306.159L311.978 69.832L317.797 57.2887H326.953H326.875Z" fill="#23242A"/>
<path d="M350.461 70.3723H333.236C333.236 73.8307 334.917 75.5599 338.279 75.5599C339.074 75.595 339.864 75.4113 340.562 75.029C341.26 74.6467 341.839 74.0804 342.236 73.3919H350.15C349.672 75.2375 348.707 76.9217 347.357 78.2699C345.133 80.3346 342.133 81.367 338.357 81.367C333.598 81.367 330.003 79.9217 327.572 77.031C325.77 74.8003 324.834 71.9967 324.934 69.1334C324.864 67.4721 325.131 65.8138 325.717 64.2575C326.304 62.7011 327.198 61.2785 328.348 60.0744C330.623 57.7516 333.805 56.5902 337.891 56.5902C342.96 56.5902 346.581 58.4226 348.754 62.0875C350.016 64.2752 350.66 66.764 350.616 69.2883V70.3723H350.461ZM342.779 65.7266C342.21 63.0941 340.658 61.7778 338.124 61.7778C336.988 61.7119 335.87 62.0856 335.003 62.821C334.136 63.5565 333.586 64.5971 333.468 65.7266H342.779Z" fill="#23242A"/>
<path d="M378.393 68.8256C378.462 70.5885 378.136 72.3445 377.438 73.9653C376.74 75.5862 375.688 77.0311 374.358 78.1943C372.258 80.1011 369.517 81.1512 366.677 81.1366C365.025 81.1648 363.394 80.7646 361.944 79.9752C360.997 79.4314 360.177 78.6923 359.539 77.8072V80.3623H351.314V42.9648H359.539V59.6117C360.274 58.8233 361.14 58.1683 362.099 57.676C363.548 56.9641 365.14 56.5932 366.755 56.592C369.523 56.5586 372.205 57.5519 374.281 59.3794C375.635 60.5435 376.707 61.9976 377.419 63.6332C378.132 65.2688 378.464 67.0437 378.393 68.8256ZM369.858 68.8256C369.868 67.578 369.428 66.3684 368.617 65.4188C368.131 64.8221 367.515 64.3444 366.816 64.0223C366.116 63.7002 365.352 63.5422 364.582 63.5605C363.183 63.5605 361.841 64.1152 360.851 65.1026C359.862 66.09 359.306 67.4292 359.306 68.8256C359.306 70.222 359.862 71.5612 360.851 72.5486C361.841 73.5359 363.183 74.0907 364.582 74.0907C365.353 74.1149 366.119 73.9596 366.819 73.637C367.52 73.3145 368.135 72.8336 368.617 72.2324C369.41 71.303 369.85 70.124 369.858 68.903V68.8256Z" fill="#23242A"/>
</g>
<defs>
<clipPath id="clip0_611_37919">
<rect width="378.7" height="92.4" fill="white"/>
</clipPath>
</defs>
</svg>
