<svg xmlns="http://www.w3.org/2000/svg" width="123" height="32" fill="currentColor"><g clip-path="url(#a)"><path d="M0 4.854a.642.642 0 0 1 .182-.452.62.62 0 0 1 .444-.185h13.656a.62.62 0 0 1 .443.187.642.642 0 0 1 .183.45v3.661c0 .17-.066.331-.183.45s-.277.187-.443.187h-9.14v4.84h7.512a.64.64 0 0 1 .437.192.664.664 0 0 1 .19.445v3.66a.664.664 0 0 1-.19.446.64.64 0 0 1-.437.192H5.143v8.158c-.005.167-.073.327-.189.445s-.273.187-.437.192H.626a.612.612 0 0 1-.442-.183A.633.633 0 0 1 0 27.09V4.854zm18.338 0c0-.169.066-.331.183-.45a.62.62 0 0 1 .443-.187H32.62a.616.616 0 0 1 .446.185.638.638 0 0 1 .185.452v3.661a.647.647 0 0 1-.185.453.624.624 0 0 1-.446.184h-9.134v4.166h7.511a.65.65 0 0 1 .441.192.674.674 0 0 1 .195.446v3.66c0 .17-.065.333-.183.453a.626.626 0 0 1-.443.19h-7.511v4.533h9.124a.616.616 0 0 1 .446.185.637.637 0 0 1 .185.452v3.661a.647.647 0 0 1-.187.45.624.624 0 0 1-.444.182H18.964a.62.62 0 0 1-.443-.186.643.643 0 0 1-.183-.451V4.854zm19.07 0a.64.64 0 0 1 .182-.452.621.621 0 0 1 .444-.185h3.926c.164.006.32.075.436.194a.668.668 0 0 1 .19.443v17.938h7.842c.166 0 .325.067.443.187s.183.281.183.45v3.661a.644.644 0 0 1-.185.448.62.62 0 0 1-.44.185H38.033a.612.612 0 0 1-.442-.184.632.632 0 0 1-.184-.449V4.854zm44.814 8.969a.762.762 0 0 0 1.001.21c2.374-1.413 10.561-6.048 13.02-10.668C98.322-.535 93.97-.204 91.471.27a6.952 6.952 0 0 0-3.005 1.387c-2.308 1.836-5.934 5.237-6.39 11.6-.018.2.034.4.146.566zm-14.698 9.03a.656.656 0 0 0-.266-.061h-7.852V4.854a.663.663 0 0 0-.189-.445.64.64 0 0 0-.437-.193h-3.926a.62.62 0 0 0-.442.187.643.643 0 0 0-.184.45V27.09a.643.643 0 0 0 .185.447.62.62 0 0 0 .441.185h7.457a26.96 26.96 0 0 1 5.213-4.87zm24.338-12.028a55.42 55.42 0 0 1-4.657 2.606 6.788 6.788 0 0 1-.518 6.153c-.566.907-1.34 1.662-2.254 2.2s-1.942.844-2.997.89a15.992 15.992 0 0 1-1.868 5.288c.513.068 1.03.102 1.547.102a11.64 11.64 0 0 0 4.553-.896c1.444-.603 2.757-1.49 3.861-2.613s1.98-2.457 2.575-3.927.897-3.044.89-4.633c0-1.787-.387-3.552-1.132-5.17zm-16.811 7.719a6.662 6.662 0 0 1-.5-2.55 6.82 6.82 0 0 1 1.902-4.725 6.58 6.58 0 0 1 4.607-2.02 16.752 16.752 0 0 1 2.003-5.211 11.645 11.645 0 0 0-6.501.753 11.818 11.818 0 0 0-3.85 2.631 12.064 12.064 0 0 0-2.562 3.936 12.235 12.235 0 0 0-.878 4.636 12.376 12.376 0 0 0 1.047 5.007c1.53-.91 3.11-1.73 4.732-2.457zm5.003-.423a.76.76 0 0 0-1.002-.204c-2.373 1.407-10.37 6.119-12.83 10.707-2.078 3.9 2.279 3.57 4.778 3.095a6.867 6.867 0 0 0 3.004-1.382 15.562 15.562 0 0 0 4.375-5.125 15.858 15.858 0 0 0 1.83-6.53.847.847 0 0 0-.155-.561zM122.25 4.217h-3.861a.67.67 0 0 0-.591.469l-2.839 11.386h-.13l-5.113-11.804a.571.571 0 0 0-.22-.281.554.554 0 0 0-.341-.092h-.596a.625.625 0 0 0-.541.372l-5.133 11.805h-.13L99.921 4.686a30.88 30.88 0 0 1-4.117 3.691l5.308 19.217c.037.132.114.25.22.334s.237.132.371.135h.531a.684.684 0 0 0 .561-.367l6.009-13.74h.095l6.03 13.766a.676.676 0 0 0 .561.367h.54a.626.626 0 0 0 .596-.469l6.235-22.572a.59.59 0 0 0-.304-.796.565.565 0 0 0-.307-.035zM81.14 17.504c.83 0 1.502-.685 1.502-1.53s-.672-1.53-1.502-1.53-1.502.686-1.502 1.53.672 1.53 1.502 1.53z"/></g><defs><clipPath id="a"><path fill="none" d="M0 0h122.88v32H0z"/></clipPath></defs></svg>