<?xml version="1.0" encoding="utf-8"?>
<!-- Generator: Adobe Illustrator 24.1.0, SVG Export Plug-In . SVG Version: 6.00 Build 0)  -->
<svg version="1.1" id="Layer_1" xmlns="http://www.w3.org/2000/svg" xmlns:xlink="http://www.w3.org/1999/xlink" x="0px" y="0px"
	 viewBox="0 0 229.5565796 61.1665344" enable-background="new 0 0 229.5565796 61.1665344" xml:space="preserve">
<g>
	<g>
		<g>
			<path fill="#0372CF" d="M118.9651718,24.9322815L118.9651718,24.9322815h-2.2121124
				c-1.3961487,0-2.444809,1.165741-2.444809,2.4463501v6.1748657c0,1.3985596,1.0486603,2.5643005,2.444809,2.5643005h4.1915131
				v-1.7478333h-3.3755493c-0.5832825,0-1.0486603-0.4672241-1.0486603-1.0493164v-0.6985168
				c0-0.4656677,0.2326965-0.7000732,0.8144073-0.9328918l1.8630676-0.4656982
				c1.5140533-0.4656677,2.3284607-1.1641846,2.3284607-2.0970764v-0.8149414v-0.9328918
				C121.5262985,26.0980225,120.36129,24.9322815,118.9651718,24.9322815z M119.1978378,28.6607971L119.1978378,28.6607971
				c0,0.4656677-0.232666,0.8149109-0.6980591,1.04776l-1.9794159,0.5836487v-2.6807251
				c0-0.5820923,0.4653778-1.0477905,1.0486603-1.0477905h0.5817261c0.5817261,0,1.0470886,0.4656982,1.0470886,1.0477905v0.7000427
				V28.6607971z"/>
		</g>
		<g>
			<path fill="#0372CF" d="M142.3629456,27.3786316L142.3629456,27.3786316c0-1.2806091-1.1650085-2.4463501-2.5611572-2.4463501
				h-4.0751648v1.6314087h3.2607727c0.5817261,0,1.0470886,0.4656982,1.0470886,1.0477905v0.5836182
				c0,0.5820923-0.116333,0.8149414-0.8144226,0.931366l-1.8630676,0.5820923
				c-1.5140381,0.3507996-2.2120972,1.165741-2.2120972,2.0971069v1.7478333c0,1.3985596,1.048645,2.5643005,2.4447937,2.5643005
				h4.7732544V27.3786316z M137.3569946,33.3206482L137.3569946,33.3206482v-1.04776
				c0-0.5836487,0.3490295-0.9329224,0.8144226-1.0493469l1.8630676-0.5820923v3.7285156h-1.6303711
				C137.8223877,34.3699646,137.3569946,33.9027405,137.3569946,33.3206482z"/>
		</g>
		<g>
			<path fill="#0372CF" d="M151.3261719,34.3699646L151.3261719,34.3699646c-1.2813416,0-1.6304016-0.7000732-1.6304016-1.7478333
				V20.8545227h-2.3284302v11.6511841c0,2.0971069,1.3976746,3.6120911,3.3755493,3.6120911h0.5832825V34.3699646z"/>
		</g>
		<g>
			<path fill="#0372CF" d="M106.7427292,24.9322815L106.7427292,24.9322815h-4.7732544v11.1855164h2.3284607v-9.5541077h1.6303711
				c0.5817261,0,1.0471039,0.4656982,1.0471039,1.0477905v8.5063171h2.2121124v-8.7391663
				C109.1875229,26.0980225,108.1388626,24.9322815,106.7427292,24.9322815z"/>
		</g>
		<g>
			<path fill="#0372CF" d="M172.3923645,24.9322815L172.3923645,24.9322815h-9.6643677v11.1855164h2.2182922v-9.5541077h2.6681824
				v9.5541077h2.3424072v-9.5541077h1.6288452c0.5739746,0,1.0393372,0.4656982,1.0393372,1.0477905v8.5063171h2.2183228v-8.7391663
				C174.8433838,26.0980225,173.7885132,24.9322815,172.3923645,24.9322815z"/>
		</g>
		<g>
			<path fill="#0372CF" d="M184.7404785,24.9322815L184.7404785,24.9322815h-2.2183228
				c-1.3961487,0-2.5596008,1.165741-2.5596008,2.4463501v6.1748657c0,1.3985596,1.1634521,2.5643005,2.5596008,2.5643005h2.2183228
				c1.3961182,0,2.4354858-1.165741,2.4354858-2.5643005v-6.1748657
				C187.1759644,26.0980225,186.1365967,24.9322815,184.7404785,24.9322815z M184.9731445,33.3206482L184.9731445,33.3206482
				c0,0.5820923-0.4653625,1.0493164-1.0548401,1.0493164h-0.5739746c-0.5894775,0-1.0548706-0.4672241-1.0548706-1.0493164
				v-5.7091675c0-0.5820923,0.4653931-1.0477905,1.0548706-1.0477905h0.5739746
				c0.5894775,0,1.0548401,0.4656982,1.0548401,1.0477905V33.3206482z"/>
		</g>
		<g>
			<path fill="#0372CF" d="M131.0712585,24.9322815L131.0712585,24.9322815c-0.9307556,0-1.8630676,0.2328491-2.4447937,0.5820923
				h-0.116333v-0.5820923h-2.2121353v11.1855164h2.2121353v-7.5734253c0.116333-1.0493164,1.2797852-1.7478333,2.4447937-1.8642578
				c0.116333,0,0.3490295-0.1164246,0.5817261-0.1164246c0.116333,0,0.4653625,0,0.4653625,0v-1.6314087H131.0712585z"/>
		</g>
		<g>
			<path fill="#0372CF" d="M225.7094421,26.5636902L225.7094421,26.5636902h3.3817444v-1.6314087h-4.3125
				c-1.2875366,0-2.4509888,1.165741-2.4509888,2.4463501v1.2821655c0,1.04776,0.356781,1.7478333,1.9856262,2.213501
				l2.2027893,0.5820923c0.4653931,0.1164246,0.8221741,0.4656677,0.8221741,1.0493164v0.8149414
				c0,0.5820923-0.5895081,1.0493164-1.1634521,1.0493164h-3.8471375v1.7478333h4.7778931
				c1.3961487,0,2.4509888-1.165741,2.4509888-2.5643005v-1.5134583c0-0.9328918-0.8221741-1.6314087-2.3424072-2.0970764
				l-1.8615112-0.5836487c-0.5739746-0.1164246-0.6980591-0.3492737-0.6980591-0.8149414v-0.9328918
				C224.6546021,27.0293884,225.1199646,26.5636902,225.7094421,26.5636902z"/>
		</g>
		<g>
			<path fill="#0372CF" d="M197.0730591,34.3699646L197.0730591,34.3699646h-0.3568115
				c-1.2720337,0-1.6288147-0.7000732-1.6288147-1.7478333v-6.0584412h1.9856262v-1.6314087h-1.9856262v-2.9120178h-2.2028198
				v2.9120178h-1.9856262v1.6314087h1.9856262v5.9420166c0,2.0971069,1.2720642,3.6120911,3.366272,3.6120911h0.8221741V34.3699646z
				"/>
		</g>
		<g>
			<path fill="#0372CF" d="M94.6366348,24.9322815L94.6366348,24.9322815h-2.2121124
				c-1.3961487,0-2.4447937,1.165741-2.4447937,2.4463501v6.1748657c0,1.3985596,1.048645,2.5643005,2.4447937,2.5643005h4.1915283
				v-1.7478333h-3.3755493c-0.5832825,0-1.0486755-0.4672241-1.0486755-1.0493164v-0.6985168
				c0-0.4656677,0.2326965-0.7000732,0.8144226-0.9328918l1.8630676-0.4656982
				c1.5140381-0.4656677,2.3284607-1.1641846,2.3284607-2.0970764v-0.8149414v-0.9328918
				C97.1977768,26.0980225,96.0327682,24.9322815,94.6366348,24.9322815z M94.8693161,28.6607971L94.8693161,28.6607971
				c0,0.4656677-0.2326813,0.8149109-0.8144073,1.04776l-1.8630829,0.5836487v-2.6807251
				c0-0.5820923,0.4653931-1.0477905,1.0486755-1.0477905h0.5817108c0.5817261,0,1.0471039,0.4656982,1.0471039,1.0477905v0.7000427
				V28.6607971z"/>
		</g>
		<g>
			<path fill="#0372CF" d="M218.2633667,24.9322815L218.2633667,24.9322815c-0.9307556,0-1.8615112,0.2328491-2.4510193,0.5820923
				h-0.1085815v-0.5820923h-2.2183228v11.1855164h2.2183228v-7.5734253
				c0.1085815-1.0493164,1.2720337-1.7478333,2.4354858-1.8642578c0.124115,0,0.3568115-0.1164246,0.5894775-0.1164246
				c0.1086121,0,0.4653931,0,0.4653931,0v-1.6314087H218.2633667z"/>
		</g>
		<g>
			<path fill="#0372CF" d="M205.9152832,24.9322815L205.9152832,24.9322815h-2.2027893
				c-1.3961792,0-2.5596313,1.165741-2.5596313,2.4463501v6.1748657c0,1.3985596,1.1634521,2.5643005,2.5596313,2.5643005h2.2027893
				c1.3961182,0,2.4509888-1.165741,2.4509888-2.5643005v-6.1748657
				C208.366272,26.0980225,207.3114014,24.9322815,205.9152832,24.9322815z M206.1479492,33.3206482L206.1479492,33.3206482
				c0,0.5820923-0.4653625,1.0493164-1.0393372,1.0493164h-0.5894775c-0.5739746,0-1.0393677-0.4672241-1.0393677-1.0493164
				v-5.7091675c0-0.5820923,0.4653931-1.0477905,1.0393677-1.0477905h0.5894775
				c0.5739746,0,1.0393372,0.4656982,1.0393372,1.0477905V33.3206482z"/>
		</g>
		<g>
			<path fill="#0372CF" d="M80.0857391,24.9322815L80.0857391,24.9322815c-1.3961334,0-2.4447937,1.165741-2.4447937,2.4463501
				v6.1748657c0,1.3985596,1.0486603,2.5643005,2.4447937,2.5643005h2.4448013v0.4656982
				c0,1.04776-0.6980743,1.8642273-2.2121048,1.8642273h-1.1634521v1.6314392h1.1634521
				c2.7938309,0,4.5405579-1.2821655,4.5405579-3.8449402V24.9322815H80.0857391z M82.5305405,34.3699646L82.5305405,34.3699646
				h-1.6303787c-0.5817261,0-1.0471039-0.4672241-1.0471039-1.0493164v-5.7091675
				c0-0.5820923,0.4653778-1.0477905,1.0471039-1.0477905h1.6303787V34.3699646z"/>
		</g>
		<g>
			<path fill="#0372CF" d="M24.4448776,15.727417L24.4448776,15.727417h-8.1488113
				c-3.0260582,0-5.0048561,2.0971069-5.0048561,5.0106812v11.3019409c0,2.9120178,1.9787979,4.8927002,5.0048561,4.8927002
				h3.7261429v0.931366c-0.1163406,2.2150574-1.2813454,3.3792419-4.307869,3.4956665h-1.8622971v3.8449097h1.8622971
				c5.4713211,0,8.6141891-2.5627747,8.7305374-7.3405762V19.4559326V15.727417z M20.0222092,33.0877991L20.0222092,33.0877991
				h-2.4447937c-1.1650047,0-1.8630753-0.6984863-1.8630753-1.7478333V21.436615
				c0-1.0477905,0.6980705-1.7478333,1.746727-1.7478333h2.561142V33.0877991z M49.7041702,20.7380981L49.7041702,20.7380981
				v16.1946411h-4.4226685V21.436615c0-1.0477905-0.6980743-1.7478333-1.746727-1.7478333h-2.561142v17.2439575H36.550972
				V19.6887817h-4.3063202v17.2439575h-4.4242172V15.727417h16.8793411
				C47.8426437,15.727417,49.7041702,17.7080994,49.7041702,20.7380981z M49.7041702,45.2046814L49.7041702,45.2046814H27.8204346
				v-3.8449097h21.8837357V45.2046814z M61.1121902,8.6212158L61.1121902,8.6212158C61.1121902,3.3777161,57.620285,0,52.3816528,0
				H8.6138802C3.3757133,0,0,3.3777161,0,8.6212158v43.8071899c0,5.2428894,3.3757133,8.7381287,8.6138802,8.7381287h43.7677727
				c5.2386322,0,8.7305374-3.4952393,8.7305374-8.7381287V8.6212158z M51.9162674,57.2052917L51.9162674,57.2052917H9.0795708
				c-3.4922142,0-5.2381668-1.7476807-5.2381668-5.2428894V9.0868835c0-3.4956665,1.7459526-5.2419434,5.2381668-5.2419434
				h42.8366966c3.4919128,0,5.2386398,1.7462769,5.2386398,5.2419434v42.8755188
				C57.1549072,55.4576111,55.4081802,57.2052917,51.9162674,57.2052917z"/>
		</g>
	</g>
</g>
<g>
</g>
<g>
</g>
<g>
</g>
<g>
</g>
<g>
</g>
<g>
</g>
</svg>
