<svg width="146" height="20" viewBox="0 0 146 20" fill="none" xmlns="http://www.w3.org/2000/svg">
<path d="M137.805 2.56502C137.518 2.87566 137.261 3.15264 137.003 3.42704C136.441 4.02502 135.871 4.61782 135.317 5.22098C135.126 5.43066 134.965 5.48762 134.675 5.30382C133.702 4.68772 132.62 4.214 131.411 3.95255C129.923 3.63155 128.411 3.54872 126.899 3.83865C126.454 3.92407 125.998 4.04574 125.605 4.22435C124.14 4.88964 124.152 6.35223 125.656 6.97092C126.425 7.28674 127.274 7.5016 128.113 7.69058C129.778 8.06593 131.471 8.35845 133.13 8.74416C134.269 9.00821 135.338 9.43015 136.262 10.0307C137.766 11.0092 138.382 12.2932 138.359 13.805C138.32 16.1244 136.889 17.7449 134.318 18.7882C132.377 19.5777 130.285 19.8314 128.121 19.8107C126.164 19.7926 124.274 19.5026 122.467 18.928C121.09 18.4905 119.832 17.8821 118.683 17.1392C118.45 16.989 118.419 16.8726 118.608 16.6732C119.376 15.8708 120.125 15.0553 120.878 14.2425C121.038 14.069 121.186 14.0535 121.403 14.2036C122.566 15.0165 123.894 15.6093 125.398 15.9225C127.021 16.259 128.662 16.3108 130.316 16.0364C131.088 15.9096 131.805 15.6973 132.371 15.2546C133.293 14.5298 133.187 13.5021 132.136 12.886C131.372 12.4382 130.482 12.2181 129.581 12.024C127.885 11.6616 126.164 11.3613 124.492 10.9471C123.001 10.5769 121.587 10.0359 120.546 9.06516C119.278 7.88473 118.936 6.50497 119.216 5.00613C119.444 3.78946 120.119 2.75917 121.287 1.94115C122.214 1.2914 123.293 0.8565 124.476 0.556216C126.273 0.0980224 128.113 -0.0288166 129.974 0.100616C132.343 0.266291 134.564 0.825441 136.563 1.86349C136.972 2.07577 137.362 2.30874 137.813 2.56502" fill="#E30613"/>
<path d="M27.9267 0.447266H23.4043V19.549H27.9267V0.447266Z" fill="#E30613"/>
<path d="M46.3966 0.376204C41.9026 -0.309792 38.7626 2.22968 37.8851 2.92862V0.448686H33.3704L33.3135 19.5349H37.9135L37.9705 7.21803C38.4209 6.27317 40.9112 3.97185 44.0072 4.30061C48.5555 4.7355 48.6332 9.37439 48.6332 9.37439L48.6616 19.5478H53.184L53.2306 7.25687C53.2306 7.25687 52.9485 1.52298 46.394 0.376204" fill="#E30613"/>
<path d="M142.695 2.81415H143.088C143.42 2.81415 143.79 2.79085 143.79 2.39478C143.79 1.99872 143.42 1.97542 143.088 1.98319H142.695V2.81415ZM142.156 1.525H143.293C143.999 1.525 144.333 1.84599 144.333 2.4155C144.333 2.93064 144.028 3.18173 143.624 3.23092L144.393 4.48383H143.826L143.091 3.27234H142.697V4.48383H142.156V1.525ZM143.145 5.1543C144.315 5.1543 145.265 4.20167 145.265 3.02383C145.265 1.84599 144.315 0.890772 143.145 0.890772C141.975 0.890772 141.025 1.84599 141.025 3.02383C141.025 4.20167 141.975 5.1543 143.145 5.1543ZM142.503 0.510239C144.416 0.0416912 146.112 1.74503 145.643 3.6684C145.423 4.57184 144.685 5.31479 143.785 5.53483C141.872 6.00338 140.179 4.30004 140.645 2.37666C140.862 1.47322 141.602 0.730275 142.501 0.510239" fill="#E30613"/>
<path d="M67.1113 15.8115C63.9014 15.8115 61.2998 13.2099 61.2998 10C61.2998 6.79006 63.9014 4.18845 67.1113 4.18845C70.3213 4.18845 72.9229 6.79006 72.9229 10C72.9229 13.2099 70.3213 15.8115 67.1113 15.8115ZM73.1947 0.416779V2.06575C71.5095 0.771424 69.3997 0 67.1113 0C61.5897 0 57.1113 4.4758 57.1113 10C57.1113 15.5242 61.5897 20 67.1113 20C69.3997 20 71.5095 19.2286 73.1947 17.9343V19.5496H77.7171V0.416779H73.1947Z" fill="#E30613"/>
<path d="M113.062 0.447266H108.54V19.549H113.062V0.447266Z" fill="#E30613"/>
<path d="M103.87 0.451172H97.9728L90.1758 10.0007L97.9728 19.5529H103.87L96.0727 10.0007L103.87 0.451172Z" fill="#E30613"/>
<path d="M88.2759 0.447266H82.3789L90.1759 9.99942L82.3789 19.549H88.2759L96.0729 9.99942L88.2759 0.447266Z" fill="#E30613"/>
<path d="M4.52239 0.447266H0V19.549H4.52239V0.447266Z" fill="#E30613"/>
<path d="M19.0885 0.451172H13.1916L5.39453 10.0007L13.1916 19.5529H19.0885L11.2915 10.0007L19.0885 0.451172Z" fill="#E30613"/>
</svg>
