<svg version="1.2" xmlns="http://www.w3.org/2000/svg" viewBox="0 0 1547 279" width="1547" height="279">
	<title>download-svg</title>
	<defs>
		<linearGradient id="g1" x2="1" gradientUnits="userSpaceOnUse" gradientTransform="matrix(119.694,-256.667,91.105,42.486,354.351,259.776)">
			<stop offset="0" stop-color="#d4202c" stop-opacity="1"/>
			<stop offset=".1" stop-color="#dc3d29" stop-opacity=".79"/>
			<stop offset=".2" stop-color="#e45926" stop-opacity=".58"/>
			<stop offset=".32" stop-color="#ea7123" stop-opacity=".4"/>
			<stop offset=".43" stop-color="#f08521" stop-opacity=".25"/>
			<stop offset=".55" stop-color="#f4941f" stop-opacity=".14"/>
			<stop offset=".68" stop-color="#f79f1e" stop-opacity=".06"/>
			<stop offset=".82" stop-color="#f8a51d" stop-opacity=".02"/>
			<stop offset="1" stop-color="#f9a71d" stop-opacity="0"/>
		</linearGradient>
		<linearGradient id="g2" x2="1" gradientUnits="userSpaceOnUse" gradientTransform="matrix(-119.694,256.667,-91.302,-42.578,150.732,18.713)">
			<stop offset="0" stop-color="#d4202c" stop-opacity="1"/>
			<stop offset=".1" stop-color="#dc3d29" stop-opacity=".79"/>
			<stop offset=".2" stop-color="#e45926" stop-opacity=".58"/>
			<stop offset=".32" stop-color="#ea7123" stop-opacity=".4"/>
			<stop offset=".43" stop-color="#f08521" stop-opacity=".25"/>
			<stop offset=".55" stop-color="#f4941f" stop-opacity=".14"/>
			<stop offset=".68" stop-color="#f79f1e" stop-opacity=".06"/>
			<stop offset=".82" stop-color="#f8a51d" stop-opacity=".02"/>
			<stop offset="1" stop-color="#f9a71d" stop-opacity="0"/>
		</linearGradient>
	</defs>
	<style>
		.s0 { fill: #ff5100 } 
		.s1 { fill: url(#g1) } 
		.s2 { fill: url(#g2) } 
		.s3 { fill: #ff8c44 } 
		.s4 { fill: #6e6f71 } 
	</style>
	<path id="Layer" class="s0" d="m457.1 0c-4.2 0-8.3 0.6-12.4 1.7-4 1.1-7.9 2.7-11.5 4.8-3.6 2.1-6.9 4.7-9.8 7.7-2.9 3-5.4 6.4-7.5 10l-0.9 2-36.7 72.7-46.7 91.9 30.6 60.2 1.6 3.3q1.8 3.1 4 5.9 2.2 2.8 4.8 5.3 2.6 2.4 5.5 4.5 3 2 6.2 3.6 3.2-1.6 6.1-3.7 2.9-2 5.5-4.4 2.6-2.5 4.8-5.3 2.2-2.8 4-5.9l1.7-3.3 91.6-180.6 2.3-4.4c3.1-7.1 4.4-14.9 3.7-22.7-0.7-7.8-3.2-15.3-7.5-21.8-4.3-6.5-10.1-11.9-17-15.6-6.8-3.7-14.5-5.6-22.3-5.7z"/>
	<path id="Layer" class="s0" d="m173.8 87.5l-30.6-59.8-1.7-3.3q-1.7-3.1-3.9-5.9-2.2-2.8-4.8-5.3-2.6-2.4-5.5-4.5-2.9-2-6.1-3.6-3.2 1.6-6.1 3.6-3 2.1-5.5 4.5-2.6 2.4-4.8 5.2-2.2 2.8-4 5.9l-1.7 3.4-91.8 180.4-2.2 4.3c-5 11.1-5.5 23.6-1.4 35.1 4.1 11.4 12.5 20.7 23.4 26.2 10.8 5.4 23.4 6.4 35 2.7 11.6-3.6 21.3-11.5 27.2-22.1l1-1.9 36.9-72.7 46.7-91.9z"/>
	<path id="Layer" class="s1" d="m457 0c-4.2 0-8.3 0.6-12.4 1.7-4 1.1-7.9 2.7-11.5 4.8-3.6 2.1-6.9 4.7-9.8 7.7-2.9 3-5.4 6.4-7.4 10l-1 2-37 72.7-46.8 91.9 30.7 60.2 1.7 3.3q1.7 3.1 3.9 5.9 2.2 2.8 4.8 5.3 2.6 2.4 5.6 4.5 2.9 2 6.1 3.6 3.2-1.6 6.1-3.6 3-2.1 5.6-4.5 2.6-2.5 4.8-5.3 2.2-2.8 3.9-5.9l1.8-3.3 91.9-180.6 2.2-4.4c3.1-7.1 4.4-14.9 3.7-22.7-0.6-7.8-3.2-15.3-7.5-21.8-4.2-6.5-10.1-11.9-16.9-15.6-6.9-3.7-14.6-5.6-22.4-5.7z"/>
	<path id="Layer" class="s2" d="m48.1 278.5c4.1 0 8.3-0.5 12.3-1.6 4-1.1 7.9-2.7 11.5-4.8 3.6-2.1 6.9-4.6 9.8-7.6 2.9-3 5.5-6.3 7.5-9.9l1-2 37-72.7 46.7-91.9-30.6-60.5-1.6-3.3q-1.8-3.1-4-5.9-2.2-2.8-4.8-5.3-2.6-2.4-5.6-4.5-2.9-2-6.1-3.6-3.2 1.6-6.1 3.6-3 2.1-5.6 4.5-2.6 2.5-4.8 5.3-2.2 2.8-3.9 5.9l-1.7 3.3-92.1 180.6-2.2 4.4c-3.1 7.1-4.4 14.9-3.8 22.7 0.7 7.8 3.3 15.2 7.5 21.8 4.3 6.5 10.1 11.9 17 15.6 6.8 3.7 14.5 5.6 22.3 5.6z"/>
	<path id="Layer" class="s3" d="m173.8 87.5l-30.6-59.8-1.7-3.3q-1.7-3.1-3.9-5.9-2.2-2.8-4.8-5.3-2.6-2.5-5.5-4.5-3-2-6.2-3.6 1.1-0.5 2.2-1 1.1-0.5 2.2-0.9 1.1-0.4 2.3-0.8 1.1-0.4 2.2-0.7 1.5-0.3 3-0.6 1.5-0.3 3-0.5 1.5-0.2 3-0.3 1.5-0.1 3-0.1h64c4.1 0.1 8.3 0.6 12.3 1.7 4 1.1 7.9 2.7 11.4 4.8 3.6 2.1 6.9 4.6 9.9 7.6 2.9 2.9 5.4 6.2 7.5 9.9l1.6 3.2 82.7 163.6 30.5 59.8 1.7 3.3q1.8 3.1 4 6 2.2 2.8 4.8 5.3 2.7 2.5 5.6 4.5 3 2.1 6.3 3.7-2.5 1.2-5 2.1-2.5 0.9-5.2 1.5-2.6 0.6-5.3 0.9-2.6 0.3-5.3 0.3h-64.3c-4.2 0-8.3-0.5-12.3-1.6-4-1.1-7.9-2.7-11.5-4.8-3.6-2.1-6.8-4.7-9.8-7.6-2.9-3-5.4-6.3-7.5-9.9l-1.7-3.3z"/>
	<path id="Layer" fill-rule="evenodd" class="s4" d="m581.9 142.4q-0.1-1 0.2-2 0.3-1 1.1-1.7 0.7-0.7 1.7-1.1 1-0.3 2-0.2h3.6q1-0.1 1.9 0.3 1 0.3 1.7 1.1 0.7 0.7 1 1.7 0.3 0.9 0.2 1.9v11.6q0 0.9-0.1 1.8 0 0.9-0.1 1.8-0.1 1-0.3 1.9-0.1 0.9-0.3 1.7h0.4c1.8-3.9 4.1-7.5 6.9-10.7 2.8-3.3 6-6.1 9.6-8.4 3.6-2.3 7.5-4.1 11.6-5.3 4.1-1.2 8.4-1.8 12.6-1.8 25.1 0 33.9 14.2 33.9 39v59.2q0.2 1-0.2 2-0.3 1-1.1 1.7-0.7 0.7-1.7 1.1-1 0.3-2 0.2h-3.8q-1 0.1-1.9-0.3-1-0.3-1.7-1-0.7-0.8-1-1.7-0.4-1-0.2-2v-55.5c0-15.9-2.6-29.9-22-29.9-21.5 0-38.4 17.6-38.4 41.1v44.3q0.2 1-0.1 2-0.4 0.9-1.1 1.7-0.7 0.7-1.6 1-1 0.4-2 0.3h-3.8q-1 0.1-2-0.2-1-0.4-1.7-1.1-0.8-0.7-1.1-1.7-0.3-1-0.2-2zm161 34h6v-3.2c0-19.4-10.7-26-24.9-26q-3.3 0-6.4 0.5-3.2 0.4-6.3 1.3-3.2 0.9-6.1 2.2-3 1.3-5.7 3-0.8 0.6-1.8 0.7-1 0.2-2 0-0.9-0.3-1.7-0.8-0.8-0.6-1.3-1.5l-1.2-2q-0.7-0.8-0.9-1.8-0.2-1 0-2 0.2-1 0.8-1.8 0.6-0.8 1.5-1.3 3.6-2.1 7.5-3.8 3.9-1.6 7.9-2.7 4.1-1.2 8.3-1.7 4.2-0.6 8.4-0.5c23.9 0 37.5 13.3 37.5 38.6v59.8q0.2 1-0.1 2-0.3 1-1.1 1.7-0.7 0.8-1.6 1.1-1 0.4-2 0.2h-3.2q-1 0.2-2-0.2-1-0.3-1.7-1-0.8-0.8-1.1-1.8-0.3-0.9-0.2-2v-8.3q0-0.9 0-1.9 0-0.9 0.1-1.9 0.1-0.9 0.2-1.9 0.1-0.9 0.3-1.9h-0.6c-1.3 3.4-3.2 6.6-5.5 9.4-2.3 2.9-5 5.4-8 7.4-3 2.1-6.3 3.7-9.8 4.8-3.5 1.1-7.1 1.7-10.8 1.7-17.1 0-34.1-9.9-34.1-29.4 0-33.2 42.1-35 61.6-35zm-25.1 52.5c19.5 0 30.9-20 30.9-37.7v-4.8h-5.6c-15.9 0-47.9 0.6-47.9 23.2 0.1 9.7 7.6 19.3 22.6 19.3zm64-86.5q-0.1-1.1 0.3-2 0.3-1 1-1.7 0.8-0.8 1.7-1.1 1-0.4 2.1-0.3h3.5q1.1 0 2 0.3 0.9 0.4 1.6 1.1 0.7 0.8 1 1.7 0.4 1 0.2 2v11.6q0 0.9 0 1.8-0.1 0.9-0.2 1.8-0.1 0.9-0.2 1.8-0.1 0.9-0.3 1.8h0.4c1.5-3.7 3.6-7.1 6.1-10.3 2.5-3.1 5.4-5.8 8.7-8.2 3.2-2.3 6.8-4.1 10.6-5.4 3.8-1.3 7.7-2.1 11.7-2.3 18.6 0 28.3 8.6 31.1 25.2h0.2c1.6-3.6 3.7-7 6.3-10 2.5-3 5.5-5.7 8.7-7.9 3.3-2.2 6.8-3.9 10.6-5.2 3.7-1.2 7.6-2 11.6-2.1 24.4 0 33.4 14.2 33.4 39v59.1q0.1 1-0.2 2-0.3 1-1.1 1.7-0.7 0.7-1.6 1.1-1 0.3-2 0.2h-3.7q-1 0.2-2-0.2-1-0.3-1.7-1.1-0.8-0.7-1.1-1.7-0.3-0.9-0.2-2v-55.7c0-16.4-3.4-29.9-21.6-29.9-20.3 0-34 21.2-34 41.9v43.6q0.2 1-0.1 2-0.3 1-1 1.7-0.8 0.7-1.7 1.1-1 0.3-2 0.2h-3.8q-1.1 0.1-2-0.2-1-0.3-1.7-1.1-0.8-0.7-1.1-1.7-0.4-1-0.3-2v-55.6c0-15.2-2.2-29.9-21.2-29.9-20.5 0-34.5 21.7-34.5 41.9v43.6q0.1 1-0.2 2-0.3 1-1 1.7-0.7 0.7-1.7 1.1-0.9 0.3-2 0.2h-3.7q-1.1 0.1-2-0.2-1-0.3-1.8-1.1-0.7-0.7-1-1.7-0.4-1-0.3-2zm215-7.4c26.9 0 41.9 19.4 41.9 47.8q0 1.1-0.4 2-0.4 0.9-1.2 1.7-0.7 0.7-1.7 1-1 0.4-2 0.3h-72.4c0.6 25.7 18.3 40.3 39.2 40.3q3.6 0 7.1-0.6 3.5-0.6 6.9-1.8 3.4-1.2 6.5-2.9 3.1-1.7 5.9-3.9 0.8-0.7 1.7-1 1-0.3 2-0.1 1 0.2 1.8 0.8 0.8 0.6 1.2 1.5l1.6 2.4q0.5 0.8 0.7 1.7 0.2 1 0 1.9-0.2 0.9-0.8 1.7-0.5 0.8-1.3 1.3-3.6 2.8-7.6 4.9-4 2.2-8.3 3.7-4.3 1.5-8.8 2.3-4.5 0.8-9 0.9c-7 0.2-14-1-20.5-3.6-6.6-2.6-12.5-6.5-17.4-11.5-4.9-4.9-8.8-10.9-11.3-17.4-2.6-6.5-3.7-13.5-3.4-20.5 0-33.1 22.3-52.9 49.6-52.9zm28.2 42.9c-0.8-21.3-13.6-31.7-28.7-31.7-4.3 0-8.6 0.8-12.6 2.3-4.1 1.6-7.8 3.9-10.9 6.8-3.2 2.9-5.8 6.4-7.8 10.2-1.9 3.9-3.1 8.1-3.4 12.4zm78.8-42.9q4.5-0.1 9 0.6 4.5 0.8 8.8 2.2 4.3 1.5 8.2 3.6 4 2.2 7.6 5 0.8 0.6 1.3 1.4 0.6 0.9 0.6 1.9 0.1 1-0.2 1.9-0.4 0.9-1.1 1.6l-1.4 2.2c-1.8 2.9-4 2.9-6.8 1.1q-2.7-2.2-5.8-3.9-3-1.7-6.2-2.9-3.3-1.2-6.7-1.8-3.4-0.6-6.9-0.7c-5.3-0.1-10.5 0.9-15.4 3-4.9 2-9.4 5.1-13 8.9-3.7 3.8-6.6 8.3-8.5 13.3-1.8 4.9-2.7 10.2-2.4 15.5-0.2 5.3 0.6 10.6 2.5 15.5 1.9 5 4.8 9.5 8.5 13.3 3.7 3.7 8.2 6.7 13.1 8.8 4.9 2 10.1 3 15.4 2.9q3.9-0.1 7.7-0.8 3.8-0.7 7.4-2 3.7-1.4 7-3.4 3.3-1.9 6.2-4.5 0.7-0.7 1.7-1 1-0.4 2-0.2 1 0.2 1.8 0.8 0.8 0.7 1.2 1.6l1.4 2.1q0.5 0.8 0.8 1.7 0.2 0.9 0 1.9-0.2 1-0.7 1.8-0.5 0.8-1.3 1.3-3.8 3.1-8 5.6-4.3 2.4-8.9 4-4.6 1.7-9.4 2.5-4.8 0.8-9.7 0.8c-7 0.2-13.9-0.9-20.5-3.5-6.5-2.6-12.4-6.4-17.4-11.4-5-4.9-8.9-10.8-11.4-17.3-2.6-6.5-3.8-13.5-3.6-20.5-0.2-7 1-14 3.6-20.5 2.6-6.5 6.5-12.5 11.5-17.4 5-5 10.9-8.9 17.5-11.5 6.5-2.5 13.5-3.7 20.5-3.5zm50.8-32.6q-0.2-1.1 0.1-2 0.4-1 1.1-1.7 0.7-0.8 1.6-1.1 1-0.4 2-0.3h3.8q1.1-0.1 2 0.3 1 0.3 1.8 1 0.7 0.8 1 1.7 0.4 1 0.3 2.1v50.2q0 1.1-0.1 2.1 0 1-0.1 2-0.1 1.1-0.3 2.1-0.1 1-0.3 2h0.3c1.8-3.8 4.1-7.4 6.9-10.6 2.8-3.1 6-5.9 9.5-8.2 3.6-2.3 7.5-4 11.5-5.2 4.1-1.2 8.3-1.8 12.5-1.8 25.1 0 33.9 14.2 33.9 39v59.2c0 3.2-1.6 5-4.8 5h-3.8q-1.1 0.1-2-0.2-1-0.4-1.8-1.1-0.7-0.8-1-1.7-0.4-1-0.3-2v-55.5c0-15.9-2.4-29.9-22-29.9-21.3 0-38.1 17.4-38.1 41.8v43.7q0.1 1-0.3 2-0.3 1-1 1.7-0.8 0.7-1.8 1.1-0.9 0.3-2 0.2h-3.8q-1 0.1-2-0.2-0.9-0.4-1.6-1.1-0.7-0.8-1.1-1.7-0.3-1-0.1-2zm150.3 32.6c26.9 0 41.9 19.5 41.9 47.9q0 1-0.4 1.9-0.4 1-1.1 1.7-0.7 0.7-1.7 1.1-1 0.3-2 0.3h-72.4c0.6 25.6 18.3 40.3 39.1 40.3q3.6 0 7.1-0.6 3.6-0.7 7-1.8 3.4-1.2 6.5-2.9 3.1-1.8 6-4 0.7-0.7 1.6-1 1-0.2 2-0.1 0.9 0.2 1.7 0.8 0.8 0.6 1.2 1.5l1.7 2.5q0.5 0.7 0.7 1.7 0.2 0.9 0 1.8-0.2 1-0.8 1.7-0.5 0.8-1.3 1.3-3.6 2.8-7.6 5-4 2.1-8.3 3.6-4.3 1.5-8.8 2.3-4.5 0.8-9 0.9c-7 0.3-14-0.9-20.5-3.5-6.5-2.5-12.5-6.4-17.4-11.4-5-4.9-8.9-10.8-11.4-17.3-2.6-6.5-3.8-13.5-3.6-20.5 0-33.3 22.5-53.2 49.8-53.2zm28.3 42.9c-0.7-21.2-13.6-31.7-28.7-31.7-4.3 0-8.6 0.8-12.6 2.4-4 1.5-7.7 3.8-10.9 6.7-3.2 2.9-5.8 6.4-7.7 10.3-1.9 3.8-3.1 8-3.5 12.3zm81.7-1.4h6v-3.2c0-19.4-10.7-26.1-24.9-26.1q-3.2 0-6.4 0.5-3.2 0.5-6.3 1.4-3.1 0.9-6.1 2.2-2.9 1.3-5.7 3-0.8 0.5-1.8 0.7-0.9 0.2-1.9 0-1-0.3-1.8-0.9-0.8-0.6-1.3-1.4l-1.2-2.1q-0.6-0.8-0.8-1.7-0.3-1-0.1-2 0.2-1 0.8-1.8 0.6-0.8 1.5-1.3 3.6-2.1 7.5-3.8 3.9-1.7 7.9-2.8 4.1-1.1 8.3-1.6 4.2-0.6 8.4-0.6c23.9 0 37.5 13.4 37.5 38.7v59.8q0.2 1-0.1 2-0.3 1-1.1 1.7-0.7 0.7-1.6 1.1-1 0.3-2 0.2h-3.5q-1.1 0.2-2.1-0.2-1-0.3-1.7-1.1-0.7-0.7-1.1-1.7-0.3-1-0.2-2v-8.3q0-1 0.1-1.9 0-1 0.1-1.9 0-1 0.2-1.9 0.1-1 0.2-1.9h-0.4c-1.4 3.4-3.2 6.5-5.5 9.3-2.3 2.9-4.9 5.4-7.9 7.4-3 2.1-6.3 3.7-9.8 4.8-3.4 1.1-7 1.7-10.7 1.8-17.1 0-34.1-10-34.1-29.4 0-33.2 42.1-35 61.6-35zm-25.1 52.5c19.5 0 30.9-20.1 30.9-37.7v-4.8h-5.6c-15.9 0-47.9 0.6-47.9 23.2 0.1 9.7 7.5 19.3 22.6 19.3zm64.2-86.6q-0.1-1 0.2-1.9 0.3-1 1-1.8 0.7-0.7 1.7-1 0.9-0.4 2-0.3h3.2q1-0.1 1.9 0.2 0.9 0.3 1.6 1 0.7 0.6 1.1 1.5 0.3 1 0.2 1.9v7.3q0 0.8 0 1.7 0 0.8-0.1 1.7-0.1 0.8-0.2 1.7-0.1 0.8-0.3 1.7h0.4c1.6-3.3 3.7-6.3 6.1-9 2.5-2.6 5.3-4.9 8.4-6.8 3.1-1.9 6.5-3.3 10-4.1 3.6-0.9 7.2-1.3 10.8-1.2 27.2 0 44 21.7 44 52.9 0 31.3-19.1 53-45.4 53-3.5 0.1-6.9-0.4-10.2-1.3-3.3-0.9-6.5-2.3-9.4-4.1-3-1.8-5.6-4-8-6.6-2.3-2.5-4.2-5.3-5.8-8.4h-0.3q0.2 1.1 0.3 2.2 0.2 1.1 0.3 2.2 0.1 1.1 0.1 2.2 0.1 1.1 0.1 2.2v44.3q0.1 1-0.3 2-0.3 0.9-1 1.7-0.8 0.7-1.8 1.1-0.9 0.3-2 0.2h-3.7q-1.1 0.1-2-0.3-1-0.3-1.7-1.1-0.7-0.7-1-1.7-0.3-0.9-0.2-1.9zm45.2 85.9c17.9 0 32.7-14.8 32.7-40.4 0-24.7-13.3-40.5-31.9-40.5-16.9 0-32.8 11.9-32.8 40.6 0 20.2 11.3 40.3 32 40.3z"/>
</svg>