<?xml version="1.0" encoding="UTF-8"?> <svg xmlns="http://www.w3.org/2000/svg" xmlns:xlink="http://www.w3.org/1999/xlink" width="184.696" height="38.572" viewBox="0 0 184.696 38.572"><defs><clipPath id="clip-path"><rect id="Rectangle_8" data-name="Rectangle 8" width="184.696" height="38.572" transform="translate(0 0)" fill="none"></rect></clipPath></defs><g id="logo-nexsan" transform="translate(0 0)"><path id="Path_1" data-name="Path 1" d="M22.265.577V25.25H22.17L10.965.577H0V38H7.5V7.935h.1L21.739,38H29.77V.577Z" fill="#575b5c"></path><path id="Path_2" data-name="Path 2" d="M86.049.575,79.556,12.6,73.546.575H64.793L75.227,18.948,63.784,38H72.1l7.166-12.219L86.049,38H94.8L83.406,18.948,94.37.575Z" fill="#575b5c"></path><g id="Group_2" data-name="Group 2"><g id="Group_1" data-name="Group 1" clip-path="url(#clip-path)"><path id="Path_3" data-name="Path 3" d="M112.5,11.59c-.721-2.6-2.162-5.243-5.193-5.243a4.4,4.4,0,0,0-4.569,4.327c0,7.364,17.6,2.554,17.6,16.5,0,4.568-3.458,11.4-12.694,11.4-7.121,0-12.264-3.464-13.421-10.771l7.507-1.113c.674,3.179,2.308,5.533,5.865,5.533,2.931,0,5.384-1.537,5.384-4.756,0-7.505-17.6-3.178-17.6-15.919C95.383,4.81,101.055,0,107.55,0c6.349,0,11.107,4.09,11.736,10.39Z" fill="#575b5c"></path><path id="Path_4" data-name="Path 4" d="M136.89,7.021h-.2L132.75,22.7h8.079ZM152.423,38h-7.646l-2.458-9.381H131.26L128.807,38h-7.651L131.643.577h10.1Z" fill="#575b5c"></path><path id="Path_5" data-name="Path 5" d="M166.071.577l11.2,24.673h.1V.577H184.7V38h-7.853L162.7,7.936h-.1V38h-7.5V.577Z" fill="#575b5c"></path><rect id="Rectangle_5" data-name="Rectangle 5" width="28.344" height="7.345" transform="translate(33.692 0.718)" fill="#575b5c"></rect><rect id="Rectangle_6" data-name="Rectangle 6" width="28.344" height="7.339" transform="translate(33.692 15.61)" fill="#eeaa1f"></rect><rect id="Rectangle_7" data-name="Rectangle 7" width="28.344" height="7.34" transform="translate(33.692 30.503)" fill="#575b5c"></rect></g></g></g></svg> 