<?xml version="1.0" encoding="UTF-8"?>
<svg xmlns="http://www.w3.org/2000/svg" width="123" height="19" viewBox="0 0 123 19" fill="none">
  <g id="Logo">
    <g id="Group">
      <g id="Group_2">
        <path id="Vector" d="M50.2658 11.6839C50.2658 14.6299 48.1868 15.9002 45.8575 15.9002C43.5283 15.9002 41.4404 14.6299 41.4404 11.6839V7.42893C41.4404 6.73827 42.0007 6.17798 42.6914 6.17798H42.7002C43.3909 6.17798 43.9512 6.73827 43.9512 7.42893V11.4637C43.9512 12.956 44.7687 13.5621 45.8575 13.5621C46.9464 13.5621 47.7639 12.956 47.7639 11.4637V7.42893C47.7639 6.73827 48.3242 6.17798 49.0149 6.17798C49.7056 6.17798 50.2658 6.73827 50.2658 7.42893V11.6839Z" fill="#004A52"></path>
        <path id="Vector_2" d="M67.4094 9.72123V14.5189C67.4094 15.2096 66.8491 15.7699 66.1584 15.7699C65.4677 15.7699 64.9074 15.2096 64.9074 14.5189V10.5299C64.9074 9.18209 64.2238 8.44208 63.0892 8.44208C61.9545 8.44208 61.1158 9.14509 61.1158 10.5493V14.5189C61.1158 15.2096 60.5555 15.7699 59.8649 15.7699H59.856C59.1654 15.7699 58.6051 15.2096 58.6051 14.5189V10.5299C58.6051 9.18209 57.932 8.44208 56.7868 8.44208C55.7085 8.44208 54.8135 9.14509 54.8135 10.5493V14.5189C54.8135 15.2096 54.2532 15.7699 53.5625 15.7699H53.5537C52.863 15.7699 52.3027 15.2096 52.3027 14.5189V7.39727C52.3027 6.72246 52.8507 6.17451 53.5255 6.17451C54.2003 6.17451 54.7483 6.72246 54.7483 7.39727V7.43075C55.4125 6.43879 56.4326 6.08289 57.4916 6.08289C58.8394 6.08289 59.9459 6.68898 60.5714 7.68094C61.2938 6.49693 62.5148 6.08289 63.7375 6.08289C65.9329 6.08289 67.4146 7.55584 67.4146 9.72123H67.4094Z" fill="#004A52"></path>
        <path id="Vector_3" d="M77.8955 10.9807C77.8955 10.9807 77.8955 10.986 77.8955 10.9895C77.8955 11.4529 77.515 11.8282 77.0516 11.8282H71.2355C71.5051 13.176 72.4477 13.7627 73.6317 13.7627C74.1867 13.7627 74.7752 13.6077 75.3073 13.3275C75.7407 13.0985 76.2711 13.1778 76.6005 13.539L76.6604 13.6042C77.1291 14.1186 76.9793 14.9344 76.3627 15.2551C75.5205 15.6938 74.555 15.8982 73.4872 15.8982C70.6294 15.8982 68.6455 13.9548 68.6455 11.0177C68.6455 8.08058 70.5713 6.08081 73.3621 6.08081C76.153 6.08081 77.8867 8.07353 77.8955 10.9789V10.9807ZM71.2443 10.1138H75.3725C75.1417 8.92101 74.4193 8.2462 73.341 8.2462C72.157 8.2462 71.4646 8.95801 71.2426 10.1138H71.2443Z" fill="#004A52"></path>
        <path id="Vector_4" d="M85.5166 7.36366V7.37951C85.4144 8.00499 84.8435 8.44723 84.2145 8.37852C84.07 8.36266 83.9273 8.35385 83.7917 8.35385C82.627 8.35385 81.8289 9.189 81.8289 10.5739V14.6192C81.8289 15.3134 81.2668 15.8754 80.5726 15.8754C79.8785 15.8754 79.3164 15.3134 79.3164 14.6192V7.34956C79.3164 6.69413 79.8467 6.1638 80.5022 6.1638H80.5656C81.221 6.1638 81.7514 6.69413 81.7514 7.34956C82.3381 6.47389 83.2331 6.07922 84.3784 6.07922C84.3995 6.07922 84.4189 6.07922 84.4383 6.07922C85.1131 6.08627 85.6205 6.69413 85.5166 7.36013V7.36366Z" fill="#004A52"></path>
        <path id="Vector_5" d="M94.4109 15.8788C93.7325 15.8788 93.1828 15.3291 93.1828 14.6507V14.6278C92.5767 15.3784 91.6711 15.8982 90.3919 15.8982C87.8213 15.8982 85.8779 13.7909 85.8779 10.9895C85.8779 8.18806 87.8213 6.08081 90.3919 6.08081C91.6729 6.08081 92.5679 6.60057 93.1828 7.36172C93.1828 6.69572 93.722 6.15657 94.388 6.15657H94.4302C95.0962 6.15657 95.6354 6.69572 95.6354 7.36172V14.6507C95.6354 15.3291 95.0857 15.8788 94.4073 15.8788H94.4109ZM88.4486 10.9913C88.4486 12.4149 89.3824 13.5601 90.8553 13.5601C92.3283 13.5601 93.2621 12.4625 93.2621 10.9913C93.2621 9.52006 92.2895 8.42063 90.8553 8.42063C89.4211 8.42063 88.4486 9.56587 88.4486 10.9913Z" fill="#004A52"></path>
        <path id="Vector_6" d="M102.841 8.56535H101.019V11.9729C101.019 13.1375 101.636 13.5604 102.415 13.5604C102.69 13.5604 102.975 13.4969 103.254 13.3983C103.798 13.2045 104.402 13.4529 104.649 13.9762C104.917 14.5453 104.67 15.2271 104.094 15.4791C103.504 15.7363 102.827 15.9002 102.003 15.9002C99.6927 15.9002 98.5087 14.5911 98.5087 12.1755V8.56712H97.8251C97.2084 8.56712 96.708 8.06673 96.708 7.45006C96.708 6.8334 97.2084 6.33301 97.8251 6.33301H98.5087V4.04958C98.5087 3.35538 99.0707 2.79333 99.7649 2.79333C100.459 2.79333 101.021 3.35538 101.021 4.04958V6.33301H102.843C103.46 6.33301 103.96 6.8334 103.96 7.45006C103.96 8.06673 103.46 8.56712 102.843 8.56712L102.841 8.56535Z" fill="#004A52"></path>
        <path id="Vector_7" d="M115.303 10.9916C115.303 13.8018 113.157 15.9003 110.25 15.9003C107.342 15.9003 105.216 13.8018 105.216 10.9916C105.216 8.18132 107.353 6.08289 110.25 6.08289C113.146 6.08289 115.303 8.18132 115.303 10.9916ZM107.776 10.9916C107.776 12.5033 108.835 13.5604 110.25 13.5604C111.664 13.5604 112.732 12.5015 112.732 10.9916C112.732 9.48161 111.664 8.42094 110.25 8.42094C108.835 8.42094 107.776 9.47985 107.776 10.9916Z" fill="#004A52"></path>
        <path id="Vector_8" d="M122.989 7.40784L122.984 7.43779C122.885 8.09851 122.284 8.55837 121.618 8.4967C121.497 8.48613 121.377 8.47908 121.26 8.47908C120.096 8.47908 119.298 9.1909 119.298 10.5775V14.6229C119.298 15.3171 118.736 15.8791 118.041 15.8791C117.347 15.8791 116.785 15.3171 116.785 14.6229V7.35322C116.785 6.69251 117.321 6.15689 117.981 6.15689H118.024C118.684 6.15689 119.22 6.69251 119.22 7.35322C119.807 6.47755 120.702 6.08289 121.847 6.08289C121.852 6.08289 121.858 6.08289 121.863 6.08289C122.562 6.08465 123.091 6.71717 122.987 7.40784H122.989Z" fill="#004A52"></path>
      </g>
      <path id="Vector_9" d="M39.4527 4.08461C39.4527 3.41333 38.9082 2.8689 38.237 2.8689C37.5657 2.8689 37.0212 3.41333 37.0212 4.08461V11.282L30.2115 3.29528C30.0846 3.14552 29.926 3.0398 29.7569 2.96933C29.7481 2.9658 29.7375 2.96228 29.7287 2.95875C29.6688 2.93585 29.6089 2.91647 29.5455 2.90237C29.5208 2.89709 29.4961 2.89356 29.4732 2.89004C29.4239 2.88299 29.3728 2.87594 29.3217 2.87418C29.3058 2.87418 29.29 2.8689 29.2741 2.8689C29.2512 2.8689 29.2301 2.87418 29.2072 2.87594C29.1719 2.87771 29.1367 2.88123 29.1015 2.88652C29.0486 2.89356 28.9957 2.9059 28.9464 2.91999C28.9288 2.92528 28.9112 2.93056 28.8935 2.93585C28.8266 2.95699 28.7632 2.98518 28.7033 3.0169C28.6997 3.01866 28.6962 3.02042 28.6927 3.02218C28.3156 3.22833 28.0566 3.62476 28.0566 4.08461V14.5838C28.0566 15.2551 28.6011 15.7996 29.2724 15.7996C29.9436 15.7996 30.4881 15.2551 30.4881 14.5838V7.3741L37.3084 15.3732C37.3172 15.3837 37.3296 15.3926 37.3401 15.4031C37.3771 15.4419 37.4159 15.4789 37.4564 15.5124C37.4811 15.5335 37.504 15.5547 37.5304 15.574C37.5745 15.6057 37.6238 15.6322 37.6714 15.6568C37.6961 15.6692 37.719 15.685 37.7454 15.6974C37.8053 15.7238 37.8687 15.7432 37.9321 15.759C37.948 15.7626 37.9639 15.7714 37.9815 15.7749C38.0625 15.7925 38.1471 15.8013 38.2334 15.8013C38.3092 15.8013 38.385 15.7925 38.4607 15.7784C38.4871 15.7731 38.5118 15.7643 38.5382 15.7573C38.5858 15.7449 38.6316 15.7326 38.6774 15.715C38.7074 15.7027 38.7356 15.6886 38.7638 15.6745C38.8025 15.6551 38.8413 15.6357 38.8783 15.6128C38.9082 15.5952 38.9347 15.574 38.9629 15.5529C38.9822 15.5388 39.0034 15.5265 39.0228 15.5106C39.0351 15.5 39.0439 15.4877 39.0545 15.4771C39.0862 15.4489 39.1144 15.4172 39.1426 15.3855C39.1672 15.3573 39.1937 15.3274 39.2148 15.2974C39.2377 15.2657 39.2589 15.2322 39.2782 15.197C39.2976 15.1635 39.317 15.13 39.3346 15.0948C39.3505 15.0596 39.3628 15.0226 39.3769 14.9856C39.3892 14.9486 39.4033 14.9098 39.4122 14.871C39.421 14.834 39.4262 14.797 39.4315 14.76C39.4386 14.7177 39.4421 14.6755 39.4439 14.6314C39.4439 14.6156 39.4492 14.6015 39.4492 14.5856V4.08461H39.4527Z" fill="#004A52"></path>
    </g>
    <g id="Group_3">
      <path id="Vector_10" opacity="0.5" d="M6.70407 3.44837C6.70407 1.59661 5.20331 0.095459 3.35203 0.095459C1.50076 0.095459 0 1.59661 0 3.44837V15.3377C0 17.1895 1.50076 18.6907 3.35203 18.6907C5.20331 18.6907 6.70407 17.1895 6.70407 15.3377V3.44837Z" fill="#00E36B"></path>
      <path id="Vector_11" opacity="0.5" d="M18.6904 3.44837C18.6904 1.59661 17.1896 0.095459 15.3384 0.095459C13.4871 0.095459 11.9863 1.59661 11.9863 3.44837V15.3377C11.9863 17.1895 13.4871 18.6907 15.3384 18.6907C17.1896 18.6907 18.6904 17.1895 18.6904 15.3377V3.44837Z" fill="#00E36B"></path>
      <path id="Vector_12" d="M17.7094 17.7094C16.4003 19.0185 14.2772 19.0185 12.9681 17.7094L0.981825 5.72313C-0.327275 4.41403 -0.327275 2.29092 0.981825 0.981825C2.29092 -0.327275 4.41403 -0.327275 5.72313 0.981825L17.7094 12.9681C19.0185 14.2772 19.0185 16.4003 17.7094 17.7094ZM18.6908 3.4485C18.6908 1.59673 17.1896 0.0955836 15.3379 0.0955836C13.4861 0.0955836 11.985 1.59673 11.985 3.4485C11.985 5.30027 13.4861 6.80141 15.3379 6.80141C17.1896 6.80141 18.6908 5.30027 18.6908 3.4485ZM6.70451 15.3396C6.70451 13.4879 5.20336 11.9867 3.35159 11.9867C1.50159 11.9867 0.000440425 13.4879 0.000440425 15.3396C0.000440425 17.1914 1.50159 18.6925 3.35336 18.6925C5.20512 18.6925 6.70627 17.1914 6.70627 15.3396H6.70451Z" fill="#00E36B"></path>
    </g>
  </g>
</svg>
