<?xml version="1.0" encoding="UTF-8"?>
<svg id="Logo" xmlns="http://www.w3.org/2000/svg" viewBox="0 0 293 180">
  <defs>
    <style>
      .cls-1 {
        fill: #ff443a;
        stroke-width: 0px;
      }
    </style>
  </defs>
  <path id="QNX" class="cls-1" d="M109.96,105.63l-11.26-11.23-4.38,4.37,11.45,11.42,3.89,3.88,5.94,5.93,4.4-4.36-5.95-5.94-4.09-4.08ZM90,114.92c-14.2,0-23.98-10.72-23.98-24.92s9.78-24.92,23.98-24.92,23.98,10.72,23.98,24.92c0,3.59-.64,6.99-1.81,10.02l4.35,4.34c2.24-4.25,3.48-9.17,3.48-14.36,0-16.58-12.58-30-30-30s-30,13.42-30,30,12.58,30,30,30c5.3,0,10.14-1.25,14.32-3.45l-3.88-3.87c-3.09,1.43-6.6,2.24-10.44,2.24ZM170,61h6v58h-8.45l-32.55-50.54v50.54h-6v-58h8.42l32.58,50.55v-50.55ZM219.29,99.69l-6.89-9.7,6.89-9.7,13.69-19.29h-7.37l-9.46,13.32-8.65,12.19-8.65-12.19-9.46-13.32h-7.37l13.69,19.29,6.89,9.7-6.89,9.7-13.71,19.31h7.37l9.48-13.35,8.65-12.19,8.65,12.19,9.48,13.35h7.37l-13.71-19.31Z"/>
</svg>