<svg version="1.1" id="Layer_1" xmlns:x="ns_extend;" xmlns:i="ns_ai;" xmlns:graph="ns_graphs;" xmlns="http://www.w3.org/2000/svg" xmlns:xlink="http://www.w3.org/1999/xlink" x="0px" y="0px" viewBox="0 0 66 86.2" style="enable-background:new 0 0 66 86.2;" xml:space="preserve">
 <style type="text/css">
  .st0{fill:#0059B3;}
	.st1{fill:#FFFFFF;}
	.st2{fill:#FFDF01;}
 </style>
 <metadata>
  <sfw xmlns="ns_sfw;">
   <slices>
   </slices>
   <sliceSourceBounds bottomLeftOrigin="true" height="86.2" width="66" x="-31.2" y="0">
   </sliceSourceBounds>
  </sfw>
 </metadata>
 <g>
  <path class="st0" d="M65.1,74.9c0,2.8-1.1,4.3-3.4,5.3C53,83.5,42.8,85.2,33,85.2s-20-1.7-28.7-5.1c-2.3-0.9-3.4-2.5-3.4-5.3V0.9
		h64.1V74.9">
  </path>
  <g>
   <path class="st1" d="M33,86.2c-10.2,0-20.5-1.8-29-5.2c-2.7-1.1-4-3.1-4-6.2V0h66v74.9c0,3.1-1.3,5-4,6.1
			C53.5,84.3,43.2,86.2,33,86.2z M1.9,1.9v73c0,2.3,0.8,3.6,2.8,4.4c8.3,3.2,18.3,5,28.3,5s20-1.8,28.3-5c2-0.8,2.8-2.1,2.8-4.4v-73
			H1.9z">
   </path>
  </g>
  <path class="st2" d="M18.1,46C9.2,40.5,6.2,38.1,6,34.3c0-0.8,0.2-2.1,0.4-2.8l-0.8-0.6c-0.8,1.1-1.1,2.5-1.1,3.8
		c0,2.1,0.8,3.8,1.5,4.9c1.3,1.9,2.6,3.2,5.8,5.5c3.4,2.6,5.8,5.7,7.2,8.9h0.6v-3.6c4.7,2.6,8.9,5.1,10.9,9.6h0.6
		C30.2,55.4,27.5,51.9,18.1,46 M44.1,33.9c-1.9,0.9-3.2,2.1-4.5,3.8l4-0.2C43.7,35.6,43.9,34.5,44.1,33.9z M58.5,48.1
		c0.4-0.9,0.8-2.1,0.8-3l-5.8-0.4c-0.2,1.5-0.6,2.8-1.1,4.1C52.2,48.8,58.5,48.1,58.5,48.1z M52.2,33.6c0.4,1.1,0.8,2.3,0.9,3.2
		l3.4-0.2C55.4,35.3,53.9,34.3,52.2,33.6z M50.7,37c-0.4-1.3-0.9-2.8-1.7-4.1h-1.9c-0.6,1.3-0.9,2.8-1.3,4.3
		C45.8,37.1,50.7,37,50.7,37z M53.6,38.8c0.2,1.5,0.2,2.8,0.2,4.1l5.7-0.4c-0.2-1.3-0.6-2.5-1.1-3.6L53.6,38.8z M51.7,43
		c0-1.5-0.2-2.8-0.6-4.3l-5.7-0.2c-0.4,1.7-0.6,3.4-0.8,4.9C44.7,43.4,51.7,43,51.7,43z M52.4,30.9l0.8-0.9l-0.9-1.3l0.2-0.4
		l2.8,1.5l-0.6,1.9c0.4,0.2,0.9,0.6,1.5,0.9l1.9-3l-4.7-2.5H42.8l-8.7,5.1c1.7,1.1,3,2.3,4.1,3.6c2.3-3.4,6.4-5.5,10.4-5.5
		C49.6,30.4,51.1,30.5,52.4,30.9z M31.1,30.7l4.7-2.8c-0.9-0.6-2.1-0.8-3.2-0.8c-1.7,0-4.3,0.8-5.7,0.9
		C27.5,28.5,29.8,29.8,31.1,30.7z M32.2,20c-1.7-0.4-2.6-0.2-3.6,0.8c0.6,0.2,1.1,0.4,1.7,0.4C31.3,20.9,31.9,20.4,32.2,20z
		 M59,60.2h-0.6c0-3.4-3-4.1-6.2-4.1h-10c0.4,1.7,0.4,3.6,0.2,5.3h-0.6c-0.9-7.4-5.1-11.1-10.9-15.1v3.4h-0.6
		c-1.5-3.6-4.9-6.8-8.3-9.1l-2.6-1.9v3.6h-0.6c-1.3-3.6-4-6.4-7.4-9.6c-3.8-3.4-5.5-5.5-6.2-7.9c-0.6-1.5-0.8-2.6-0.8-4.1
		c0-2.8,1.3-5.5,3.2-6.4v1.3c-0.9,1.1-1.3,2.6-1.3,4.1c0,1.3,0.4,3,0.9,4.3c2.3,4.1,9.4,9.2,14.1,12.3C36,45.8,38.8,47.5,41.3,52.8
		c0.2,0.6,0.6,1.3,0.8,2.3c2.1-0.4,9.6-1.5,11.1-1.7c0.2,0,0.8-0.2,1.1-0.2c1.3-0.8,2.3-1.9,3.2-3.2L52,49.6
		c-0.2,0.6-0.6,1.1-0.8,1.5h-0.4c0.2-0.6,0.2-1.1,0.4-1.7l-1.5-0.2v-0.4l1.5-0.2c0.4-1.5,0.4-3,0.4-4.3l-7-0.4V46h-0.4
		c-0.2-0.8-0.2-1.3-0.4-2.1h-1.5v-0.4h1.5c-0.2-1.7-0.2-3.4-0.2-5.1l-4.1-0.2l0.6,1.1c0.9,2.5,0.8,5.3,0.4,6.6H40
		c0-1.5-0.6-3.4-1.1-4.5c-1.1-2.6-3.6-5.1-7.9-7.7v3.4h-0.6c-1.3-4.5-4.9-7-10.2-9.6c-4.3-2.3-5.7-4.9-5.5-9.1l1.5,0.9
		c0.4,3.8,3.4,6,6.4,6c1.9,0,3.6-0.2,5.3-0.6c2.5-0.6,4.5-0.9,6.4-0.2v-2.3h-1.5c-0.6,0.4-1.5,0.9-3,0.9c-1.7,0-4.9-0.9-4.9-4.5
		c0-3.2,2.6-3.6,4.7-3.6h3.8c0.6,0,0.8-0.2,1.1-0.4c0.2-0.2,0.4-0.6,0.4-0.8v-4h-10v4l-3.8-1.5v-0.9H23v-1.5h-6.6V7h-2.3
		c-1.3,0-2.6,0.8-2.8,2.5c0,1.7,0.6,3,2.3,3H14v1.9h-0.4c-2.8,0-5.1-2.1-5.1-5.1S10.9,4,14.1,4H19v3.2h18.9v4.9c0,0.8,0,1.9-0.2,2.6
		c0,0.6-0.2,1.3-1.1,2.1c-0.6,0.4-1.5,0.6-2.8,0.6c-1.1,0-2.3,0-3.4-0.2c-2.1-0.2-2.8,0.8-2.8,1.5v0.6c0.9-0.8,2.5-1.3,4-0.8
		c2.8,0.9,3.6,0.9,5.1-0.2l0.2,0.4c-0.2,0.2-0.4,0.6-0.9,0.9h1.3v7.5l4.3-2.6h12.1l5.8,3c0.8,0.4,0.9,0.9,1.1,1.5
		c0,0.6,0,1.3-0.4,1.7c-0.2,0.4-1.5,2.6-2.3,3.8c2.3,2.5,3.4,5.5,3.4,8.7c0,3.2-1.1,7.2-4.9,10.2c1.5,0.4,2.6,1.3,3.6,2.6L59,60.2">
  </path>
  <path class="st1" d="M33.4,76.2h-2.3v-6.6h2.3c3,0,4.1,0.9,4.1,3.2C37.3,75.1,35.8,76.2,33.4,76.2z M33.2,63.2c1.9,0,3,0.4,3,2.3
		c0,2.1-1.7,2.6-3.6,2.6h-1.7v-4.9C30.9,63.2,33.2,63.2,33.2,63.2z M36.8,68.6c1.7-0.2,3.2-1.5,3.2-3.4c0-1.7-0.8-3.6-5.8-3.6h-8.5
		v0.2c0.2,0,0.8,0.4,0.9,0.6c0.6,0.6,0.8,1.3,0.8,2.5v12.8h7c4,0,6.6-1.5,6.6-4.9C41.1,70,39,68.8,36.8,68.6 M12.8,63.2h2.5
		c2.1,0,3.2,0.6,3.2,2.8c0,1.9-1.3,3.2-3.6,3.2H13v-6H12.8z M19.4,77.7h4.5l-5.8-7.5c2.3-0.6,4.1-1.9,4.1-4.3c0-2.8-1.7-4.1-5.8-4.1
		H7.4v0.2c0.4,0.2,0.8,0.4,0.9,0.6c0.6,0.6,0.8,1.5,0.8,2.8v12.4h3.8v-7.2h1.3L19.4,77.7 M56,63.9c0.9,0.6,1.3,1.3,1.3,1.3h0.2
		l0.8-2.6c0,0-1.5-0.9-4.9-0.9c-5.3,0-9.1,2.6-9.1,8.3c0,6.4,4.7,8.1,8.7,8.1c3.8,0,5.3-1.1,5.3-1.1v-1.9c0,0-1.3,1.3-4.1,1.3
		c-2.5,0-5.8-1.1-5.8-6.4c0-4.9,2.1-6.4,4.9-6.4C54.7,63.2,55.4,63.5,56,63.9">
  </path>
 </g>
</svg>