<?xml version="1.0" encoding="UTF-8"?>
<svg width="182px" height="36px" viewBox="0 0 182 36" version="1.1" xmlns="http://www.w3.org/2000/svg" xmlns:xlink="http://www.w3.org/1999/xlink">
    <!-- Generator: Sketch 53.1 (72631) - https://sketchapp.com -->
    <title>rd-logo</title>
    <desc>Created with Sketch.</desc>
    <g id="Page-1" stroke="none" stroke-width="1" fill="none" fill-rule="evenodd">
        <g id="rd-logo">
            <path d="M12.5976955,9.08892515 C13.3506955,9.10092515 13.9966955,8.53192515 14.0146955,7.83992515 C14.0326955,7.11492515 13.4186955,6.48092515 12.6996955,6.48092515 C11.9246955,6.48192515 11.3556955,7.02492515 11.3396955,7.77892515 C11.3246955,8.50092515 11.8786955,9.07692515 12.5976955,9.08892515 L12.5976955,9.08892515 Z M6.60469553,13.4369251 C4.88269553,12.7019251 3.48769553,11.5209251 2.20269553,10.2059251 C1.78469553,9.77692515 1.43069553,9.26592515 1.13669553,8.74192515 C0.678695534,7.92692515 1.00669553,7.07592515 1.89569553,6.76992515 C2.62069553,6.52092515 3.37369553,6.33992515 4.12569553,6.17492515 C5.04669553,5.97192515 5.73169553,5.50492515 6.20669553,4.67092515 C7.30569553,2.73992515 8.84969553,1.26992515 10.9726955,0.546925148 C13.8516955,-0.432074852 16.6266955,-0.136074852 19.0566955,1.75392515 C21.4266955,3.59792515 22.2986955,6.12092515 21.9226955,9.08792515 C21.8886955,9.35792515 21.8906955,9.63092515 21.8636955,10.1409251 C23.0196955,9.77992515 24.0606955,9.50392515 25.0656955,9.12892515 C26.0916955,8.74592515 27.0636955,8.22292515 28.0896955,7.84092515 C30.0146955,7.12392515 31.5396955,7.75492515 32.4126955,9.62692515 C33.2376955,11.3969251 33.3346955,13.2859251 33.1176955,15.1889251 C32.4996955,20.5979251 30.0126955,24.9999251 25.8516955,28.4749251 C25.4496955,28.8109251 24.9866955,29.0739251 24.5026955,29.2989251 C25.1396955,28.4689251 25.8276955,27.6699251 26.4026955,26.7979251 C27.1156955,25.7189251 27.8246955,24.6199251 28.3756955,23.4539251 C29.3576955,21.3779251 30.0086955,19.1829251 30.2616955,16.8899251 C30.3396955,16.1729251 30.3776955,15.4419251 30.3286955,14.7239251 C30.2646955,13.8009251 29.8046955,13.5239251 28.9066955,13.7329251 C26.6826955,14.2499251 24.4646955,14.7909251 22.2316955,15.2639251 C20.8196955,15.5639251 19.3666955,15.6819251 17.9646955,16.0199251 C15.9546955,16.5049251 14.3296955,17.6649251 12.9836955,19.2179251 C12.9036955,19.3109251 12.9196955,19.4879251 12.8596955,19.7819251 C13.3396955,19.4189251 13.6886955,19.1619251 14.0306955,18.8949251 C16.1316955,17.2459251 18.6136955,16.8069251 21.1826955,16.5839251 C23.5266955,16.3789251 25.8636955,16.0899251 28.2026955,15.8419251 C28.2686955,15.8349251 28.3386955,15.8589251 28.6096955,15.8959251 C28.4246955,16.9709251 28.3606955,18.0679251 28.0396955,19.0859251 C26.7106955,23.3029251 24.3316955,26.8119251 20.6886955,29.3779251 C18.3466955,31.0279251 15.7196955,31.9209251 12.8406955,32.0019251 C10.0216955,32.0809251 7.29069553,31.6749251 4.76169553,30.3599251 C3.22369553,29.5599251 1.96569553,28.4429251 1.14769553,26.8729251 C-0.681304466,23.3609251 -0.285304466,20.0619251 2.05769553,16.9369251 C3.04369553,15.6219251 4.33269553,14.6989251 5.82169553,14.0359251 C6.09769553,13.9129251 6.36869553,13.7779251 6.64269553,13.6499251 L6.60469553,13.4369251 Z" id="Fill-1" fill="#FFC424"></path>
            <path d="M48.3954955,15.2129251 C48.3954955,14.0689251 48.0324955,13.1729251 47.3054955,12.5239251 C46.5804955,11.8749251 45.5894955,11.5499251 44.3354955,11.5499251 L44.2374955,11.5829251 L44.0054955,11.5829251 C43.8954955,11.5829251 43.7694955,11.5889251 43.6264955,11.5999251 C43.4834955,11.6099251 43.3074955,11.6209251 43.0984955,11.6329251 C42.8894955,11.6439251 42.6864955,11.6489251 42.4884955,11.6489251 L42.3234955,11.6489251 L42.3234955,18.8429251 C42.8514955,18.9529251 43.3684955,19.0079251 43.8744955,19.0079251 C45.3034955,19.0079251 46.4154955,18.6779251 47.2074955,18.0179251 C47.9994955,17.3579251 48.3954955,16.4229251 48.3954955,15.2129251 M54.6984955,29.5679251 C54.6984955,30.0299251 53.6534955,30.2609251 51.5634955,30.2609251 C50.2874955,30.2609251 49.4614955,30.0409251 49.0874955,29.6009251 L48.6594955,29.0729251 L42.3234955,22.2089251 L42.3234955,28.8749251 C42.3234955,29.4909251 42.2354955,29.8549251 42.0594955,29.9639251 C41.8384955,30.1399251 41.1674955,30.2279251 40.0454955,30.2279251 C38.9024955,30.2279251 38.2194955,30.1399251 37.9994955,29.9639251 C37.8454955,29.8759251 37.7694955,29.5459251 37.7694955,28.9739251 L37.7694955,12.3749251 C37.7694955,11.4949251 37.6694955,10.7699251 37.4714955,10.1969251 C37.3614955,9.86692515 37.3074955,9.65792515 37.3074955,9.56992515 C37.3074955,8.93192515 37.6914955,8.49192515 38.4614955,8.24992515 C39.3414955,8.02992515 40.8374955,7.91992515 42.9504955,7.91992515 C46.2714955,7.91992515 48.7034955,8.48092515 50.2434955,9.60292515 C51.9364955,10.8569251 52.7844955,12.6279251 52.7844955,14.9159251 C52.7844955,16.5879251 52.2664955,18.0289251 51.2334955,19.2389251 C50.2434955,20.4719251 48.9444955,21.1859251 47.3384955,21.3839251 L53.9714955,28.4789251 C54.4564955,28.9849251 54.6984955,29.3489251 54.6984955,29.5679251" id="Fill-3" fill="#313132"></path>
            <path d="M58.6239955,20.7568251 L65.3229955,20.7568251 C65.2579955,19.8988251 64.9279955,19.2058251 64.3329955,18.6778251 C63.7389955,18.1508251 63.0139955,17.8858251 62.1549955,17.8858251 C61.1439955,17.8858251 60.2959955,18.2048251 59.6139955,18.8428251 C59.1739955,19.2828251 58.8439955,19.9208251 58.6239955,20.7568251 M69.6459955,22.0768251 C69.6459955,22.7368251 69.4479955,23.1328251 69.0529955,23.2648251 C68.8539955,23.3308251 68.5349955,23.3638251 68.0959955,23.3638251 L58.3269955,23.3638251 C58.4599955,24.5518251 58.9329955,25.4868251 59.7459955,26.1688251 C60.5819955,26.8518251 61.6599955,27.1928251 62.9799955,27.1928251 C64.1689955,27.1928251 65.2899955,26.9278251 66.3469955,26.4008251 L67.6009955,25.7728251 C67.8639955,25.6628251 68.0289955,25.6078251 68.0959955,25.6078251 C68.4699955,25.6078251 68.6559955,25.9048251 68.6559955,26.4988251 C68.6559955,27.1148251 68.5789955,27.6978251 68.4259955,28.2478251 C68.2489955,28.8868251 67.5779955,29.4358251 66.4119955,29.8978251 C65.2249955,30.3378251 63.9259955,30.5578251 62.5189955,30.5578251 C60.0549955,30.5578251 58.0089955,29.8108251 56.3809955,28.3138251 C54.7739955,26.7958251 53.9719955,24.8818251 53.9719955,22.5718251 C53.9719955,20.3278251 54.7519955,18.4248251 56.3139955,16.8628251 C57.8759955,15.3008251 59.7689955,14.5198251 61.9899955,14.5198251 C64.1459955,14.5198251 65.9609955,15.2458251 67.4359955,16.6978251 C68.9089955,18.1508251 69.6459955,19.9438251 69.6459955,22.0768251" id="Fill-5" fill="#313132"></path>
            <path d="M80.9335955,26.5976251 L80.9335955,23.8916251 C79.9435955,23.0996251 78.8215955,22.7036251 77.5675955,22.7036251 C76.7755955,22.7036251 76.1255955,22.9236251 75.6205955,23.3646251 C75.1355955,23.8266251 74.8945955,24.4096251 74.8945955,25.1136251 C74.8945955,25.8386251 75.1585955,26.4326251 75.6865955,26.8946251 C76.2135955,27.3566251 76.8845955,27.5876251 77.6995955,27.5876251 C78.8425955,27.5876251 79.9205955,27.2576251 80.9335955,26.5976251 M85.7845955,29.1716251 C85.7845955,29.3696251 85.6525955,29.5356251 85.3875955,29.6666251 C84.9925955,29.8656251 84.4635955,30.0406251 83.8035955,30.1956251 C83.0345955,30.3706251 82.5605955,30.4586251 82.3845955,30.4586251 C81.7465955,30.4586251 81.2955955,30.0406251 81.0325955,29.2046251 C79.9315955,30.1076251 78.4475955,30.5576251 76.5775955,30.5576251 C74.7065955,30.5576251 73.2215955,30.0746251 72.1215955,29.1056251 C70.9995955,28.1166251 70.4395955,26.8286251 70.4395955,25.2446251 C70.4395955,23.6826251 71.0105955,22.3966251 72.1555955,21.3836251 C73.3425955,20.3936251 74.8715955,19.8986251 76.7425955,19.8986251 C78.1945955,19.8986251 79.5905955,20.3066251 80.9335955,21.1196251 L80.9335955,19.5356251 C80.9335955,18.0626251 80.0195955,17.3256251 78.1945955,17.3256251 C76.8295955,17.3256251 75.4545955,17.6656251 74.0695955,18.3476251 L73.7725955,18.4796251 C73.6835955,18.5246251 73.5955955,18.5686251 73.5075955,18.6126251 L73.3105955,18.7106251 C73.2655955,18.7336251 73.2325955,18.7436251 73.2105955,18.7436251 C73.0355955,18.8316251 72.8805955,18.8756251 72.7485955,18.8756251 C72.3745955,18.8756251 72.0785955,18.6016251 71.8585955,18.0506251 C71.6815955,17.6326251 71.5935955,17.2146251 71.5935955,16.7966251 C71.5935955,16.4456251 71.6705955,16.1696251 71.8255955,15.9716251 C71.9785955,15.7736251 72.2975955,15.5866251 72.7825955,15.4106251 C74.7175955,14.7066251 76.6645955,14.3546251 78.6225955,14.3546251 C80.6905955,14.3546251 82.2965955,14.7176251 83.4415955,15.4446251 C84.5845955,16.1926251 85.1575955,17.4566251 85.1575955,19.2396251 L85.1575955,25.9376251 C85.1575955,27.0816251 85.2775955,27.8966251 85.5205955,28.3796251 C85.6965955,28.7536251 85.7845955,29.0186251 85.7845955,29.1716251" id="Fill-7" fill="#313132"></path>
            <path d="M92.2186955,8.44822515 L92.2186955,28.8082251 C92.2186955,29.4692251 92.1086955,29.8762251 91.8886955,30.0302251 C91.6906955,30.1622251 91.0736955,30.2272251 90.0406955,30.2272251 C89.0946955,30.2272251 88.5116955,30.1622251 88.2916955,30.0302251 C88.0936955,29.8972251 87.9946955,29.4912251 87.9946955,28.8082251 L87.9946955,11.6482251 C87.9946955,11.0992251 87.9166955,10.4942251 87.7636955,9.83422515 C87.6976955,9.57022515 87.6646955,9.38322515 87.6646955,9.27222515 C87.6646955,8.94322515 87.8406955,8.65722515 88.1926955,8.41522515 C88.6546955,8.12922515 89.5566955,7.75522515 90.8986955,7.29322515 C91.2726955,7.18222515 91.5036955,7.12822515 91.5916955,7.12822515 C92.0096955,7.12822515 92.2186955,7.56822515 92.2186955,8.44822515" id="Fill-9" fill="#313132"></path>
            <path d="M108.717796,18.9746251 C108.717796,16.7306251 108.069796,14.9386251 106.771796,13.5956251 C105.494796,12.2536251 103.756796,11.5826251 101.556796,11.5826251 C100.962796,11.5826251 100.368796,11.6266251 99.7757955,11.7146251 L99.7757955,26.5646251 L99.8407955,26.5646251 C100.390796,26.6306251 100.897796,26.6636251 101.359796,26.6636251 C103.624796,26.6636251 105.417796,25.9706251 106.738796,24.5846251 C108.057796,23.1996251 108.717796,21.3286251 108.717796,18.9746251 M113.404796,19.0076251 C113.404796,22.3736251 112.292796,25.1136251 110.071796,27.2246251 C107.870796,29.3156251 104.692796,30.3606251 100.533796,30.3606251 C98.4437955,30.3606251 96.9917955,30.2056251 96.1777955,29.8976251 C95.8697955,29.7656251 95.6387955,29.5896251 95.4857955,29.3706251 C95.3087955,29.0836251 95.2207955,28.4466251 95.2207955,27.4556251 L95.2207955,12.8706251 C95.2207955,11.9676251 95.0997955,11.0666251 94.8587955,10.1636251 C94.7917955,9.92162515 94.7587955,9.71262515 94.7587955,9.53662515 C94.7587955,8.96462515 95.2207955,8.54662515 96.1457955,8.28362515 C97.1137955,8.04062515 98.6967955,7.91962515 100.897796,7.91962515 C105.098796,7.91962515 108.211796,8.92062515 110.236796,10.9226251 C112.347796,12.9916251 113.404796,15.6866251 113.404796,19.0076251" id="Fill-11" fill="#313132"></path>
            <path d="M119.640596,20.7568251 L126.339596,20.7568251 C126.274596,19.8988251 125.944596,19.2058251 125.349596,18.6778251 C124.755596,18.1508251 124.030596,17.8858251 123.171596,17.8858251 C122.160596,17.8858251 121.312596,18.2048251 120.630596,18.8428251 C120.190596,19.2828251 119.860596,19.9208251 119.640596,20.7568251 M130.662596,22.0768251 C130.662596,22.7368251 130.464596,23.1328251 130.069596,23.2648251 C129.870596,23.3308251 129.551596,23.3638251 129.112596,23.3638251 L119.343596,23.3638251 C119.476596,24.5518251 119.949596,25.4868251 120.762596,26.1688251 C121.598596,26.8518251 122.676596,27.1928251 123.996596,27.1928251 C125.185596,27.1928251 126.306596,26.9278251 127.363596,26.4008251 L128.617596,25.7728251 C128.880596,25.6628251 129.045596,25.6078251 129.112596,25.6078251 C129.486596,25.6078251 129.672596,25.9048251 129.672596,26.4988251 C129.672596,27.1148251 129.595596,27.6978251 129.442596,28.2478251 C129.265596,28.8868251 128.594596,29.4358251 127.428596,29.8978251 C126.241596,30.3378251 124.942596,30.5578251 123.535596,30.5578251 C121.071596,30.5578251 119.025596,29.8108251 117.397596,28.3138251 C115.790596,26.7958251 114.988596,24.8818251 114.988596,22.5718251 C114.988596,20.3278251 115.768596,18.4248251 117.330596,16.8628251 C118.892596,15.3008251 120.785596,14.5198251 123.006596,14.5198251 C125.162596,14.5198251 126.977596,15.2458251 128.452596,16.6978251 C129.925596,18.1508251 130.662596,19.9438251 130.662596,22.0768251" id="Fill-13" fill="#313132"></path>
            <path d="M146.371096,26.2676251 C146.371096,27.2136251 146.019096,28.2376251 145.315096,29.3366251 C145.139096,29.6226251 144.853096,29.8316251 144.457096,29.9636251 C143.335096,30.3606251 142.136096,30.5576251 140.860096,30.5576251 C138.286096,30.5576251 136.196096,29.8216251 134.591096,28.3466251 C132.962096,26.8726251 132.148096,24.9696251 132.148096,22.6376251 C132.148096,20.2616251 132.962096,18.3266251 134.591096,16.8296251 C136.196096,15.2896251 138.265096,14.5196251 140.794096,14.5196251 C142.686096,14.5196251 144.105096,14.8286251 145.052096,15.4446251 C145.689096,15.8396251 146.009096,16.7866251 146.009096,18.2826251 C146.009096,18.9426251 145.788096,19.2716251 145.349096,19.2716251 C145.172096,19.2716251 144.743096,19.0846251 144.061096,18.7106251 C143.115096,18.1616251 142.147096,17.8856251 141.157096,17.8856251 C139.815096,17.8856251 138.748096,18.2926251 137.956096,19.1066251 C137.164096,19.9436251 136.768096,21.0536251 136.768096,22.4396251 C136.768096,23.8476251 137.175096,24.9696251 137.989096,25.8056251 C138.803096,26.6426251 139.892096,27.0596251 141.257096,27.0596251 C142.466096,27.0596251 143.709096,26.6866251 144.985096,25.9376251 C145.315096,25.7406251 145.579096,25.6406251 145.777096,25.6406251 C146.174096,25.6406251 146.371096,25.8506251 146.371096,26.2676251" id="Fill-15" fill="#313132"></path>
            <path d="M160.033196,22.5390251 C160.033196,21.2640251 159.615196,20.1850251 158.779196,19.3050251 C157.921196,18.4250251 156.887196,17.9850251 155.677196,17.9850251 C154.467196,17.9850251 153.433196,18.4140251 152.575196,19.2710251 C151.717196,20.1740251 151.288196,21.2410251 151.288196,22.4730251 C151.288196,23.7710251 151.706196,24.8710251 152.542196,25.7720251 C153.400196,26.6530251 154.445196,27.0930251 155.677196,27.0930251 C156.887196,27.0930251 157.921196,26.6640251 158.779196,25.8060251 C159.615196,24.9040251 160.033196,23.8150251 160.033196,22.5390251 M164.455196,22.5390251 C164.455196,25.0030251 163.663196,26.9610251 162.079196,28.4130251 C160.472196,29.8430251 158.339196,30.5580251 155.677196,30.5580251 C152.993196,30.5580251 150.859196,29.8430251 149.275196,28.4130251 C147.691196,27.0050251 146.899196,25.0910251 146.899196,22.6710251 C146.899196,20.0970251 147.679196,18.1060251 149.242196,16.6980251 C150.782196,15.2460251 152.938196,14.5190251 155.710196,14.5190251 C158.372196,14.5190251 160.495196,15.2460251 162.079196,16.6980251 C163.663196,18.1280251 164.455196,20.0750251 164.455196,22.5390251" id="Fill-17" fill="#313132"></path>
            <path d="M181.978496,15.2461251 C181.978496,15.3561251 181.945496,15.4551251 181.878496,15.5431251 L181.548496,16.2361251 L173.728496,34.1221251 C173.419496,34.8481251 173.144496,35.3091251 172.903496,35.5081251 C172.682496,35.6831251 172.308496,35.7711251 171.781496,35.7711251 L169.503496,35.7711251 C168.975496,35.7711251 168.711496,35.5961251 168.711496,35.2441251 C168.711496,35.0461251 168.799496,34.7821251 168.975496,34.4521251 L171.121496,30.1291251 L165.082496,15.5761251 C165.038496,15.4001251 165.015496,15.3011251 165.015496,15.2791251 C165.015496,14.9051251 165.800496,14.7181251 167.370496,14.7181251 C168.573496,14.7181251 169.255496,14.9861251 169.418496,15.5221251 L169.627496,16.0791251 L173.284496,25.7841251 L176.960496,16.0891251 C177.212496,15.4421251 177.579496,15.0301251 178.060496,14.8511251 C178.426496,14.7631251 178.999496,14.7181251 179.779496,14.7181251 C181.245496,14.7181251 181.978496,14.8941251 181.978496,15.2461251" id="Fill-19" fill="#313132"></path>
        </g>
    </g>
</svg>