<?xml version="1.0" encoding="UTF-8"?>
<svg id="Layer_1" data-name="Layer 1" xmlns="http://www.w3.org/2000/svg" xmlns:xlink="http://www.w3.org/1999/xlink" viewBox="0 0 485.87 158.3">
  <defs>
    <style>
      .cls-1 {
        stroke-linecap: round;
        stroke-linejoin: round;
        stroke-width: 4px;
      }

      .cls-1, .cls-2 {
        stroke: #fff;
      }

      .cls-1, .cls-2, .cls-3 {
        fill: #fff;
      }

      .cls-4 {
        fill: #d0cfce;
      }

      .cls-2 {
        stroke-miterlimit: 10;
      }

      .cls-5 {
        filter: url(#drop-shadow-1);
      }

      .cls-6 {
        fill: #231f20;
      }

      .cls-7 {
        fill: #bf6128;
      }

      .cls-8 {
        fill: #e97a26;
      }
    </style>
    <filter id="drop-shadow-1" x="-3.87" y="-3.49" width="499" height="168" filterUnits="userSpaceOnUse">
      <feOffset dx="7" dy="7"/>
      <feGaussianBlur result="blur" stdDeviation="5"/>
      <feFlood flood-color="#000" flood-opacity=".75"/>
      <feComposite in2="blur" operator="in"/>
      <feComposite in="SourceGraphic"/>
    </filter>
  </defs>
  <g class="cls-5">
    <path class="cls-1" d="M470.37,21.4l-37.37,5.05-4.5,21.11c-1.3-.18-2.7-.27-4.2-.27-9.52,0-18.22,3.9-25.22,11.16-3.17-7.44-10.51-11.67-20.95-11.67-8.61,0-15.83,2.69-21.74,7.04-12.44,6.35-9.67,5.82-11.89,3.92-1.88-1.61-1.04-9.25-1-13.51.01-1.58.14-3.17.52-4.7.44-1.77.67-3.53.67-5.26,0-9.97-7.13-17.21-16.96-17.21h-9v2.36c-1.53.86-2.92,1.95-4.12,3.2l-26.58,3.59-1.18,5.51c-3.15-6.11-9.51-10.31-16.85-10.31-10.38,0-18.83,8.51-18.83,18.96,0,2.69.57,5.24,1.59,7.55h-32.45c-1.83-.4-3.89-.62-6.19-.62-.74,0-1.48.03-2.21.08,6.5-4.02,10.24-11.26,10.47-20.98l.32-13.72-12.71,5.18c-2.2.9-6.41,1.94-11.04,1.94-5.08,0-8.63-.56-12.74-1.21-4.92-.77-10.49-1.65-19.12-1.65-16.56,0-29.59,4.12-38.72,12.24-6.22,5.53-10.31,12.81-11.93,21.02h-15.83l1.33-1.34v-2.31c.63-2.36.75-4.9.34-7.43-.25-1.54-.86-2.98-1.77-4.24-1.21-2.03-3.1-3.58-5.38-4.37-2.29-.8-4.53-1.19-6.51-1.54-1.58-.28-3.98-.7-4.54-1.18-.18-.15-.36-.3-.55-.44-.03-.04-.06-.08-.08-.11-.7-.93-1.42-1.85-2.18-2.79-.92-1.13-2.05-2.45-3.68-3.65-.56-.42-1.17-.79-1.81-1.12-.15-.08-.3-.15-.46-.23-.52-.74-1.13-1.4-1.84-1.98-5.01-4.08-10.62-7.26-16.75-9.48-1.03-.36-2.12-.55-3.21-.55-1.45,0-2.91.33-4.26.97-.49.23-.95.5-1.39.81-.28-.02-.57-.04-.86-.04-.95,0-1.87.13-2.75.38-.51.06-1.02.15-1.5.29-2.74.75-5.05,2.61-6.3,5.07-.57,1.09-.93,2.26-1.08,3.43-.13,1.02-.11,2.06.05,3.08.52,3.25,1.49,6.46,2.84,9.49-.37.43-.75.85-1.13,1.25-.59.61-1.22,1.2-1.87,1.77-1.01.89-2.86,2.52-4.07,5.13l-.88,1.76v1.08c-.39,2.47.1,5.01,1.45,7.14.88,1.38,2.07,2.51,3.46,3.31.16.32.33.62.51.92-1.38,2.34-3.46,4.71-5.48,7.01-.05.05-.1.11-.14.17-.15.13-.3.27-.45.41-.2.19-.4.4-.59.61-6.34,4.04-11.67,9.14-15.44,14.76-.34.5-.65,1.01-.98,1.54-.11.18-.23.36-.33.54-2.72,4.6-4.46,9.51-5.15,14.57-1.05,7.6.29,15.03,3.89,21.49,3.01,5.41,7.2,9.98,13.17,14.38,9.73,7.19,21.89,11.26,34.22,11.46.3,0,.59,0,.89,0,5.83,0,11.9-.95,18.03-2.82,3.21-.98,6.28-2.12,9.25-3.22,2.77-1.03,5.38-2,8.01-2.81,4.44-1.38,7.73-1.99,10.66-1.99.93,0,1.81.06,2.7.19,2.96.43,5.57,1.65,7.16,3.36.31.33.59.71.85,1.17,1.83,3.15,5.08,5.03,8.69,5.03h0c2.68,0,5.31-1.08,7.23-2.98.3-.3.58-.6.84-.92l.09-.11.25-.33.11-.15c.61-.89,1.07-1.85,1.36-2.86.03-.07.06-.14.08-.21.43-1.12.62-2.28.65-3.43h33.28l4.86-22.61c2.14,17.09,14.02,23.35,25.21,23.35,4.56,0,10.43-1.1,16.32-5.25,3.67,3.36,8.63,5.25,14.42,5.25,6.33,0,12.13-1.81,17.2-5.3,3.82,3.41,8.95,5.3,14.91,5.3,6.51,0,12.62-1.89,17.95-5.47,3.84,3.52,9.01,5.48,15.02,5.48h13.37c4.7,0,9.27-1.48,13.11-4.19,4.4-3.1,6.91-17.46,11.78-17.25,3.37.15,2.55,9.19,12.2,16.29h0c4.78,3.35,10.47,5.15,16.31,5.15h2.67s-.02-.01-.02-.01c0,0,.01,0,.02,0,9.42,0,18.05-2.95,25.76-8.79,4.55,5.57,11.25,8.79,19.17,8.79,5.84,0,11.25-1.7,16.02-4.99,3.81,3.21,8.82,4.99,14.58,4.99,12.47,0,21.79-8.71,22.67-21.19l1.12-15.93-8.85,4.54,15.95-74.9ZM133.01,98.13c-.49-1.33-1.03-2.65-1.63-3.95-.19-.41-.39-.81-.59-1.21h2.22v5.16ZM136.15,110.18v-6.64s1.42,0,1.42,0l-1.42,6.64ZM139.84,92.97h0v-13.62h2.92l-2.92,13.62ZM145.73,65.51s-.02-.05-.03-.07c-.17-.34-.47-.98-.47-3.55,0-6.69.81-11.24,4.23-13.76l-3.73,17.37ZM182.3,67.13c-.31.51-.61,1.04-.9,1.57l3.37-15.69v9.7h.54c-1.05,1.39-2.06,2.85-3,4.42ZM194.85,53.41v-2.5c1,.05,1.99.08,2.98.08.38,0,.73-.03,1.1-.04-1.4.71-2.76,1.55-4.08,2.46ZM342.16,71.59h0s0,0,0,0c0,0,0,0,0,0Z"/>
    <g id="Layer_1-2" data-name="Layer 1">
      <g id="Layer_11" data-name="Layer 11">
        <g>
          <path class="cls-2" d="M129.77,111.02c-.5-4.97-1.83-9.81-3.92-14.35-1.88-4.05-4.4-7.82-7.51-11.03-3.29-3.4-7.34-6.37-11.89-7.81-9.97-3.17-20.07,1.86-28.55,6.7-1.09.62-2.19,1.26-3.31,1.9-.26-.41-.67-.7-1.15-.73h0c.87-2.81,1.72-5.61,2.54-8.43.83-2.81,1.71-5.52,1.88-8.42.17-2.89-.26-5.71-.76-8.5-.5-2.8-.98-5.65-1.97-8.33-.25-.67-.9-.88-1.45-.76l-.13-.78c5.57-1.13,11.18-2.04,16.82-2.74.53-.06.99-.37,1.12-.87.29-.04,2.14-.3,2.14-.3l.86-1.9c.2,0,.39-.04.56-.15.26-.17.41-.4.53-.7.59-1.45.69-3.03.44-4.57-.04-.25-.26-.5-.46-.65-.07-.38-.31-.72-.77-.88-4.53-1.58-10.19-1.13-13.99-4.43-.5-.44-1.11-.35-1.53-.03l-.58-.49c.35-.36.52-.99.2-1.41-.64-.85-1.3-1.69-1.97-2.52-.62-.76-1.24-1.5-2.04-2.09s-1.76-.88-2.72-1.08c-.37-.08-.76-.15-1.15-.23l-.84-.94c.51-.24.81-.9.26-1.35-4.21-3.43-8.94-6.12-14.05-7.97-.51-.18-1.15.31-1.11.85.03.4,0,.74-.1,1.12-.16.55.19.94.62,1.05v.84c-1.91-.75-3.83-1.44-5.78-2.08-.57-.19-1.01.07-1.24.46-.29-.19-.68-.27-1-.18-.66.18-.92.81-.81,1.44.65,4.08,2.19,8.02,4.48,11.46.04.06.09.12.14.18l.04,1.2c-.44-.1-.94.01-1.26.5h.02c-1.23,1.83-2.61,3.56-4.15,5.15-.76.78-1.55,1.53-2.37,2.25-.75.66-1.5,1.33-1.9,2.26-.34.81.04,1.72,1,1.76.73.03,1.45.06,2.18.09.34.01.68.03,1.02.04h.34s-.02.06-.03.09c-.09.23-.21.45-.31.67-.24.54-.45,1.11-.44,1.72,0,1.23.81,2.14,1.99,2.43.72.17,1.53.24,2.33.28l-.35,1.78c-.53-.09-1.1.14-1.28.8h0c-1.46,5.33-5.18,9.58-8.75,13.64-.19.22-.28.45-.3.69-.39.07-.77.28-1.06.69h0c-.27.39-.53.8-.78,1.21-.26-.07-.55-.04-.85.15h0c-8.94,5.67-16.44,14.32-17.92,25.11-.76,5.49.14,11.03,2.84,15.88,2.7,4.85,6.43,8.41,10.65,11.52,8.33,6.15,18.67,9.53,29.02,9.7,5.49.09,10.9-.82,16.14-2.42,5.82-1.78,11.42-4.22,17.23-6.02,5.81-1.8,11.49-2.96,17.31-2.11,4.65.67,9.24,2.67,12.47,6.14.79.85,1.46,1.77,2.04,2.77.67,1.15,2.33.35,2.17-.75.49-.45.49-1.31.02-1.76v-.29c.02-.32.05-.64.1-.97.09-.6.22-1.2.35-1.79.28-1.26.59-2.51.75-3.79.33-2.6.2-5.29-.06-7.88v-.04h-.01Z"/>
          <g>
            <path class="cls-3" d="M127.46,127.68c-.13-.64,1.36-15.2,1.36-15.2l-2.47-13.75-7.99-11.36-10.8-7.9-12.55-.53-11.99,12.96-3.05,33.4s15.28-5.39,15.7-5.53c.42-.14,14.01-2.1,14.01-2.1l8.54,2.24,9.23,7.78h0Z"/>
            <polygon class="cls-8" points="94.47 38.86 83.02 36.49 76.74 31.1 72.32 26.91 68.82 22.98 55.8 15.42 55.8 19.9 48.76 18.09 51.56 29.55 51.7 33.49 42.97 42.26 47.63 42.6 47.23 46.95 50.27 47.62 49.34 52.34 44.6 60.9 37.28 68.71 26.35 78.35 19.66 93.85 21.93 106.78 30.41 118.36 41.87 124.44 61.08 129.7 81.13 125.02 100.72 108.44 85.01 104.8 99.36 94.89 85.01 89.74 97.09 78.2 81.67 83.62 72.32 89.04 74.53 78.86 76.52 67.94 73.35 49.33 93.63 46.57 95.01 40.92 94.47 38.86"/>
            <path class="cls-3" d="M63.75,50.71s4.55-12.28,31.26-7.19l-1.38,3.05-29.88,4.13h0Z"/>
            <path class="cls-3" d="M73.35,49.33l3.38,20.02-4.42,17.5s-16.94-34.69,1.04-37.51h0Z"/>
            <path class="cls-3" d="M38.33,66.34c-.97,1.44-1.92,2.98-2.31,4.69-.34,1.55-.32,3.17-.31,4.74,0,3.79.41,7.87,2.49,11.14.97,1.53,2.3,2.79,3.71,3.92s2.99,2.26,4.75,2.94c4.24,1.65,8.9,1.55,13.29.62,5-1.06,9.92-2.91,14.2-5.7,1.71-1.11.11-3.87-1.6-2.75-3.44,2.24-7.17,3.73-11.12,4.81-3.94,1.09-7.95,1.6-11.89.59-3.02-.78-5.92-2.75-7.98-5.21s-2.54-6-2.65-9.14c-.03-.88-.02-1.76,0-2.64,0-.39,0-.8.03-1.19,0-.18.02-.36.04-.54,0-.05.06-.52.03-.26.25-1.68,1.13-3.02,2.08-4.43,1.15-1.7-1.6-3.29-2.75-1.6h-.01Z"/>
            <path class="cls-4" d="M85.01,118.91s29.16-13.93,41.97,7.07l-11.66-7.56-15.84.73-18.34,5.86,3.88-6.11h0Z"/>
            <path class="cls-7" d="M27.45,77.38c-8.76,24.87,29.3,52.11,63.55,39.29l-9.87,8.35-16.05,4.68-20.06-3.5-13.93-7.49-7.47-8.96-3.96-10.02,1.83-12.89,5.97-9.46h0Z"/>
            <path class="cls-6" d="M36.32,69.04c-1.66,8.62-1.07,19.09,7.24,24.14,9.1,5.52,20.17,1.78,28.76-2.82s18-11.6,28.64-11.14c9.65.42,17.49,8.42,21.8,16.47,2.33,4.34,3.86,9.13,4.53,14.02.36,2.63.52,5.37.33,8.02-.18,2.58-1.12,5.02-1.31,7.59-.08,1.09.15,2.51,1.56,2.49,1.5-.03,1.51-2.36,0-2.33h-.15c.2.06.39.11.59.16l.15.2c.13.26.18.28.15.06.04-.08.01-.34.02-.43.02-.32.05-.64.1-.97.09-.6.22-1.2.35-1.79.28-1.26.59-2.51.75-3.79.33-2.6.2-5.29-.06-7.88-.5-4.97-1.83-9.81-3.92-14.35-1.88-4.05-4.4-7.82-7.51-11.03-3.29-3.4-7.34-6.37-11.89-7.81-9.97-3.17-20.07,1.86-28.55,6.7s-17.98,10.85-28.08,8.63c-4.43-.97-8.26-3.57-10.24-7.72-1.85-3.88-1.97-8.45-1.51-12.65.11-1.05.29-2.1.49-3.14.28-1.47-1.97-2.09-2.25-.62h.01Z"/>
            <path class="cls-6" d="M36.69,67.7c-8.94,5.66-16.44,14.31-17.92,25.09-.76,5.49.14,11.03,2.84,15.88,2.7,4.85,6.43,8.41,10.65,11.52,8.33,6.15,18.67,9.53,29.02,9.7,5.49.09,10.9-.82,16.14-2.42,5.82-1.78,11.42-4.22,17.23-6.02,5.81-1.8,11.49-2.96,17.31-2.11,4.65.67,9.24,2.67,12.47,6.14.79.85,1.46,1.77,2.04,2.77.76,1.3,2.77.12,2.02-1.18-2.42-4.14-6.39-7.03-10.83-8.69-5.04-1.88-10.5-1.95-15.76-1.09-11.61,1.88-21.96,8.31-33.64,9.88-9.97,1.33-20.35-.64-29.19-5.43-8.81-4.77-17.42-12.8-18.16-23.38-.75-10.69,5.49-20.26,13.79-26.47,1.04-.78,2.11-1.5,3.2-2.19,1.27-.8.1-2.82-1.18-2.02h0l-.03.02h0Z"/>
            <path class="cls-6" d="M79.15,34.95c4.24,3.69,9.98,3.28,15.02,5.04,1.42.5,2.03-1.76.62-2.25-4.53-1.58-10.19-1.13-13.99-4.43-1.13-.98-2.79.66-1.65,1.65h0Z"/>
            <path class="cls-6" d="M93.78,39.89c.01.07.02.14.03.21l-.04-.31c.09.66.09,1.32,0,1.97l.04-.31c-.08.61-.24,1.2-.48,1.77-.11.26-.02.67.11.9s.42.47.7.53c.3.07.64.05.9-.11s.41-.4.53-.7c.59-1.45.69-3.03.44-4.57-.04-.27-.31-.57-.53-.7-.25-.15-.62-.21-.9-.11s-.55.27-.7.53c-.15.29-.17.57-.11.9h.01Z"/>
            <path class="cls-6" d="M46.96,18.68c.65,4.08,2.19,8.02,4.48,11.46.35.52,1.03.75,1.6.42.52-.31.77-1.07.42-1.6-2.19-3.29-3.63-7-4.25-10.91-.1-.62-.88-.97-1.44-.81-.66.18-.92.81-.81,1.44h0Z"/>
            <path class="cls-6" d="M49.39,19.21c5.2,1.69,10.23,3.8,15.09,6.32,1.33.69,2.51-1.32,1.18-2.02-5.02-2.61-10.26-4.8-15.64-6.56-1.43-.46-2.04,1.79-.62,2.25h0Z"/>
            <path class="cls-6" d="M50.39,31.99c-1.23,1.84-2.61,3.57-4.15,5.16-.76.78-1.55,1.53-2.37,2.25-.75.66-1.5,1.33-1.9,2.26-.34.81.04,1.72,1,1.76.73.03,1.45.06,2.18.09.34.01.68.03,1.02.04.2,0,.72-.04.87.06l-.42-.42c0-.17,0-.16,0,.02-.03.15-.08.29-.13.43-.09.23-.21.45-.31.67-.24.54-.45,1.11-.44,1.72,0,1.23.81,2.14,1.99,2.43s2.6.3,3.86.32c1.41.03,2.82-.06,4.22-.22.62-.07,1.16-.48,1.16-1.16,0-.57-.53-1.24-1.16-1.16-1.63.19-3.28.26-4.92.2-.81-.03-1.66-.05-2.46-.2-.23-.04-.31-.03-.35-.19-.06-.22.13-.56.22-.74.51-1.17,1.28-2.99-.24-3.8-.67-.36-1.58-.25-2.32-.28-.92-.04-1.84-.08-2.76-.11l1,1.76c.39-.92,1.2-1.49,1.93-2.14.81-.73,1.6-1.49,2.34-2.28,1.53-1.63,2.92-3.4,4.15-5.25.83-1.25-1.18-2.42-2.02-1.18h.02v-.04h0Z"/>
            <path class="cls-6" d="M68.51,27.34c.9.17,1.8.34,2.7.52.83.17,1.69.32,2.37.83.61.45,1.09,1.09,1.57,1.67.59.72,1.16,1.44,1.72,2.18.38.5,1,.76,1.6.42.5-.29.8-1.09.42-1.6-.64-.85-1.3-1.69-1.97-2.52-.62-.76-1.24-1.5-2.04-2.09s-1.76-.88-2.72-1.08-2.02-.41-3.03-.59c-.62-.11-1.26.17-1.44.81-.16.57.19,1.32.81,1.44h0Z"/>
            <path class="cls-6" d="M70.43,23.15c-4.21-3.43-8.94-6.12-14.05-7.97-.51-.18-1.15.31-1.11.85.03.4,0,.74-.1,1.12-.32,1.08,1.37,1.55,1.69.46.15-.52.21-1.04.17-1.58l-1.11.85c4.81,1.74,9.32,4.29,13.27,7.52.87.71,2.11-.53,1.24-1.24h0Z"/>
            <path class="cls-6" d="M91.72,39.94c.73.6,1.44,1.21,2.17,1.81.24.2.5.34.83.34.29,0,.63-.13.83-.34s.36-.52.34-.83-.13-.59-.34-.83c-.08-.08-.14-.16-.21-.25l.18.24c-.17-.22-.31-.46-.41-.71l.11.28c-.08-.18-.13-.36-.17-.55-.06-.28-.29-.55-.53-.7s-.62-.21-.9-.11-.55.27-.7.53c-.15.29-.19.59-.11.9.17.76.57,1.45,1.09,2.02l1.65-1.65c-.73-.6-1.44-1.21-2.17-1.81-.24-.2-.5-.34-.83-.34-.29,0-.63.13-.83.34s-.36.52-.34.83c.01.29.11.63.34.83h0Z"/>
            <path class="cls-6" d="M48.42,51.32c-1.46,5.32-5.18,9.57-8.75,13.63-.99,1.13.66,2.78,1.65,1.65,3.84-4.36,7.77-8.94,9.34-14.66.4-1.45-1.85-2.07-2.25-.62h.01Z"/>
            <path class="cls-6" d="M72.88,52.64c.94,2.54,1.4,5.22,1.89,7.88s.93,5.53.76,8.33-1.07,5.35-1.84,7.94c-.81,2.76-1.65,5.51-2.5,8.26-.45,1.44,1.81,2.05,2.25.62.87-2.8,1.72-5.6,2.54-8.42.83-2.81,1.71-5.52,1.88-8.42s-.26-5.71-.76-8.5-.98-5.65-1.97-8.33c-.52-1.4-2.77-.8-2.25.62h0v.02h0Z"/>
            <path class="cls-6" d="M90.37,45.41c-9.29,1.14-18.5,2.84-27.57,5.11-1.46.36-.84,2.61.62,2.25,8.87-2.23,17.87-3.92,26.95-5.03.63-.08,1.16-.48,1.16-1.16,0-.57-.54-1.25-1.16-1.16h0Z"/>
            <path class="cls-6" d="M70.31,35.76c.12-.08.25-.15.38-.21.04-.03.11-.05.03-.01.06-.03.13-.05.2-.07.12-.04.25-.07.38-.1.02,0,.24-.04.14-.03-.09.01.08,0,.1,0,.14-.01.29-.01.43,0,.06,0,.11.01.17.01.1,0-.09-.03.06,0,.13.03.25.05.38.09.07.02.13.04.2.07.16.05-.03-.03.05.02.1.06.21.1.31.17.04.03.09.06.13.08,0,0,.18.13.1.07s.08.06.09.08c.04.03.08.07.11.11.1.09.18.18.27.29.05.06.06.08,0,0,.04.05.08.11.11.16.06.1.12.2.18.3.03.06.06.11.08.17.06.12-.06-.18,0,.04.04.12.08.25.11.38.11.45.64.76,1.07.61s.73-.6.61-1.07c-.31-1.25-1.21-2.39-2.39-2.92-1.35-.61-2.94-.53-4.19.27-.39.24-.58.79-.31,1.2s.78.57,1.2.31h0v-.02h0Z"/>
          </g>
        </g>
      </g>
      <g>
        <path class="cls-6" d="M181.15,37.95l-17.17,79.89h-17.92l17.67-82.38h-1.49c-13.19,0-23.39,5.1-23.39,25.14,0,6.35,1.62,7.34,1.74,8.46-8.58,0-13.31-3.11-13.31-12.07,0-16.55,11.7-32.35,42.43-32.35,15.06,0,19.66,2.86,31.86,2.86,5.73,0,11.08-1.24,14.44-2.61-.25,10.83-5.6,15.8-15.55,15.8-6.1,0-12.57-1.25-19.29-2.74h-.02,0Z"/>
        <path class="cls-6" d="M246.12,55.62l-8.96,42.31c-.37,1.62-.5,2.86-.5,3.98,0,3.48,1.62,5.35,5.1,5.35,4.85,0,8.21-5.48,10.08-11.7h5.23c-7.09,20.28-18.29,23.02-25.01,23.02s-11.45-3.98-12.2-11.45c-3.86,5.72-9.71,11.45-18.54,11.45s-16.55-5.23-16.55-20.03c0-16.8,10.33-43.55,31.98-43.55,7.09,0,10.08,2.74,10.08,6.35v.87l1.37-6.6h17.92ZM203.18,96.8c0,9.58,3.98,9.71,6.22,9.71,3.61,0,8.83-3.73,10.33-10.95l5.97-28.12c0-1.49-1.12-4.73-5.1-4.73-10.58,0-17.42,22.4-17.42,34.1h0Z"/>
        <path class="cls-6" d="M278.23,55.62l-8.96,42.31c-.37,1.62-.5,2.86-.5,3.98,0,3.48,1.62,4.6,5.1,4.6,4.85,0,9.33-4.73,11.2-10.95h5.23c-7.09,20.28-19.41,23.02-26.13,23.02-7.47,0-13.31-4.48-13.31-14.93,0-2.36.37-5.1.99-8.09l8.46-39.94h17.92,0ZM272.63,29.11c5.48,0,9.96,4.48,9.96,9.96s-4.48,9.83-9.96,9.83-9.83-4.36-9.83-9.83,4.35-9.96,9.83-9.96Z"/>
        <path class="cls-6" d="M302.25,97.68c-.25,1.24-.5,2.49-.5,3.61,0,2.86,1.24,4.98,5.1,4.98,2.24,0,3.24-.37,3.98-.75-.62,8.84-6.97,13.07-13.69,13.07-7.46,0-13.31-4.6-13.31-15.18,0-2.36.37-5.1.99-8.09l13.32-62.34,18.42-2.49-14.31,67.2h0Z"/>
        <path class="cls-6" d="M330.37,24.76c5.1,0,7.96,3.48,7.96,8.21,0,6.47-5.6,14.81-15.06,20.91-.87-.5-1.12-1.12-1.12-1.74l6.1-8.71c0-.75-.5-1.49-1.49-2.11-3.11-1.87-5.48-4.36-5.48-7.84,0-4.73,3.98-8.71,9.08-8.71h.01Z"/>
        <path class="cls-6" d="M374.55,108.13c9.83,0,15.8-5.47,22.02-12.57h4.23c-7.09,11.45-17.67,23.02-34.22,23.02-11.7,0-19.41-5.72-19.41-19.79s8.09-44.3,33.6-44.3c11.08,0,13.69,5.72,13.69,11.95,0,14.31-13.69,25.38-28.62,26.26-.12,1.74-.25,3.48-.25,4.98,0,8.46,2.99,10.45,8.96,10.45h0ZM381.77,61.09c-6.35,0-12.44,13.31-14.93,25.63,9.58-.62,18.05-10.2,18.05-20.53,0-3.11-.75-5.1-3.11-5.1h-.01Z"/>
        <path class="cls-6" d="M447.23,97.92c-.25,1.24-.5,2.49-.5,3.61,0,2.86,1.24,4.98,5.1,4.98,2.24,0,3.24-.37,3.98-.75-.62,8.84-6.97,12.82-13.69,12.82-6.35,0-11.45-3.11-12.94-10.33-3.73,5.35-9.46,10.33-17.67,10.33s-16.55-5.23-16.55-20.03c0-16.8,10.33-43.55,31.98-43.55,7.09,0,10.08,2.74,10.08,6.35v.5l6.1-28.62,18.42-2.49-14.31,67.2v-.02h0ZM435.9,67.06c-.25-1.49-1.37-4.36-5.1-4.36-10.58,0-17.42,22.4-17.42,34.1,0,9.58,3.98,9.71,6.22,9.71,3.24,0,8.34-2.86,9.71-8.96l6.6-30.49h-.01Z"/>
      </g>
    </g>
  </g>
</svg>