<svg preserveAspectRatio="xMidYMid meet" data-bbox="0 0 903.3 193" viewBox="0 0 903.3 193" xmlns:xlink="http://www.w3.org/1999/xlink" xmlns="http://www.w3.org/2000/svg" data-type="color" role="presentation" aria-hidden="true">
    <g>
        <defs>
            <path id="de106415-866f-4926-bcd0-8231bbefb8fc_comp-kbgakxmn_r_comp-ln4yk9wq" d="M262.5 0v193H0V0h262.5z"></path>
        </defs>
        <clipPath id="fa5a489e-5a7b-4fec-a3a3-abc912b5a272_comp-kbgakxmn_r_comp-ln4yk9wq">
            <use xlink:href="#de106415-866f-4926-bcd0-8231bbefb8fc_comp-kbgakxmn_r_comp-ln4yk9wq" overflow="visible"></use>
        </clipPath>
        <g clip-path="url(#fa5a489e-5a7b-4fec-a3a3-abc912b5a272_comp-kbgakxmn_r_comp-ln4yk9wq)">
            <path d="M131.3 0v42.9l87.5 85.8-21.9 21.4-43.8-42.9-6.4 6.3v73.2l6.4 6.3 21.9-21.4 21.9 21.4 65.6-64.3L131.3 0z" fill="#3f6cf4" data-color="1"></path>
            <path d="M131.3 0v42.9l-87.5 85.8 21.9 21.4 43.8-42.9 6.4 6.3v73.2l-6.4 6.3-21.9-21.4-22 21.4L0 128.7 131.3 0z" fill="#e34f4f" data-color="2"></path>
        </g>
        <defs>
            <path id="38f1235a-1d89-4869-adef-aac18b38b1da_comp-kbgakxmn_r_comp-ln4yk9wq" d="M903.3 94v59.4H308.9V94h594.4z"></path>
        </defs>
        <clipPath id="7bf40280-d25b-4bc3-874f-ac0b0bb4d59c_comp-kbgakxmn_r_comp-ln4yk9wq">
            <use xlink:href="#38f1235a-1d89-4869-adef-aac18b38b1da_comp-kbgakxmn_r_comp-ln4yk9wq" overflow="visible"></use>
        </clipPath>
        <g clip-path="url(#7bf40280-d25b-4bc3-874f-ac0b0bb4d59c_comp-kbgakxmn_r_comp-ln4yk9wq)">
            <path d="M325.8 100.1h-16.9v-4.9h38.9v4.9H331V152h-5.2v-51.9z" fill="#3f6cf4" data-color="1"></path>
            <path d="M380.6 139.3H356l-5.3 14h-5.3l22.9-58.1h.4l22.9 58.1H386l-5.4-14zm-22.8-4.8h20.8l-10.4-26.9-10.4 26.9z" fill="#3f6cf4" data-color="1"></path>
            <path d="M404.2 107.3V152h-4.9V94h.5l36.7 45.8V95.2h4.9v57.9h-.5l-36.7-45.8z" fill="#3f6cf4" data-color="1"></path>
            <path d="M454.4 95.2H468c18 0 28.7 11.6 28.7 28.4 0 16.8-10.6 28.4-28.7 28.4h-13.6V95.2zm13.2 51.8c16.1 0 23.8-9.7 23.8-23.4 0-13.8-7.6-23.4-23.8-23.4h-7.9v46.9l7.9-.1z" fill="#3f6cf4" data-color="1"></path>
            <path d="M504.6 95.2h32.8v4.9h-27.6V121h24.6v4.8h-24.6v21.4h28.7v4.9h-34V95.2z" fill="#3f6cf4" data-color="1"></path>
            <path d="M549 95.2h.3l25.7 33 25.5-33h.4v57.9H596v-44.6l-21 27.4h-.3L554 108.5v44.6h-5V95.2z" fill="#3f6cf4" data-color="1"></path>
            <path d="M613.8 95.3h5.2v51.9h25.3v4.9h-30.5V95.3z" fill="#3f6cf4" data-color="1"></path>
            <path d="M682.2 139.3h-24.6l-5.4 14.1h-5.3l22.9-58.1h.4l23 58.1h-5.6l-5.4-14.1zm-22.7-4.7h20.8l-10.4-27-10.4 27z" fill="#3f6cf4" data-color="1"></path>
            <path d="M698.5 132.1V94.7h5.2v37c0 10.3 5.5 15.5 14 15.5 8.6 0 14-5.2 14-15.5v-37h5.2v37.4c0 13.2-8.3 19.9-19.2 19.9-11 0-19.2-6.7-19.2-19.9z" fill="#3f6cf4" data-color="1"></path>
            <path d="M757.3 107.3V152h-4.9V94.1h.5l36.7 45.8V95.3h4.9v57.9h-.5l-36.7-45.9z" fill="#3f6cf4" data-color="1"></path>
            <path d="M802.4 123.7c0-16.8 12.1-29.1 27.5-29.1 9.2 0 16.5 3.9 21.4 10.6l-4 3c-4.1-5.5-9.9-8.7-17.4-8.7-12.7 0-22 10.3-22 24.1 0 13.9 9.5 24.1 22.4 24.1 7.8 0 14.2-3.4 18.5-9.4l4.1 3c-5.4 7.4-13 11.4-22.8 11.4-15.7-.1-27.8-12.2-27.7-29z" fill="#3f6cf4" data-color="1"></path>
            <path d="M898.1 95.3h5.2V152h-5.2v-25.8h-29.8V152h-5.2V95.3h5.2v26.2h29.8V95.3z" fill="#3f6cf4" data-color="1"></path>
        </g>
    </g>
</svg>