<?xml version="1.0" encoding="UTF-8"?>
<svg id="OLLIE_RGB_PINE" xmlns="http://www.w3.org/2000/svg" viewBox="0 0 7674.86 1173.72">
  <defs>
    <style>
      .cls-1 {
        fill: #002b11;
        stroke-width: 0px;
      }
    </style>
  </defs>
  <path class="cls-1" d="M619,679.47c0,89.5-72.57,162.07-162.07,162.07s-162.07-72.57-162.07-162.07,72.57-162.07,162.07-162.07,162.07,72.57,162.07,162.07ZM1370.4,517.4c-89.49,0-162.07,72.57-162.07,162.07s72.58,162.07,162.07,162.07,162.06-72.57,162.06-162.07c-.02-89.45-72.52-161.97-161.97-162.02l-.09-.04ZM1827.34,679.47c0,252.22-204.65,456.69-456.93,456.69-115.09.17-225.95-43.24-310.29-121.55l-146.24,159.11-146.31-159.29c-84.32,78.4-195.24,121.88-310.38,121.73C205.08,1136.16.5,931.68.5,679.47c-.18-128.48,53.93-251.07,148.97-337.52L0,179.34h332.06c351.35-239.11,813.15-239.11,1164.48,0h331.2l-149.43,162.61c95.07,86.43,149.19,209.02,149.03,337.52ZM766.12,679.47c0-170.69-138.39-309.07-309.07-309.07s-309.07,138.39-309.07,309.07,138.39,309.07,309.07,309.07,309.05-138.34,309.07-309.03v-.05ZM1256.82,218.03c-219.53-91.45-466.48-91.45-686.01,0,195.13,74.69,343.06,249.13,343.06,452.52,0-203.37,147.91-377.84,342.98-452.5l-.02-.02ZM1679.54,679.44c0-170.69-138.39-309.07-309.07-309.07s-309.08,138.39-309.08,309.07,138.38,309.07,309.08,309.07,309.07-138.39,309.07-309.07ZM2644.61,495.27v-100.21h-153.71v596.69h153.71v-357.77c0-64.82,41.56-96.61,106.32-96.61h84.09v-142.3h-71.87c-56.21,0-105.12,29.34-118.55,100.26v-.05ZM2979.04,158.96c-52.55,0-92.88,41.57-92.88,94.16,0,24.64,9.78,48.28,27.2,65.71,17.43,17.44,41.05,27.22,65.68,27.22s48.26-9.78,65.68-27.22c17.41-17.43,27.2-41.07,27.2-65.71,0-52.54-40.34-94.16-92.88-94.16ZM2902.38,991.69h153.25V395.05h-153.32l.07,596.64ZM3786.17,693.3c0,170.33-138.02,308.42-308.18,308.42-65.35.32-128.96-20.97-180.97-60.54v225.69h-153.31V395.05h153.31v50.46c52.01-39.57,115.62-60.85,180.97-60.54,170.16,0,308.18,138.09,308.18,308.42v-.09ZM3631.86,693.3c0-33.14-9.82-65.53-28.22-93.09-18.4-27.55-44.55-49.03-75.16-61.7-30.59-12.68-64.27-16.01-96.75-9.54-32.49,6.47-62.32,22.42-85.75,45.85-23.42,23.43-39.37,53.29-45.83,85.79-6.47,32.5-3.15,66.19,9.53,96.81,12.67,30.62,34.14,56.78,61.68,75.19,27.53,18.4,59.91,28.23,93.03,28.23,44.4,0,86.98-17.63,118.39-49.03,31.4-31.41,49.05-73.99,49.08-118.42v-.09ZM6451.51,640.94l-89.47-24.55c-58.86-15.32-81.79-33.4-81.79-64.5s32.2-51.54,78.33-51.54,78.35,28.8,78.35,65.56v3.41h141.28v-3.41c0-108.29-88.28-181.04-219.67-181.04s-224.63,72.69-224.63,172.86c0,77.91,51.63,136.64,141.67,161.03l85.68,23.38c65.09,18.02,89.29,38.05,89.29,73.87,0,37.82-34.98,63.23-87.03,63.23s-90.76-34.33-90.76-85.42v-3.33h-150.01v3.33c0,122.41,98.5,207.91,239.54,207.91s234.56-83.51,234.56-198.56c.07-56.2-25.16-130.03-145.32-162.11v-.1ZM4330.18,395.05h153.29v596.69h-153.29v-50.46c-52.02,39.58-115.65,60.86-181,60.54-170.27,0-308.27-138.09-308.27-308.43s138-308.34,308.27-308.34c65.34-.31,128.95,20.97,180.96,60.54l.03-50.54ZM4330.18,693.45c-.01-33.14-9.83-65.53-28.23-93.08-18.4-27.55-44.56-49.03-75.16-61.7-30.6-12.68-64.27-16-96.76-9.53-32.48,6.47-62.32,22.42-85.73,45.85-23.42,23.43-39.37,53.29-45.83,85.79-6.46,32.5-3.14,66.19,9.53,96.79,12.68,30.62,34.15,56.79,61.68,75.19,27.54,18.42,59.92,28.24,93.04,28.24,21.99-.01,43.78-4.34,64.1-12.78,20.33-8.42,38.79-20.77,54.34-36.34,15.55-15.57,27.89-34.05,36.3-54.38,8.41-20.34,12.73-42.14,12.73-64.14v.07ZM5037.28,182.66h153.32v809.08h-153.32v-50.46c-52.01,39.57-115.62,60.85-180.96,60.54-170.25,0-308.27-138.09-308.27-308.43s138.02-308.34,308.27-308.34c65.33-.33,128.94,20.91,180.96,60.46V182.66ZM5037.28,693.39c0-33.14-9.82-65.52-28.22-93.08-18.4-27.55-44.55-49.03-75.16-61.71-30.6-12.68-64.28-16-96.76-9.53-32.49,6.47-62.32,22.42-85.75,45.85-23.42,23.43-39.36,53.29-45.83,85.79-6.46,32.5-3.13,66.19,9.54,96.81,12.67,30.62,34.15,56.79,61.69,75.19,27.54,18.42,59.92,28.23,93.04,28.23,44.4-.01,87-17.66,118.4-49.08,31.4-31.42,49.04-74.04,49.04-118.48ZM5902.66,991.79h153.31V395.05h-153.31v596.73ZM5979.24,158.96c-52.56,0-92.89,41.57-92.89,94.16,0,24.64,9.78,48.28,27.21,65.71,17.41,17.44,41.04,27.22,65.68,27.22s48.26-9.78,65.67-27.22c17.43-17.43,27.21-41.07,27.21-65.71,0-52.54-40.35-94.16-92.88-94.16ZM7259.73,693.35c0,170.34-138.01,308.42-308.19,308.42s-308.27-138.08-308.27-308.42,138.02-308.34,308.27-308.34,308.19,138.06,308.19,308.38v-.05ZM7118.88,693.35c0-33.14-9.82-65.53-28.22-93.09-18.4-27.54-44.55-49.02-75.16-61.7-30.59-12.68-64.27-16-96.75-9.54-32.49,6.47-62.32,22.43-85.75,45.85-23.42,23.43-39.37,53.29-45.83,85.79-6.47,32.5-3.15,66.19,9.53,96.81,12.67,30.62,34.14,56.79,61.68,75.19,27.53,18.42,59.91,28.24,93.03,28.24,44.42,0,87.01-17.63,118.42-49.05,31.41-31.41,49.06-74.02,49.08-118.46l-.03-.05ZM2566.07,182.66h-588.2v136.88h217.72v672.2h152.8V319.54h217.71l-.03-136.88ZM5540.98,828.34l-136.4-433.29h-161.06l204.59,596.69h184.53l205.8-596.69h-161.06l-136.4,433.29ZM7484.44,495.31v-100.26h-153.71v596.69h153.71v-357.77c0-64.82,41.57-96.61,106.34-96.61h84.09v-142.3h-71.85c-56.24,0-105.12,29.34-118.57,100.26Z"/>
</svg>