<svg version="1.1" id="Layer_1" xmlns:x="ns_extend;" xmlns:i="ns_ai;" xmlns:graph="ns_graphs;" xmlns="http://www.w3.org/2000/svg" xmlns:xlink="http://www.w3.org/1999/xlink" x="0px" y="0px" viewBox="0 0 258.6 88" style="enable-background:new 0 0 258.6 88;" xml:space="preserve">
 <style type="text/css">
  .st0{fill:#1E1E1C;}
 </style>
 <metadata>
  <sfw xmlns="ns_sfw;">
   <slices>
   </slices>
   <sliceSourceBounds bottomLeftOrigin="true" height="88" width="258.6" x="71.6" y="-244">
   </sliceSourceBounds>
  </sfw>
 </metadata>
 <g>
  <path class="st0" d="M188.2,65.3c-1.1-12.1-11.3-15.1-21.3-18.4c-9-3-17.5-3.8-18.4-10.2c-1-6.9,5.8-11.5,12.8-10.2
		c7.7,1.4,9.1,7.2,7.3,11.1c3.5,4.4,12.3,3.9,15,0.9c2.2-2.5,3-6.6-1.7-10.6c-5.7-4.8-17.4-7.1-28.6-5c-11,2.1-19.8,9.4-18.8,20.2
		c1.1,11.5,9.3,14.9,22.3,18.4c12.6,3.4,16.7,7.8,15.9,13.7c-0.7,5.2-5.2,9.5-14.7,8.4c-9.5-1.1-14.5-8.4-12.6-16.6
		c-10.8-2.5-15.5,8.2-6.5,15.2c8.7,6.8,25.7,7.4,35.3,3.7C183,82.5,189.2,76.5,188.2,65.3z M114.7,18.8c5.9,0,10.6-4.2,10.6-9.4
		c0-5.2-4.8-9.4-10.6-9.4S104,4.2,104,9.4C104,14.6,108.8,18.8,114.7,18.8z M123.1,24c-5.3,2.4-11.4,2.4-16.8,0v62.2h16.8L123.1,24
		L123.1,24L123.1,24z M233.2,22.1c-5.9-0.1-11.6,1.8-16.3,5.3V1.9h-17.3v84.3h17.2v-39c0-9.9,1.5-14.6,6.5-18.4
		c4.5-3.4,10.9-2.8,14.4-0.4c4.2,2.9,4,10,4,15.6v42.1h16.8V43.7C258.6,28.6,248.3,22.1,233.2,22.1z M77.3,86.1H60.4L47.2,47.7
		l-9.3,38.5H21.1L0,24h17.3l17.8,53.8c6.4-18,10.4-34.8,4.2-53.8h16.8C56.1,24,77.3,86.1,77.3,86.1z M84.2,22
		c-3.7,6.5-8.4,12.2-14,17.1c6.1,6.6,10.9,14.3,14,22.8c3.2-8.4,7.9-16.2,14-22.8C92.7,34.3,87.9,28.5,84.2,22z">
  </path>
 </g>
</svg>